Enclosed-Medium.sfdir
StartChar: uF1D83
Encoding: 990595 990595 1
Width: 1000
Flags: MW
LayerCount: 2
Back
Fore
SplineSet
980 284 m 256
 980 151 933 37 840 -56 c 0
 747 -149 633 -196 500 -196 c 256
 367 -196 253 -149 160 -56 c 0
 67 37 20 151 20 284 c 256
 20 417 67 530 160 624 c 0
 253 718 367 765 500 765 c 256
 633 765 747 718 840 624 c 0
 933 530 980 417 980 284 c 256
932 284 m 256
 932 404 890 506 806 590 c 0
 722 674 620 716 500 716 c 0
 380 716 278 674 194 590 c 0
 110 506 68 404 68 284 c 256
 68 164 110 62 194 -22 c 0
 278 -106 380 -147 500 -147 c 0
 620 -147 722 -106 806 -22 c 0
 890 62 932 164 932 284 c 256
335 511 m 0
 335 520 348 526 366 532 c 0
 396 542 405 537 460 559 c 0
 496 574 514 598 529 598 c 0
 544 598 545 585 545 579 c 0
 545 573 534 548 534 539 c 0
 532 505 529 435 529 273 c 0
 529 192 527 145 527 116 c 0
 527 9 665 69 665 34 c 0
 665 24 648 23 630 23 c 2
 500 23 l 2
 454 23 404 20 374 20 c 0
 354 20 343 23 343 33 c 0
 343 45 363 48 382 48 c 2
 394 48 l 2
 455 48 457 76 457 80 c 0
 467 130 470 218 470 299 c 2
 470 461 l 2
 470 491 464 511 428 511 c 0
 396 511 362 499 348 499 c 0
 346 499 335 502 335 511 c 0
EndSplineSet
EndChar
StartChar: uF1D84
Encoding: 990596 990596 2
Width: 1000
Flags: MW
LayerCount: 2
Back
Fore
SplineSet
980 284 m 256
 980 151 933 37 840 -56 c 0
 747 -149 633 -196 500 -196 c 256
 367 -196 253 -149 160 -56 c 0
 67 37 20 151 20 284 c 256
 20 417 67 530 160 624 c 0
 253 718 367 765 500 765 c 256
 633 765 747 718 840 624 c 0
 933 530 980 417 980 284 c 256
932 284 m 256
 932 404 890 506 806 590 c 0
 722 674 620 716 500 716 c 0
 380 716 278 674 194 590 c 0
 110 506 68 404 68 284 c 256
 68 164 110 62 194 -22 c 0
 278 -106 380 -147 500 -147 c 0
 620 -147 722 -106 806 -22 c 0
 890 62 932 164 932 284 c 256
268 31 m 2
 268 34 l 2
 268 59 393 111 535 316 c 0
 566 362 588 418 588 465 c 0
 588 509 540 542 463 542 c 0
 345 542 313 491 289 491 c 0
 283 491 279 496 279 502 c 0
 279 510 341 597 484 597 c 0
 566 597 655 561 655 484 c 0
 655 340 396 110 396 94 c 0
 396 86 446 84 478 84 c 0
 651 84 622 85 649 95 c 0
 681 106 706 139 721 139 c 0
 729 139 732 135 732 131 c 0
 732 125 665 35 665 35 c 2
 655 24 645 21 636 21 c 0
 506 21 501 23 447 23 c 0
 418 23 341 21 308 21 c 0
 270 21 268 25 268 31 c 2
EndSplineSet
EndChar
StartChar: uF1D85
Encoding: 990597 990597 3
Width: 1000
Flags: MW
LayerCount: 2
Back
Fore
SplineSet
980 284 m 256
 980 151 933 37 840 -56 c 0
 747 -149 633 -196 500 -196 c 256
 367 -196 253 -149 160 -56 c 0
 67 37 20 151 20 284 c 256
 20 417 67 530 160 624 c 0
 253 718 367 765 500 765 c 256
 633 765 747 718 840 624 c 0
 933 530 980 417 980 284 c 256
932 284 m 256
 932 404 890 506 806 590 c 0
 722 674 620 716 500 716 c 0
 380 716 278 674 194 590 c 0
 110 506 68 404 68 284 c 256
 68 164 110 62 194 -22 c 0
 278 -106 380 -147 500 -147 c 0
 620 -147 722 -106 806 -22 c 0
 890 62 932 164 932 284 c 256
272 56 m 0
 272 59 276 69 298 69 c 0
 316 69 340 32 446 32 c 0
 602 32 661 139 661 193 c 0
 661 251 625 310 498 310 c 0
 475 310 465 307 462 307 c 0
 449 307 446 314 446 319 c 0
 446 329 464 326 550 368 c 0
 600 393 629 430 629 463 c 0
 629 504 580 539 514 539 c 0
 431 539 369 491 345 491 c 0
 335 491 335 494 335 498 c 0
 335 536 446 587 525 587 c 0
 607 587 690 558 690 493 c 0
 690 435 656 409 618 375 c 0
 610 368 605 364 605 360 c 0
 605 354 639 358 673 332 c 0
 706 308 728 274 728 224 c 0
 728 94 596 0 446 0 c 0
 362 0 272 30 272 56 c 0
EndSplineSet
EndChar
StartChar: uF1D86
Encoding: 990598 990598 4
Width: 1000
Flags: MW
LayerCount: 2
Back
Fore
SplineSet
980 284 m 256
 980 151 933 37 840 -56 c 0
 747 -149 633 -196 500 -196 c 256
 367 -196 253 -149 160 -56 c 0
 67 37 20 151 20 284 c 256
 20 417 67 530 160 624 c 0
 253 718 367 765 500 765 c 256
 633 765 747 718 840 624 c 0
 933 530 980 417 980 284 c 256
932 284 m 256
 932 404 890 506 806 590 c 0
 722 674 620 716 500 716 c 0
 380 716 278 674 194 590 c 0
 110 506 68 404 68 284 c 256
 68 164 110 62 194 -22 c 0
 278 -106 380 -147 500 -147 c 0
 620 -147 722 -106 806 -22 c 0
 890 62 932 164 932 284 c 256
255 190 m 0
 255 210 266 222 526 506 c 0
 556 540 585 580 607 580 c 0
 616 580 625 575 625 564 c 0
 625 559 610 294 610 256 c 0
 610 239 610 236 626 236 c 0
 709 236 704 262 730 262 c 0
 733 262 745 260 745 250 c 0
 745 240 738 228 732 214 c 0
 730 208 726 178 701 178 c 0
 682 178 647 180 630 180 c 0
 615 180 609 175 609 164 c 0
 609 135 610 108 610 58 c 0
 610 -6 611 9 611 -13 c 0
 611 -53 611 -46 582 -55 c 0
 571 -58 558 -60 555 -60 c 0
 542 -60 538 -44 538 -38 c 0
 538 -30 551 -5 551 174 c 0
 551 179 545 179 539 179 c 2
 403 179 l 2
 359 179 320 178 286 178 c 0
 264 178 255 178 255 190 c 0
335 241 m 0
 335 235 350 234 369 234 c 2
 518 234 l 2
 552 234 552 236 552 250 c 4
 552 256 555 385 555 435 c 4
 555 450 553 458 550 458 c 0
 542 458 335 260 335 241 c 0
EndSplineSet
EndChar
StartChar: uF1D87
Encoding: 990599 990599 5
Width: 1000
Flags: MW
LayerCount: 2
Back
Fore
SplineSet
980 284 m 256
 980 151 933 37 840 -56 c 0
 747 -149 633 -196 500 -196 c 256
 367 -196 253 -149 160 -56 c 0
 67 37 20 151 20 284 c 256
 20 417 67 530 160 624 c 0
 253 718 367 765 500 765 c 256
 633 765 747 718 840 624 c 0
 933 530 980 417 980 284 c 256
932 284 m 256
 932 404 890 506 806 590 c 0
 722 674 620 716 500 716 c 0
 380 716 278 674 194 590 c 0
 110 506 68 404 68 284 c 256
 68 164 110 62 194 -22 c 0
 278 -106 380 -147 500 -147 c 0
 620 -147 722 -106 806 -22 c 0
 890 62 932 164 932 284 c 256
287 32 m 0
 287 40 294 44 302 44 c 0
 324 44 340 26 430 26 c 0
 561 26 647 105 647 197 c 0
 647 262 595 319 478 319 c 0
 406 319 397 312 379 312 c 0
 357 312 353 326 353 332 c 0
 353 351 378 437 398 548 c 0
 400 559 409 568 432 568 c 0
 631 570 638 568 659 580 c 0
 677 590 681 600 694 600 c 0
 701 600 706 596 706 592 c 0
 706 589 704 584 702 580 c 0
 658 514 658 508 634 508 c 0
 626 508 591 509 562 509 c 0
 480 509 422 501 419 496 c 0
 409 479 393 403 393 385 c 0
 393 379 398 373 401 373 c 0
 404 373 422 380 494 380 c 0
 561 380 622 360 656 332 c 0
 695 300 713 258 713 228 c 0
 713 71 563 -4 437 -4 c 0
 385 -4 287 5 287 32 c 0
EndSplineSet
EndChar
StartChar: uF1D88
Encoding: 990600 990600 6
Width: 1000
Flags: MW
LayerCount: 2
Back
Fore
SplineSet
980 284 m 256
 980 151 933 37 840 -56 c 0
 747 -149 633 -196 500 -196 c 256
 367 -196 253 -149 160 -56 c 0
 67 37 20 151 20 284 c 256
 20 417 67 530 160 624 c 0
 253 718 367 765 500 765 c 256
 633 765 747 718 840 624 c 0
 933 530 980 417 980 284 c 256
932 284 m 256
 932 404 890 506 806 590 c 0
 722 674 620 716 500 716 c 0
 380 716 278 674 194 590 c 0
 110 506 68 404 68 284 c 256
 68 164 110 62 194 -22 c 0
 278 -106 380 -147 500 -147 c 0
 620 -147 722 -106 806 -22 c 0
 890 62 932 164 932 284 c 256
270 218 m 0
 270 493 622 598 694 598 c 0
 708 598 712 591 712 585 c 0
 712 563 642 584 519 510 c 0
 408 444 360 356 360 330 c 0
 360 325 362 322 365 322 c 0
 376 322 412 378 527 378 c 0
 640 378 730 308 730 203 c 0
 730 90 631 2 507 2 c 0
 485 2 432 5 387 31 c 0
 341 58 270 114 270 218 c 0
338 211 m 0
 338 165 376 36 533 36 c 0
 629 36 674 100 674 169 c 0
 674 252 608 342 488 342 c 0
 438 342 358 311 346 270 c 0
 341 252 338 237 338 211 c 0
EndSplineSet
EndChar
StartChar: uF1D89
Encoding: 990601 990601 7
Width: 1000
Flags: MW
LayerCount: 2
Back
Fore
SplineSet
980 284 m 256
 980 151 933 37 840 -56 c 0
 747 -149 633 -196 500 -196 c 256
 367 -196 253 -149 160 -56 c 0
 67 37 20 151 20 284 c 256
 20 417 67 530 160 624 c 0
 253 718 367 765 500 765 c 256
 633 765 747 718 840 624 c 0
 933 530 980 417 980 284 c 256
932 284 m 256
 932 404 890 506 806 590 c 0
 722 674 620 716 500 716 c 0
 380 716 278 674 194 590 c 0
 110 506 68 404 68 284 c 256
 68 164 110 62 194 -22 c 0
 278 -106 380 -147 500 -147 c 0
 620 -147 722 -106 806 -22 c 0
 890 62 932 164 932 284 c 256
311 460 m 0
 311 490 328 525 334 555 c 0
 335 562 345 564 350 564 c 0
 382 564 384 561 514 561 c 2
 546 561 l 2
 636 561 644 563 662 563 c 0
 677 563 689 556 689 546 c 0
 689 431 505 196 505 68 c 0
 505 3 530 -9 530 -23 c 0
 530 -42 482 -48 475 -48 c 0
 451 -48 431 -40 431 23 c 0
 431 147 578 324 622 420 c 0
 637 454 646 480 646 492 c 0
 646 495 639 503 625 503 c 0
 619 503 611 504 604 504 c 0
 591 504 528 502 478 502 c 0
 459 502 460 503 445 503 c 0
 364 503 347 482 337 456 c 0
 334 445 328 428 321 428 c 0
 314 428 311 442 311 460 c 0
EndSplineSet
EndChar
StartChar: uF1D8A
Encoding: 990602 990602 8
Width: 1000
Flags: MW
LayerCount: 2
Back
Fore
SplineSet
980 284 m 256
 980 151 933 37 840 -56 c 0
 747 -149 633 -196 500 -196 c 256
 367 -196 253 -149 160 -56 c 0
 67 37 20 151 20 284 c 256
 20 417 67 530 160 624 c 0
 253 718 367 765 500 765 c 256
 633 765 747 718 840 624 c 0
 933 530 980 417 980 284 c 256
932 284 m 256
 932 404 890 506 806 590 c 0
 722 674 620 716 500 716 c 0
 380 716 278 674 194 590 c 0
 110 506 68 404 68 284 c 256
 68 164 110 62 194 -22 c 0
 278 -106 380 -147 500 -147 c 0
 620 -147 722 -106 806 -22 c 0
 890 62 932 164 932 284 c 256
280 164 m 0
 280 282 395 313 395 318 c 0
 395 326 306 348 306 438 c 0
 306 534 403 587 510 587 c 0
 663 587 701 511 701 458 c 0
 701 347 582 343 582 337 c 0
 582 327 720 297 720 176 c 0
 720 110 674 2 496 2 c 0
 378 2 280 58 280 164 c 0
326 187 m 0
 326 88 425 33 518 33 c 0
 596 33 667 73 667 158 c 0
 667 191 642 222 614 239 c 0
 546 280 464 300 442 300 c 0
 400 300 326 252 326 187 c 0
357 457 m 0
 357 371 519 353 541 353 c 0
 587 353 654 381 654 453 c 0
 654 487 617 556 502 556 c 0
 440 556 357 536 357 457 c 0
EndSplineSet
EndChar
StartChar: uF1D8B
Encoding: 990603 990603 9
Width: 1000
Flags: MW
LayerCount: 2
Back
Fore
SplineSet
980 284 m 256
 980 151 933 37 840 -56 c 0
 747 -149 633 -196 500 -196 c 256
 367 -196 253 -149 160 -56 c 0
 67 37 20 151 20 284 c 256
 20 417 67 530 160 624 c 0
 253 718 367 765 500 765 c 256
 633 765 747 718 840 624 c 0
 933 530 980 417 980 284 c 256
932 284 m 256
 932 404 890 506 806 590 c 0
 722 674 620 716 500 716 c 0
 380 716 278 674 194 590 c 0
 110 506 68 404 68 284 c 256
 68 164 110 62 194 -22 c 0
 278 -106 380 -147 500 -147 c 0
 620 -147 722 -106 806 -22 c 0
 890 62 932 164 932 284 c 256
272 388 m 0
 272 491 358 586 495 586 c 0
 634 586 728 489 728 371 c 0
 728 268 665 143 531 67 c 0
 447 19 352 -5 307 -5 c 0
 291 -5 290 1 290 5 c 0
 290 8 290 15 307 17 c 0
 373 27 455 61 526 113 c 0
 583 155 629 237 629 252 c 0
 629 256 626 256 624 256 c 0
 614 256 564 210 486 210 c 0
 343 210 272 298 272 388 c 0
331 429 m 0
 331 346 403 249 506 249 c 0
 618 249 659 311 659 379 c 0
 659 453 594 550 476 550 c 0
 375 550 331 493 331 429 c 0
EndSplineSet
EndChar
StartChar: uF1D8C
Encoding: 990604 990604 10
Width: 1000
Flags: MW
LayerCount: 2
Back
Fore
SplineSet
980 284 m 256
 980 151 933 37 840 -56 c 0
 747 -149 633 -196 500 -196 c 256
 367 -196 253 -149 160 -56 c 0
 67 37 20 151 20 284 c 256
 20 417 67 530 160 624 c 0
 253 718 367 765 500 765 c 256
 633 765 747 718 840 624 c 0
 933 530 980 417 980 284 c 256
932 284 m 256
 932 404 890 506 806 590 c 0
 722 674 620 716 500 716 c 0
 380 716 278 674 194 590 c 0
 110 506 68 404 68 284 c 256
 68 164 110 62 194 -22 c 0
 278 -106 380 -147 500 -147 c 0
 620 -147 722 -106 806 -22 c 0
 890 62 932 164 932 284 c 256
180 509 m 0
 180 518 190 525 204 531 c 0
 227 541 234 536 276 558 c 0
 304 573 317 597 329 597 c 0
 341 597 342 584 342 578 c 0
 342 572 335 546 335 537 c 0
 333 503 330 434 330 272 c 0
 330 191 328 144 328 115 c 0
 328 8 422 68 422 33 c 0
 422 23 410 21 396 21 c 2
 301 21 l 2
 267 21 230 19 208 19 c 0
 194 19 186 22 186 32 c 0
 186 44 199 47 212 47 c 2
 220 47 l 2
 261 47 261 75 261 79 c 0
 267 129 270 216 270 297 c 2
 270 460 l 2
 270 490 267 509 243 509 c 0
 221 509 199 497 189 497 c 0
 187 497 180 500 180 509 c 0
465 279 m 0
 465 473 553 590 655 590 c 0
 765 590 820 464 820 310 c 0
 820 149 760 9 639 9 c 0
 504 9 465 141 465 279 c 0
513 333 m 0
 513 196 569 42 660 42 c 0
 738 42 776 152 776 269 c 0
 776 401 727 542 632 542 c 0
 549 542 513 443 513 333 c 0
EndSplineSet
EndChar
StartChar: uF1D8D
Encoding: 990605 990605 11
Width: 1000
Flags: MW
LayerCount: 2
Back
Fore
SplineSet
980 284 m 256
 980 151 933 37 840 -56 c 0
 747 -149 633 -196 500 -196 c 256
 367 -196 253 -149 160 -56 c 0
 67 37 20 151 20 284 c 256
 20 417 67 530 160 624 c 0
 253 718 367 765 500 765 c 256
 633 765 747 718 840 624 c 0
 933 530 980 417 980 284 c 256
932 284 m 256
 932 404 890 506 806 590 c 0
 722 674 620 716 500 716 c 0
 380 716 278 674 194 590 c 0
 110 506 68 404 68 284 c 256
 68 164 110 62 194 -22 c 0
 278 -106 380 -147 500 -147 c 0
 620 -147 722 -106 806 -22 c 0
 890 62 932 164 932 284 c 256
219 511 m 0
 219 520 228 526 242 532 c 0
 265 542 273 537 315 559 c 0
 343 574 356 598 368 598 c 0
 380 598 381 585 381 579 c 0
 381 573 374 548 374 539 c 0
 372 505 369 435 369 273 c 0
 369 192 366 145 366 116 c 0
 366 9 461 69 461 34 c 0
 461 24 448 23 434 23 c 2
 340 23 l 2
 306 23 269 20 247 20 c 0
 233 20 225 23 225 33 c 0
 225 45 237 48 250 48 c 2
 259 48 l 2
 300 48 300 76 300 80 c 0
 306 130 309 218 309 299 c 2
 309 461 l 2
 309 491 306 511 282 511 c 0
 260 511 238 499 228 499 c 0
 226 499 219 502 219 511 c 0
539 511 m 0
 539 520 548 526 562 532 c 0
 585 542 593 537 635 559 c 0
 663 574 676 598 688 598 c 0
 700 598 701 585 701 579 c 0
 701 573 694 548 694 539 c 0
 692 505 689 435 689 273 c 0
 689 192 686 145 686 116 c 0
 686 9 781 69 781 34 c 0
 781 24 768 23 754 23 c 2
 660 23 l 2
 626 23 589 20 567 20 c 0
 553 20 545 23 545 33 c 0
 545 45 557 48 570 48 c 2
 579 48 l 2
 620 48 620 76 620 80 c 0
 626 130 629 218 629 299 c 2
 629 461 l 2
 629 491 626 511 602 511 c 0
 580 511 558 499 548 499 c 0
 546 499 539 502 539 511 c 0
EndSplineSet
EndChar
StartChar: uF1D8E
Encoding: 990606 990606 12
Width: 1000
Flags: MW
LayerCount: 2
Back
Fore
SplineSet
980 284 m 256
 980 151 933 37 840 -56 c 0
 747 -149 633 -196 500 -196 c 256
 367 -196 253 -149 160 -56 c 0
 67 37 20 151 20 284 c 256
 20 417 67 530 160 624 c 0
 253 718 367 765 500 765 c 256
 633 765 747 718 840 624 c 0
 933 530 980 417 980 284 c 256
932 284 m 256
 932 404 890 506 806 590 c 0
 722 674 620 716 500 716 c 0
 380 716 278 674 194 590 c 0
 110 506 68 404 68 284 c 256
 68 164 110 62 194 -22 c 0
 278 -106 380 -147 500 -147 c 0
 620 -147 722 -106 806 -22 c 0
 890 62 932 164 932 284 c 256
182 511 m 0
 182 520 191 526 205 532 c 0
 228 542 236 537 278 559 c 0
 306 574 319 598 331 598 c 0
 343 598 344 585 344 579 c 0
 344 573 336 548 336 539 c 0
 334 505 332 435 332 273 c 0
 332 192 329 145 329 116 c 0
 329 9 424 69 424 34 c 0
 424 24 411 23 397 23 c 2
 303 23 l 2
 269 23 232 20 210 20 c 0
 196 20 188 23 188 33 c 0
 188 45 200 48 213 48 c 2
 222 48 l 2
 263 48 263 76 263 80 c 0
 269 130 272 218 272 299 c 2
 272 461 l 2
 272 491 268 511 244 511 c 0
 222 511 201 499 191 499 c 0
 189 499 182 502 182 511 c 0
486 32 m 2
 486 35 l 2
 486 60 570 112 664 317 c 0
 685 363 700 419 700 466 c 0
 700 510 667 543 616 543 c 0
 538 543 516 491 500 491 c 0
 496 491 493 497 493 503 c 0
 493 511 539 597 643 597 c 0
 702 597 767 561 767 484 c 0
 767 340 572 110 572 94 c 0
 572 86 608 84 631 84 c 0
 757 84 737 85 757 95 c 0
 780 106 798 139 809 139 c 0
 815 139 818 135 818 131 c 0
 818 125 762 35 762 35 c 2
 754 24 746 22 739 22 c 0
 648 22 644 23 606 23 c 0
 587 23 534 22 512 22 c 0
 486 22 486 26 486 32 c 2
EndSplineSet
EndChar
StartChar: uF1D8F
Encoding: 990607 990607 13
Width: 1000
Flags: MW
LayerCount: 2
Back
Fore
SplineSet
980 284 m 256
 980 151 933 37 840 -56 c 0
 747 -149 633 -196 500 -196 c 256
 367 -196 253 -149 160 -56 c 0
 67 37 20 151 20 284 c 256
 20 417 67 530 160 624 c 0
 253 718 367 765 500 765 c 256
 633 765 747 718 840 624 c 0
 933 530 980 417 980 284 c 256
932 284 m 256
 932 404 890 506 806 590 c 0
 722 674 620 716 500 716 c 0
 380 716 278 674 194 590 c 0
 110 506 68 404 68 284 c 256
 68 164 110 62 194 -22 c 0
 278 -106 380 -147 500 -147 c 0
 620 -147 722 -106 806 -22 c 0
 890 62 932 164 932 284 c 256
187 509 m 0
 187 518 196 524 210 530 c 0
 233 540 241 535 283 557 c 0
 311 572 324 596 336 596 c 0
 348 596 349 583 349 577 c 0
 349 571 342 546 342 537 c 0
 340 503 337 433 337 271 c 0
 337 190 334 143 334 114 c 0
 334 7 429 67 429 32 c 0
 429 22 416 21 402 21 c 2
 308 21 l 2
 274 21 237 18 215 18 c 0
 201 18 193 21 193 31 c 0
 193 43 205 46 218 46 c 2
 227 46 l 2
 268 46 268 74 268 78 c 0
 274 128 277 216 277 297 c 2
 277 459 l 2
 277 489 274 509 250 509 c 0
 228 509 206 497 196 497 c 0
 194 497 187 500 187 509 c 0
486 57 m 0
 486 60 488 70 503 70 c 0
 515 70 532 33 602 33 c 0
 706 33 746 140 746 194 c 0
 746 252 721 312 633 312 c 0
 617 312 610 309 608 309 c 0
 599 309 597 316 597 321 c 0
 597 331 608 328 663 370 c 0
 695 395 714 432 714 465 c 0
 714 506 682 541 640 541 c 0
 587 541 548 493 533 493 c 0
 527 493 526 496 526 500 c 0
 526 538 604 588 659 588 c 0
 717 588 775 559 775 494 c 0
 775 436 744 410 710 376 c 0
 703 369 698 365 698 361 c 0
 698 355 730 359 762 333 c 0
 792 309 813 276 813 226 c 0
 813 96 718 2 611 2 c 0
 551 2 486 31 486 57 c 0
EndSplineSet
EndChar
StartChar: uF1D91
Encoding: 990609 990609 15
Width: 1000
Flags: MW
LayerCount: 2
Back
Fore
SplineSet
980 284 m 256
 980 151 933 37 840 -56 c 0
 747 -149 633 -196 500 -196 c 256
 367 -196 253 -149 160 -56 c 0
 67 37 20 151 20 284 c 256
 20 417 67 530 160 624 c 0
 253 718 367 765 500 765 c 256
 633 765 747 718 840 624 c 0
 933 530 980 417 980 284 c 256
932 284 m 256
 932 404 890 506 806 590 c 0
 722 674 620 716 500 716 c 0
 380 716 278 674 194 590 c 0
 110 506 68 404 68 284 c 256
 68 164 110 62 194 -22 c 0
 278 -106 380 -147 500 -147 c 0
 620 -147 722 -106 806 -22 c 0
 890 62 932 164 932 284 c 256
189 508 m 0
 189 517 198 524 212 530 c 0
 235 540 243 535 285 557 c 0
 313 572 326 596 338 596 c 0
 350 596 351 583 351 577 c 0
 351 571 344 545 344 536 c 0
 342 502 339 433 339 271 c 0
 339 190 336 143 336 114 c 0
 336 7 431 67 431 32 c 0
 431 22 418 20 404 20 c 2
 310 20 l 2
 276 20 239 18 217 18 c 0
 203 18 195 21 195 31 c 0
 195 43 207 46 220 46 c 2
 229 46 l 2
 270 46 270 74 270 78 c 0
 276 128 279 215 279 296 c 2
 279 459 l 2
 279 489 276 508 252 508 c 0
 230 508 208 496 198 496 c 0
 196 496 189 499 189 508 c 0
492 32 m 0
 492 40 498 44 504 44 c 0
 520 44 530 26 593 26 c 0
 685 26 745 106 745 198 c 0
 745 263 708 320 625 320 c 0
 574 320 568 312 555 312 c 0
 540 312 536 326 536 332 c 0
 536 351 556 437 571 548 c 0
 573 559 578 568 596 568 c 0
 747 570 753 568 769 580 c 0
 783 590 786 600 796 600 c 0
 802 600 805 596 805 592 c 0
 805 589 804 584 802 580 c 0
 770 515 770 509 752 509 c 0
 746 509 721 510 700 510 c 0
 640 510 598 502 596 497 c 0
 589 480 576 403 576 385 c 0
 576 379 580 373 582 373 c 0
 584 373 597 380 650 380 c 0
 700 380 744 360 769 332 c 0
 798 300 811 258 811 228 c 0
 811 71 698 -4 604 -4 c 0
 565 -4 492 6 492 32 c 0
EndSplineSet
EndChar
StartChar: uF1D92
Encoding: 990610 990610 16
Width: 1000
Flags: MW
LayerCount: 2
Back
Fore
SplineSet
980 284 m 256
 980 151 933 37 840 -56 c 0
 747 -149 633 -196 500 -196 c 256
 367 -196 253 -149 160 -56 c 0
 67 37 20 151 20 284 c 256
 20 417 67 530 160 624 c 0
 253 718 367 765 500 765 c 256
 633 765 747 718 840 624 c 0
 933 530 980 417 980 284 c 256
932 284 m 256
 932 404 890 506 806 590 c 0
 722 674 620 716 500 716 c 0
 380 716 278 674 194 590 c 0
 110 506 68 404 68 284 c 256
 68 164 110 62 194 -22 c 0
 278 -106 380 -147 500 -147 c 0
 620 -147 722 -106 806 -22 c 0
 890 62 932 164 932 284 c 256
182 509 m 0
 182 518 192 525 206 531 c 0
 229 541 236 536 278 558 c 0
 306 573 319 596 331 596 c 0
 343 596 344 584 344 578 c 0
 344 572 337 546 337 537 c 0
 335 503 332 433 332 271 c 0
 332 190 330 144 330 115 c 0
 330 8 424 67 424 32 c 0
 424 22 412 21 398 21 c 2
 303 21 l 2
 269 21 232 19 210 19 c 0
 196 19 188 21 188 31 c 0
 188 43 201 47 214 47 c 2
 222 47 l 2
 263 47 263 75 263 79 c 0
 269 129 272 216 272 297 c 2
 272 459 l 2
 272 489 269 509 245 509 c 0
 223 509 201 497 191 497 c 0
 189 497 182 500 182 509 c 0
471 219 m 0
 471 494 732 599 786 599 c 0
 796 599 800 591 800 585 c 0
 800 563 751 584 665 510 c 0
 587 444 553 357 553 331 c 0
 553 326 554 323 556 323 c 0
 564 323 591 379 673 379 c 0
 754 379 818 308 818 203 c 0
 818 90 744 3 650 3 c 0
 633 3 593 6 559 32 c 0
 525 59 471 115 471 219 c 0
538 212 m 0
 538 166 563 36 668 36 c 0
 732 36 762 100 762 169 c 0
 762 252 718 343 638 343 c 0
 604 343 551 312 543 271 c 0
 540 253 538 238 538 212 c 0
EndSplineSet
EndChar
StartChar: uF1D93
Encoding: 990611 990611 17
Width: 1000
Flags: MW
LayerCount: 2
Back
Fore
SplineSet
980 284 m 256
 980 151 933 37 840 -56 c 0
 747 -149 633 -196 500 -196 c 256
 367 -196 253 -149 160 -56 c 0
 67 37 20 151 20 284 c 256
 20 417 67 530 160 624 c 0
 253 718 367 765 500 765 c 256
 633 765 747 718 840 624 c 0
 933 530 980 417 980 284 c 256
932 284 m 256
 932 404 890 506 806 590 c 0
 722 674 620 716 500 716 c 0
 380 716 278 674 194 590 c 0
 110 506 68 404 68 284 c 256
 68 164 110 62 194 -22 c 0
 278 -106 380 -147 500 -147 c 0
 620 -147 722 -106 806 -22 c 0
 890 62 932 164 932 284 c 256
194 504 m 0
 194 513 204 519 218 525 c 0
 241 535 248 530 290 552 c 0
 318 567 331 591 343 591 c 0
 355 591 356 578 356 572 c 0
 356 566 349 541 349 532 c 0
 347 498 344 428 344 266 c 0
 344 185 342 138 342 109 c 0
 342 2 436 62 436 27 c 0
 436 17 424 16 410 16 c 2
 315 16 l 2
 281 16 244 13 222 13 c 0
 208 13 200 16 200 26 c 0
 200 38 213 41 226 41 c 2
 234 41 l 2
 275 41 275 69 275 73 c 0
 281 123 284 211 284 292 c 2
 284 454 l 2
 284 484 281 504 257 504 c 0
 235 504 213 492 203 492 c 0
 201 492 194 495 194 504 c 0
507 464 m 0
 507 494 521 528 526 558 c 0
 527 565 534 568 538 568 c 0
 564 568 565 564 668 564 c 2
 693 564 l 2
 764 564 771 566 785 566 c 0
 797 566 806 559 806 549 c 0
 806 434 669 200 669 72 c 0
 669 7 686 -5 686 -19 c 0
 686 -38 642 -44 636 -44 c 0
 614 -44 596 -36 596 27 c 0
 596 151 711 328 745 424 c 0
 757 458 763 484 763 496 c 0
 763 499 757 507 747 507 c 0
 743 507 738 508 732 508 c 0
 722 508 676 506 638 506 c 0
 624 506 625 507 614 507 c 0
 554 507 541 486 533 460 c 0
 530 449 525 432 518 432 c 0
 511 432 507 446 507 464 c 0
EndSplineSet
EndChar
StartChar: uF1D94
Encoding: 990612 990612 18
Width: 1000
Flags: MW
LayerCount: 2
Back
Fore
SplineSet
980 284 m 256
 980 151 933 37 840 -56 c 0
 747 -149 633 -196 500 -196 c 256
 367 -196 253 -149 160 -56 c 0
 67 37 20 151 20 284 c 256
 20 417 67 530 160 624 c 0
 253 718 367 765 500 765 c 256
 633 765 747 718 840 624 c 0
 933 530 980 417 980 284 c 256
932 284 m 256
 932 404 890 506 806 590 c 0
 722 674 620 716 500 716 c 0
 380 716 278 674 194 590 c 0
 110 506 68 404 68 284 c 256
 68 164 110 62 194 -22 c 0
 278 -106 380 -147 500 -147 c 0
 620 -147 722 -106 806 -22 c 0
 890 62 932 164 932 284 c 256
184 509 m 0
 184 518 193 524 207 530 c 0
 230 540 238 536 280 558 c 0
 308 573 321 596 333 596 c 0
 345 596 346 584 346 578 c 0
 346 572 338 546 338 537 c 0
 336 503 334 433 334 271 c 0
 334 190 331 143 331 114 c 0
 331 7 426 67 426 32 c 0
 426 22 413 21 399 21 c 2
 305 21 l 2
 271 21 234 18 212 18 c 0
 198 18 190 21 190 31 c 0
 190 43 202 46 215 46 c 2
 224 46 l 2
 265 46 265 74 265 78 c 0
 271 128 274 216 274 297 c 2
 274 459 l 2
 274 489 270 509 246 509 c 0
 224 509 203 497 193 497 c 0
 191 497 184 500 184 509 c 0
476 166 m 0
 476 284 578 314 578 319 c 0
 578 327 501 349 501 439 c 0
 501 535 574 588 654 588 c 0
 768 588 797 512 797 459 c 0
 797 348 702 344 702 338 c 0
 702 328 816 299 816 178 c 0
 816 112 781 4 643 4 c 0
 552 4 476 60 476 166 c 0
522 189 m 0
 522 90 592 34 658 34 c 0
 713 34 764 74 764 159 c 0
 764 192 746 224 726 241 c 0
 678 282 619 302 604 302 c 0
 574 302 522 254 522 189 c 0
552 459 m 0
 552 373 661 354 675 354 c 0
 705 354 750 382 750 454 c 0
 750 488 727 558 650 558 c 0
 608 558 552 538 552 459 c 0
EndSplineSet
EndChar
StartChar: uF1D96
Encoding: 990614 990614 20
Width: 1000
Flags: MW
LayerCount: 2
Back
Fore
SplineSet
980 284 m 256
 980 151 933 37 840 -56 c 0
 747 -149 633 -196 500 -196 c 256
 367 -196 253 -149 160 -56 c 0
 67 37 20 151 20 284 c 256
 20 417 67 530 160 624 c 0
 253 718 367 765 500 765 c 256
 633 765 747 718 840 624 c 0
 933 530 980 417 980 284 c 256
932 284 m 256
 932 404 890 506 806 590 c 0
 722 674 620 716 500 716 c 0
 380 716 278 674 194 590 c 0
 110 506 68 404 68 284 c 256
 68 164 110 62 194 -22 c 0
 278 -106 380 -147 500 -147 c 0
 620 -147 722 -106 806 -22 c 0
 890 62 932 164 932 284 c 256
132 31 m 2
 132 33 l 2
 132 58 217 111 311 316 c 0
 332 362 346 417 346 464 c 0
 346 508 314 541 263 541 c 0
 185 541 162 490 146 490 c 0
 142 490 140 495 140 501 c 0
 140 509 185 596 289 596 c 0
 348 596 413 560 413 483 c 0
 413 339 218 108 218 92 c 0
 218 84 254 83 277 83 c 0
 403 83 384 84 404 94 c 0
 427 105 445 138 456 138 c 0
 462 138 464 134 464 130 c 0
 464 124 408 34 408 34 c 2
 400 23 392 20 385 20 c 0
 294 20 290 22 252 22 c 0
 233 22 181 20 159 20 c 0
 133 20 132 25 132 31 c 2
513 279 m 0
 513 473 601 590 703 590 c 0
 813 590 868 464 868 310 c 0
 868 149 808 9 687 9 c 0
 552 9 513 141 513 279 c 0
561 332 m 0
 561 195 617 42 708 42 c 0
 786 42 824 152 824 269 c 0
 824 401 775 542 680 542 c 0
 597 542 561 442 561 332 c 0
EndSplineSet
EndChar
StartChar: uF1F87
Encoding: 991111 991111 1714
Width: 1000
Flags: MW
LayerCount: 2
Back
Fore
SplineSet
721 -192 m 0
 721 -163 919 -65 919 281 c 0
 919 599 724 726 724 753 c 0
 724 766 738 772 744 772 c 0
 777 772 964 558 964 280 c 0
 964 -35 763 -214 742 -214 c 0
 724 -214 721 -203 721 -192 c 0
34 278 m 0
 34 593 235 772 256 772 c 0
 274 772 277 762 277 751 c 0
 277 722 79 623 79 277 c 0
 79 -41 274 -168 274 -195 c 0
 274 -208 260 -214 254 -214 c 0
 221 -214 34 0 34 278 c 0
335 511 m 0
 335 520 348 526 366 532 c 0
 396 542 405 537 460 559 c 0
 496 574 514 598 529 598 c 0
 544 598 545 585 545 579 c 0
 545 573 534 548 534 539 c 0
 532 505 529 435 529 273 c 0
 529 192 527 145 527 116 c 0
 527 9 665 69 665 34 c 0
 665 24 648 23 630 23 c 2
 500 23 l 2
 454 23 404 20 374 20 c 0
 354 20 343 23 343 33 c 0
 343 45 363 48 382 48 c 2
 394 48 l 2
 455 48 457 76 457 80 c 0
 467 130 470 218 470 299 c 2
 470 461 l 2
 470 491 464 511 428 511 c 0
 396 511 362 499 348 499 c 0
 346 499 335 502 335 511 c 0
EndSplineSet
EndChar
StartChar: uF1F88
Encoding: 991112 991112 1715
Width: 1000
Flags: MW
LayerCount: 2
Back
Fore
SplineSet
721 -192 m 0
 721 -163 919 -65 919 281 c 0
 919 599 724 726 724 753 c 0
 724 766 738 772 744 772 c 0
 777 772 964 558 964 280 c 0
 964 -35 763 -214 742 -214 c 0
 724 -214 721 -203 721 -192 c 0
34 278 m 0
 34 593 235 772 256 772 c 0
 274 772 277 762 277 751 c 0
 277 722 79 623 79 277 c 0
 79 -41 274 -168 274 -195 c 0
 274 -208 260 -214 254 -214 c 0
 221 -214 34 0 34 278 c 0
268 31 m 2
 268 34 l 2
 268 59 393 111 535 316 c 0
 566 362 588 418 588 465 c 0
 588 509 540 542 463 542 c 0
 345 542 313 491 289 491 c 0
 283 491 279 496 279 502 c 0
 279 510 341 597 484 597 c 0
 566 597 655 561 655 484 c 0
 655 340 396 110 396 94 c 0
 396 86 446 84 478 84 c 0
 651 84 622 85 649 95 c 0
 681 106 706 139 721 139 c 0
 729 139 732 135 732 131 c 0
 732 125 665 35 665 35 c 2
 655 24 645 21 636 21 c 0
 506 21 501 23 447 23 c 0
 418 23 341 21 308 21 c 0
 270 21 268 25 268 31 c 2
EndSplineSet
EndChar
StartChar: uF1F89
Encoding: 991113 991113 1716
Width: 1000
Flags: MW
LayerCount: 2
Back
Fore
SplineSet
721 -192 m 0
 721 -163 919 -65 919 281 c 0
 919 599 724 726 724 753 c 0
 724 766 738 772 744 772 c 0
 777 772 964 558 964 280 c 0
 964 -35 763 -214 742 -214 c 0
 724 -214 721 -203 721 -192 c 0
34 278 m 0
 34 593 235 772 256 772 c 0
 274 772 277 762 277 751 c 0
 277 722 79 623 79 277 c 0
 79 -41 274 -168 274 -195 c 0
 274 -208 260 -214 254 -214 c 0
 221 -214 34 0 34 278 c 0
272 56 m 0
 272 59 276 69 298 69 c 0
 316 69 340 32 446 32 c 0
 602 32 661 139 661 193 c 0
 661 251 625 310 498 310 c 0
 475 310 465 307 462 307 c 0
 449 307 446 314 446 319 c 0
 446 329 464 326 550 368 c 0
 600 393 629 430 629 463 c 0
 629 504 580 539 514 539 c 0
 431 539 369 491 345 491 c 0
 335 491 335 494 335 498 c 0
 335 536 446 587 525 587 c 0
 607 587 690 558 690 493 c 0
 690 435 656 409 618 375 c 0
 610 368 605 364 605 360 c 0
 605 354 639 358 673 332 c 0
 706 308 728 274 728 224 c 0
 728 94 596 0 446 0 c 0
 362 0 272 30 272 56 c 0
EndSplineSet
EndChar
StartChar: uF1F8A
Encoding: 991114 991114 1717
Width: 1000
Flags: MW
LayerCount: 2
Back
Fore
SplineSet
721 -192 m 0
 721 -163 919 -65 919 281 c 0
 919 599 724 726 724 753 c 0
 724 766 738 772 744 772 c 0
 777 772 964 558 964 280 c 0
 964 -35 763 -214 742 -214 c 0
 724 -214 721 -203 721 -192 c 0
34 278 m 0
 34 593 235 772 256 772 c 0
 274 772 277 762 277 751 c 0
 277 722 79 623 79 277 c 0
 79 -41 274 -168 274 -195 c 0
 274 -208 260 -214 254 -214 c 0
 221 -214 34 0 34 278 c 0
255 190 m 0
 255 210 266 222 526 506 c 0
 556 540 585 580 607 580 c 0
 616 580 625 575 625 564 c 0
 625 559 610 294 610 256 c 0
 610 239 610 236 626 236 c 0
 709 236 704 262 730 262 c 0
 733 262 745 260 745 250 c 0
 745 240 738 228 732 214 c 0
 730 208 726 178 701 178 c 0
 682 178 647 180 630 180 c 0
 615 180 609 175 609 164 c 0
 609 135 610 108 610 58 c 0
 610 -6 611 9 611 -13 c 0
 611 -53 611 -46 582 -55 c 0
 571 -58 558 -60 555 -60 c 0
 542 -60 538 -44 538 -38 c 0
 538 -30 551 -5 551 174 c 0
 551 179 545 179 539 179 c 2
 403 179 l 2
 359 179 320 178 286 178 c 0
 264 178 255 178 255 190 c 0
335 241 m 0
 335 235 350 234 369 234 c 2
 518 234 l 2
 552 234 552 236 552 250 c 4
 552 256 555 385 555 435 c 4
 555 450 553 458 550 458 c 0
 542 458 335 260 335 241 c 0
EndSplineSet
EndChar
StartChar: uF1F8B
Encoding: 991115 991115 1718
Width: 1000
Flags: MW
LayerCount: 2
Back
Fore
SplineSet
721 -192 m 0
 721 -163 919 -65 919 281 c 0
 919 599 724 726 724 753 c 0
 724 766 738 772 744 772 c 0
 777 772 964 558 964 280 c 0
 964 -35 763 -214 742 -214 c 0
 724 -214 721 -203 721 -192 c 0
34 278 m 0
 34 593 235 772 256 772 c 0
 274 772 277 762 277 751 c 0
 277 722 79 623 79 277 c 0
 79 -41 274 -168 274 -195 c 0
 274 -208 260 -214 254 -214 c 0
 221 -214 34 0 34 278 c 0
287 32 m 0
 287 40 294 44 302 44 c 0
 324 44 340 26 430 26 c 0
 561 26 647 105 647 197 c 0
 647 262 595 319 478 319 c 0
 406 319 397 312 379 312 c 0
 357 312 353 326 353 332 c 0
 353 351 378 437 398 548 c 0
 400 559 409 568 432 568 c 0
 631 570 638 568 659 580 c 0
 677 590 681 600 694 600 c 0
 701 600 706 596 706 592 c 0
 706 589 704 584 702 580 c 0
 658 514 658 508 634 508 c 0
 626 508 591 509 562 509 c 0
 480 509 422 501 419 496 c 0
 409 479 393 403 393 385 c 0
 393 379 398 373 401 373 c 0
 404 373 422 380 494 380 c 0
 561 380 622 360 656 332 c 0
 695 300 713 258 713 228 c 0
 713 71 563 -4 437 -4 c 0
 385 -4 287 5 287 32 c 0
EndSplineSet
EndChar
StartChar: uF1F8C
Encoding: 991116 991116 1719
Width: 1000
Flags: MW
LayerCount: 2
Back
Fore
SplineSet
721 -192 m 0
 721 -163 919 -65 919 281 c 0
 919 599 724 726 724 753 c 0
 724 766 738 772 744 772 c 0
 777 772 964 558 964 280 c 0
 964 -35 763 -214 742 -214 c 0
 724 -214 721 -203 721 -192 c 0
34 278 m 0
 34 593 235 772 256 772 c 0
 274 772 277 762 277 751 c 0
 277 722 79 623 79 277 c 0
 79 -41 274 -168 274 -195 c 0
 274 -208 260 -214 254 -214 c 0
 221 -214 34 0 34 278 c 0
270 218 m 0
 270 493 622 598 694 598 c 0
 708 598 712 591 712 585 c 0
 712 563 642 584 519 510 c 0
 408 444 360 356 360 330 c 0
 360 325 362 322 365 322 c 0
 376 322 412 378 527 378 c 0
 640 378 730 308 730 203 c 0
 730 90 631 2 507 2 c 0
 485 2 432 5 387 31 c 0
 341 58 270 114 270 218 c 0
338 211 m 0
 338 165 376 36 533 36 c 0
 629 36 674 100 674 169 c 0
 674 252 608 342 488 342 c 0
 438 342 358 311 346 270 c 0
 341 252 338 237 338 211 c 0
EndSplineSet
EndChar
StartChar: uF1F8D
Encoding: 991117 991117 1720
Width: 1000
Flags: MW
LayerCount: 2
Back
Fore
SplineSet
721 -192 m 0
 721 -163 919 -65 919 281 c 0
 919 599 724 726 724 753 c 0
 724 766 738 772 744 772 c 0
 777 772 964 558 964 280 c 0
 964 -35 763 -214 742 -214 c 0
 724 -214 721 -203 721 -192 c 0
34 278 m 0
 34 593 235 772 256 772 c 0
 274 772 277 762 277 751 c 0
 277 722 79 623 79 277 c 0
 79 -41 274 -168 274 -195 c 0
 274 -208 260 -214 254 -214 c 0
 221 -214 34 0 34 278 c 0
311 460 m 0
 311 490 328 525 334 555 c 0
 335 562 345 564 350 564 c 0
 382 564 384 561 514 561 c 2
 546 561 l 2
 636 561 644 563 662 563 c 0
 677 563 689 556 689 546 c 0
 689 431 505 196 505 68 c 0
 505 3 530 -9 530 -23 c 0
 530 -42 482 -48 475 -48 c 0
 451 -48 431 -40 431 23 c 0
 431 147 578 324 622 420 c 0
 637 454 646 480 646 492 c 0
 646 495 639 503 625 503 c 0
 619 503 611 504 604 504 c 0
 591 504 528 502 478 502 c 0
 459 502 460 503 445 503 c 0
 364 503 347 482 337 456 c 0
 334 445 328 428 321 428 c 0
 314 428 311 442 311 460 c 0
EndSplineSet
EndChar
StartChar: uF1F8E
Encoding: 991118 991118 1721
Width: 1000
Flags: MW
LayerCount: 2
Back
Fore
SplineSet
721 -192 m 0
 721 -163 919 -65 919 281 c 0
 919 599 724 726 724 753 c 0
 724 766 738 772 744 772 c 0
 777 772 964 558 964 280 c 0
 964 -35 763 -214 742 -214 c 0
 724 -214 721 -203 721 -192 c 0
34 278 m 0
 34 593 235 772 256 772 c 0
 274 772 277 762 277 751 c 0
 277 722 79 623 79 277 c 0
 79 -41 274 -168 274 -195 c 0
 274 -208 260 -214 254 -214 c 0
 221 -214 34 0 34 278 c 0
280 164 m 0
 280 282 395 313 395 318 c 0
 395 326 306 348 306 438 c 0
 306 534 403 587 510 587 c 0
 663 587 701 511 701 458 c 0
 701 347 582 343 582 337 c 0
 582 327 720 297 720 176 c 0
 720 110 674 2 496 2 c 0
 378 2 280 58 280 164 c 0
326 187 m 0
 326 88 425 33 518 33 c 0
 596 33 667 73 667 158 c 0
 667 191 642 222 614 239 c 0
 546 280 464 300 442 300 c 0
 400 300 326 252 326 187 c 0
357 457 m 0
 357 371 519 353 541 353 c 0
 587 353 654 381 654 453 c 0
 654 487 617 556 502 556 c 0
 440 556 357 536 357 457 c 0
EndSplineSet
EndChar
StartChar: uF1F8F
Encoding: 991119 991119 1722
Width: 1000
Flags: MW
LayerCount: 2
Back
Fore
SplineSet
721 -192 m 0
 721 -163 919 -65 919 281 c 0
 919 599 724 726 724 753 c 0
 724 766 738 772 744 772 c 0
 777 772 964 558 964 280 c 0
 964 -35 763 -214 742 -214 c 0
 724 -214 721 -203 721 -192 c 0
34 278 m 0
 34 593 235 772 256 772 c 0
 274 772 277 762 277 751 c 0
 277 722 79 623 79 277 c 0
 79 -41 274 -168 274 -195 c 0
 274 -208 260 -214 254 -214 c 0
 221 -214 34 0 34 278 c 0
272 388 m 0
 272 491 358 586 495 586 c 0
 634 586 728 489 728 371 c 0
 728 268 665 143 531 67 c 0
 447 19 352 -5 307 -5 c 0
 291 -5 290 1 290 5 c 0
 290 8 290 15 307 17 c 0
 373 27 455 61 526 113 c 0
 583 155 629 237 629 252 c 0
 629 256 626 256 624 256 c 0
 614 256 564 210 486 210 c 0
 343 210 272 298 272 388 c 0
331 429 m 0
 331 346 403 249 506 249 c 0
 618 249 659 311 659 379 c 0
 659 453 594 550 476 550 c 0
 375 550 331 493 331 429 c 0
EndSplineSet
EndChar
StartChar: uF1F90
Encoding: 991120 991120 1723
Width: 1000
Flags: MW
LayerCount: 2
Back
Fore
SplineSet
721 -192 m 0
 721 -163 919 -65 919 281 c 0
 919 599 724 726 724 753 c 0
 724 766 738 772 744 772 c 0
 777 772 964 558 964 280 c 0
 964 -35 763 -214 742 -214 c 0
 724 -214 721 -203 721 -192 c 0
34 278 m 0
 34 593 235 772 256 772 c 0
 274 772 277 762 277 751 c 0
 277 722 79 623 79 277 c 0
 79 -41 274 -168 274 -195 c 0
 274 -208 260 -214 254 -214 c 0
 221 -214 34 0 34 278 c 0
180 509 m 0
 180 518 190 525 204 531 c 0
 227 541 234 536 276 558 c 0
 304 573 317 597 329 597 c 0
 341 597 342 584 342 578 c 0
 342 572 335 546 335 537 c 0
 333 503 330 434 330 272 c 0
 330 191 328 144 328 115 c 0
 328 8 422 68 422 33 c 0
 422 23 410 21 396 21 c 2
 301 21 l 2
 267 21 230 19 208 19 c 0
 194 19 186 22 186 32 c 0
 186 44 199 47 212 47 c 2
 220 47 l 2
 261 47 261 75 261 79 c 0
 267 129 270 216 270 297 c 2
 270 460 l 2
 270 490 267 509 243 509 c 0
 221 509 199 497 189 497 c 0
 187 497 180 500 180 509 c 0
465 279 m 0
 465 473 553 590 655 590 c 0
 765 590 820 464 820 310 c 0
 820 149 760 9 639 9 c 0
 504 9 465 141 465 279 c 0
513 333 m 0
 513 196 569 42 660 42 c 0
 738 42 776 152 776 269 c 0
 776 401 727 542 632 542 c 0
 549 542 513 443 513 333 c 0
EndSplineSet
EndChar
StartChar: uF1F91
Encoding: 991121 991121 1724
Width: 1000
Flags: MW
LayerCount: 2
Back
Fore
SplineSet
721 -192 m 0
 721 -163 919 -65 919 281 c 0
 919 599 724 726 724 753 c 0
 724 766 738 772 744 772 c 0
 777 772 964 558 964 280 c 0
 964 -35 763 -214 742 -214 c 0
 724 -214 721 -203 721 -192 c 0
34 278 m 0
 34 593 235 772 256 772 c 0
 274 772 277 762 277 751 c 0
 277 722 79 623 79 277 c 0
 79 -41 274 -168 274 -195 c 0
 274 -208 260 -214 254 -214 c 0
 221 -214 34 0 34 278 c 0
219 511 m 0
 219 520 228 526 242 532 c 0
 265 542 273 537 315 559 c 0
 343 574 356 598 368 598 c 0
 380 598 381 585 381 579 c 0
 381 573 374 548 374 539 c 0
 372 505 369 435 369 273 c 0
 369 192 366 145 366 116 c 0
 366 9 461 69 461 34 c 0
 461 24 448 23 434 23 c 2
 340 23 l 2
 306 23 269 20 247 20 c 0
 233 20 225 23 225 33 c 0
 225 45 237 48 250 48 c 2
 259 48 l 2
 300 48 300 76 300 80 c 0
 306 130 309 218 309 299 c 2
 309 461 l 2
 309 491 306 511 282 511 c 0
 260 511 238 499 228 499 c 0
 226 499 219 502 219 511 c 0
539 511 m 0
 539 520 548 526 562 532 c 0
 585 542 593 537 635 559 c 0
 663 574 676 598 688 598 c 0
 700 598 701 585 701 579 c 0
 701 573 694 548 694 539 c 0
 692 505 689 435 689 273 c 0
 689 192 686 145 686 116 c 0
 686 9 781 69 781 34 c 0
 781 24 768 23 754 23 c 2
 660 23 l 2
 626 23 589 20 567 20 c 0
 553 20 545 23 545 33 c 0
 545 45 557 48 570 48 c 2
 579 48 l 2
 620 48 620 76 620 80 c 0
 626 130 629 218 629 299 c 2
 629 461 l 2
 629 491 626 511 602 511 c 0
 580 511 558 499 548 499 c 0
 546 499 539 502 539 511 c 0
EndSplineSet
EndChar
StartChar: uF1F92
Encoding: 991122 991122 1725
Width: 1000
Flags: MW
LayerCount: 2
Back
Fore
SplineSet
721 -192 m 0
 721 -163 919 -65 919 281 c 0
 919 599 724 726 724 753 c 0
 724 766 738 772 744 772 c 0
 777 772 964 558 964 280 c 0
 964 -35 763 -214 742 -214 c 0
 724 -214 721 -203 721 -192 c 0
34 278 m 0
 34 593 235 772 256 772 c 0
 274 772 277 762 277 751 c 0
 277 722 79 623 79 277 c 0
 79 -41 274 -168 274 -195 c 0
 274 -208 260 -214 254 -214 c 0
 221 -214 34 0 34 278 c 0
182 511 m 0
 182 520 191 526 205 532 c 0
 228 542 236 537 278 559 c 0
 306 574 319 598 331 598 c 0
 343 598 344 585 344 579 c 0
 344 573 336 548 336 539 c 0
 334 505 332 435 332 273 c 0
 332 192 329 145 329 116 c 0
 329 9 424 69 424 34 c 0
 424 24 411 23 397 23 c 2
 303 23 l 2
 269 23 232 20 210 20 c 0
 196 20 188 23 188 33 c 0
 188 45 200 48 213 48 c 2
 222 48 l 2
 263 48 263 76 263 80 c 0
 269 130 272 218 272 299 c 2
 272 461 l 2
 272 491 268 511 244 511 c 0
 222 511 201 499 191 499 c 0
 189 499 182 502 182 511 c 0
486 32 m 2
 486 35 l 2
 486 60 570 112 664 317 c 0
 685 363 700 419 700 466 c 0
 700 510 667 543 616 543 c 0
 538 543 516 491 500 491 c 0
 496 491 493 497 493 503 c 0
 493 511 539 597 643 597 c 0
 702 597 767 561 767 484 c 0
 767 340 572 110 572 94 c 0
 572 86 608 84 631 84 c 0
 757 84 737 85 757 95 c 0
 780 106 798 139 809 139 c 0
 815 139 818 135 818 131 c 0
 818 125 762 35 762 35 c 2
 754 24 746 22 739 22 c 0
 648 22 644 23 606 23 c 0
 587 23 534 22 512 22 c 0
 486 22 486 26 486 32 c 2
EndSplineSet
EndChar
StartChar: uF1F95
Encoding: 991125 991125 1728
Width: 1000
Flags: MW
LayerCount: 2
Back
Fore
SplineSet
721 -192 m 0
 721 -163 919 -65 919 281 c 0
 919 599 724 726 724 753 c 0
 724 766 738 772 744 772 c 0
 777 772 964 558 964 280 c 0
 964 -35 763 -214 742 -214 c 0
 724 -214 721 -203 721 -192 c 0
34 278 m 0
 34 593 235 772 256 772 c 0
 274 772 277 762 277 751 c 0
 277 722 79 623 79 277 c 0
 79 -41 274 -168 274 -195 c 0
 274 -208 260 -214 254 -214 c 0
 221 -214 34 0 34 278 c 0
189 508 m 0
 189 517 198 524 212 530 c 0
 235 540 243 535 285 557 c 0
 313 572 326 596 338 596 c 0
 350 596 351 583 351 577 c 0
 351 571 344 545 344 536 c 0
 342 502 339 433 339 271 c 0
 339 190 336 143 336 114 c 0
 336 7 431 67 431 32 c 0
 431 22 418 20 404 20 c 2
 310 20 l 2
 276 20 239 18 217 18 c 0
 203 18 195 21 195 31 c 0
 195 43 207 46 220 46 c 2
 229 46 l 2
 270 46 270 74 270 78 c 0
 276 128 279 215 279 296 c 2
 279 459 l 2
 279 489 276 508 252 508 c 0
 230 508 208 496 198 496 c 0
 196 496 189 499 189 508 c 0
492 32 m 0
 492 40 498 44 504 44 c 0
 520 44 530 26 593 26 c 0
 685 26 745 106 745 198 c 0
 745 263 708 320 625 320 c 0
 574 320 568 312 555 312 c 0
 540 312 536 326 536 332 c 0
 536 351 556 437 571 548 c 0
 573 559 578 568 596 568 c 0
 747 570 753 568 769 580 c 0
 783 590 786 600 796 600 c 0
 802 600 805 596 805 592 c 0
 805 589 804 584 802 580 c 0
 770 515 770 509 752 509 c 0
 746 509 721 510 700 510 c 0
 640 510 598 502 596 497 c 0
 589 480 576 403 576 385 c 0
 576 379 580 373 582 373 c 0
 584 373 597 380 650 380 c 0
 700 380 744 360 769 332 c 0
 798 300 811 258 811 228 c 0
 811 71 698 -4 604 -4 c 0
 565 -4 492 6 492 32 c 0
EndSplineSet
EndChar
StartChar: uF1F96
Encoding: 991126 991126 1729
Width: 1000
Flags: MW
LayerCount: 2
Back
Fore
SplineSet
721 -192 m 0
 721 -163 919 -65 919 281 c 0
 919 599 724 726 724 753 c 0
 724 766 738 772 744 772 c 0
 777 772 964 558 964 280 c 0
 964 -35 763 -214 742 -214 c 0
 724 -214 721 -203 721 -192 c 0
34 278 m 0
 34 593 235 772 256 772 c 0
 274 772 277 762 277 751 c 0
 277 722 79 623 79 277 c 0
 79 -41 274 -168 274 -195 c 0
 274 -208 260 -214 254 -214 c 0
 221 -214 34 0 34 278 c 0
182 509 m 0
 182 518 192 525 206 531 c 0
 229 541 236 536 278 558 c 0
 306 573 319 596 331 596 c 0
 343 596 344 584 344 578 c 0
 344 572 337 546 337 537 c 0
 335 503 332 433 332 271 c 0
 332 190 330 144 330 115 c 0
 330 8 424 67 424 32 c 0
 424 22 412 21 398 21 c 2
 303 21 l 2
 269 21 232 19 210 19 c 0
 196 19 188 21 188 31 c 0
 188 43 201 47 214 47 c 2
 222 47 l 2
 263 47 263 75 263 79 c 0
 269 129 272 216 272 297 c 2
 272 459 l 2
 272 489 269 509 245 509 c 0
 223 509 201 497 191 497 c 0
 189 497 182 500 182 509 c 0
471 219 m 0
 471 494 732 599 786 599 c 0
 796 599 800 591 800 585 c 0
 800 563 751 584 665 510 c 0
 587 444 553 357 553 331 c 0
 553 326 554 323 556 323 c 0
 564 323 591 379 673 379 c 0
 754 379 818 308 818 203 c 0
 818 90 744 3 650 3 c 0
 633 3 593 6 559 32 c 0
 525 59 471 115 471 219 c 0
538 212 m 0
 538 166 563 36 668 36 c 0
 732 36 762 100 762 169 c 0
 762 252 718 343 638 343 c 0
 604 343 551 312 543 271 c 0
 540 253 538 238 538 212 c 0
EndSplineSet
EndChar
StartChar: uF1F97
Encoding: 991127 991127 1730
Width: 1000
Flags: MW
LayerCount: 2
Back
Fore
SplineSet
721 -192 m 0
 721 -163 919 -65 919 281 c 0
 919 599 724 726 724 753 c 0
 724 766 738 772 744 772 c 0
 777 772 964 558 964 280 c 0
 964 -35 763 -214 742 -214 c 0
 724 -214 721 -203 721 -192 c 0
34 278 m 0
 34 593 235 772 256 772 c 0
 274 772 277 762 277 751 c 0
 277 722 79 623 79 277 c 0
 79 -41 274 -168 274 -195 c 0
 274 -208 260 -214 254 -214 c 0
 221 -214 34 0 34 278 c 0
194 504 m 0
 194 513 204 519 218 525 c 0
 241 535 248 530 290 552 c 0
 318 567 331 591 343 591 c 0
 355 591 356 578 356 572 c 0
 356 566 349 541 349 532 c 0
 347 498 344 428 344 266 c 0
 344 185 342 138 342 109 c 0
 342 2 436 62 436 27 c 0
 436 17 424 16 410 16 c 2
 315 16 l 2
 281 16 244 13 222 13 c 0
 208 13 200 16 200 26 c 0
 200 38 213 41 226 41 c 2
 234 41 l 2
 275 41 275 69 275 73 c 0
 281 123 284 211 284 292 c 2
 284 454 l 2
 284 484 281 504 257 504 c 0
 235 504 213 492 203 492 c 0
 201 492 194 495 194 504 c 0
507 464 m 0
 507 494 521 528 526 558 c 0
 527 565 534 568 538 568 c 0
 564 568 565 564 668 564 c 2
 693 564 l 2
 764 564 771 566 785 566 c 0
 797 566 806 559 806 549 c 0
 806 434 669 200 669 72 c 0
 669 7 686 -5 686 -19 c 0
 686 -38 642 -44 636 -44 c 0
 614 -44 596 -36 596 27 c 0
 596 151 711 328 745 424 c 0
 757 458 763 484 763 496 c 0
 763 499 757 507 747 507 c 0
 743 507 738 508 732 508 c 0
 722 508 676 506 638 506 c 0
 624 506 625 507 614 507 c 0
 554 507 541 486 533 460 c 0
 530 449 525 432 518 432 c 0
 511 432 507 446 507 464 c 0
EndSplineSet
EndChar
StartChar: uF1F99
Encoding: 991129 991129 1732
Width: 1000
Flags: MW
LayerCount: 2
Back
Fore
SplineSet
721 -192 m 0
 721 -163 919 -65 919 281 c 0
 919 599 724 726 724 753 c 0
 724 766 738 772 744 772 c 0
 777 772 964 558 964 280 c 0
 964 -35 763 -214 742 -214 c 0
 724 -214 721 -203 721 -192 c 0
34 278 m 0
 34 593 235 772 256 772 c 0
 274 772 277 762 277 751 c 0
 277 722 79 623 79 277 c 0
 79 -41 274 -168 274 -195 c 0
 274 -208 260 -214 254 -214 c 0
 221 -214 34 0 34 278 c 0
178 508 m 0
 178 517 188 524 202 530 c 0
 225 540 232 535 274 557 c 0
 302 572 315 595 327 595 c 0
 339 595 340 583 340 577 c 0
 340 571 333 545 333 536 c 0
 331 502 328 432 328 270 c 0
 328 189 326 143 326 114 c 0
 326 7 420 66 420 31 c 0
 420 21 408 20 394 20 c 2
 299 20 l 2
 265 20 228 18 206 18 c 0
 192 18 184 20 184 30 c 0
 184 42 197 46 210 46 c 2
 218 46 l 2
 259 46 259 74 259 78 c 0
 265 128 268 215 268 296 c 2
 268 458 l 2
 268 488 265 508 241 508 c 0
 219 508 197 496 187 496 c 0
 185 496 178 499 178 508 c 0
475 390 m 0
 475 493 541 587 645 587 c 0
 751 587 822 490 822 372 c 0
 822 269 774 145 674 69 c 0
 611 21 540 -3 506 -3 c 0
 494 -3 494 3 494 7 c 0
 494 10 494 16 506 18 c 0
 552 28 611 62 661 114 c 0
 701 156 733 238 733 253 c 0
 733 257 732 258 730 258 c 0
 723 258 686 212 630 212 c 0
 527 212 475 300 475 390 c 0
534 431 m 0
 534 348 582 250 651 250 c 0
 725 250 753 312 753 380 c 0
 753 454 709 552 631 552 c 0
 564 552 534 495 534 431 c 0
EndSplineSet
EndChar
StartChar: uF1F9A
Encoding: 991130 991130 1733
Width: 1000
Flags: MW
LayerCount: 2
Back
Fore
SplineSet
721 -192 m 0
 721 -163 919 -65 919 281 c 0
 919 599 724 726 724 753 c 0
 724 766 738 772 744 772 c 0
 777 772 964 558 964 280 c 0
 964 -35 763 -214 742 -214 c 0
 724 -214 721 -203 721 -192 c 0
34 278 m 0
 34 593 235 772 256 772 c 0
 274 772 277 762 277 751 c 0
 277 722 79 623 79 277 c 0
 79 -41 274 -168 274 -195 c 0
 274 -208 260 -214 254 -214 c 0
 221 -214 34 0 34 278 c 0
132 31 m 2
 132 33 l 2
 132 58 217 111 311 316 c 0
 332 362 346 417 346 464 c 0
 346 508 314 541 263 541 c 0
 185 541 162 490 146 490 c 0
 142 490 140 495 140 501 c 0
 140 509 185 596 289 596 c 0
 348 596 413 560 413 483 c 0
 413 339 218 108 218 92 c 0
 218 84 254 83 277 83 c 0
 403 83 384 84 404 94 c 0
 427 105 445 138 456 138 c 0
 462 138 464 134 464 130 c 0
 464 124 408 34 408 34 c 2
 400 23 392 20 385 20 c 0
 294 20 290 22 252 22 c 0
 233 22 181 20 159 20 c 0
 133 20 132 25 132 31 c 2
513 279 m 0
 513 473 601 590 703 590 c 0
 813 590 868 464 868 310 c 0
 868 149 808 9 687 9 c 0
 552 9 513 141 513 279 c 0
561 332 m 0
 561 195 617 42 708 42 c 0
 786 42 824 152 824 269 c 0
 824 401 775 542 680 542 c 0
 597 542 561 442 561 332 c 0
EndSplineSet
EndChar
StartChar: uF1F9B
Encoding: 991131 991131 21
Width: 1000
Flags: MW
LayerCount: 2
Back
Fore
SplineSet
980 284 m 256
 980 151 933 37 840 -56 c 0
 747 -149 633 -196 500 -196 c 256
 367 -196 253 -149 160 -56 c 0
 67 37 20 151 20 284 c 256
 20 417 67 530 160 624 c 0
 253 718 367 765 500 765 c 256
 633 765 747 718 840 624 c 0
 933 530 980 417 980 284 c 256
932 284 m 256
 932 404 890 506 806 590 c 0
 722 674 620 716 500 716 c 0
 380 716 278 674 194 590 c 0
 110 506 68 404 68 284 c 256
 68 164 110 62 194 -22 c 0
 278 -106 380 -147 500 -147 c 0
 620 -147 722 -106 806 -22 c 0
 890 62 932 164 932 284 c 256
171 32 m 2
 171 35 l 2
 171 60 256 112 350 317 c 0
 371 363 385 419 385 466 c 0
 385 510 353 543 302 543 c 0
 224 543 201 491 185 491 c 0
 181 491 178 497 178 503 c 0
 178 511 224 597 328 597 c 0
 387 597 452 561 452 484 c 0
 452 340 257 110 257 94 c 0
 257 86 293 84 316 84 c 0
 442 84 422 85 442 95 c 0
 465 106 483 139 494 139 c 0
 500 139 503 135 503 131 c 0
 503 125 447 35 447 35 c 2
 439 24 431 22 424 22 c 0
 333 22 329 23 291 23 c 0
 272 23 220 22 198 22 c 0
 172 22 171 26 171 32 c 2
587 511 m 0
 587 520 596 526 610 532 c 0
 633 542 641 537 683 559 c 0
 711 574 724 598 736 598 c 0
 748 598 749 585 749 579 c 0
 749 573 742 548 742 539 c 0
 740 505 737 435 737 273 c 0
 737 192 734 145 734 116 c 0
 734 9 829 69 829 34 c 0
 829 24 816 23 802 23 c 2
 708 23 l 2
 674 23 637 20 615 20 c 0
 601 20 593 23 593 33 c 0
 593 45 605 48 618 48 c 2
 627 48 l 2
 668 48 668 76 668 80 c 0
 674 130 677 218 677 299 c 2
 677 461 l 2
 677 491 674 511 650 511 c 0
 628 511 606 499 596 499 c 0
 594 499 587 502 587 511 c 0
EndSplineSet
EndChar
StartChar: uF1FA6
Encoding: 991142 991142 22
Width: 1000
Flags: MW
LayerCount: 2
Back
Fore
SplineSet
980 284 m 256
 980 151 933 37 840 -56 c 0
 747 -149 633 -196 500 -196 c 256
 367 -196 253 -149 160 -56 c 0
 67 37 20 151 20 284 c 256
 20 417 67 530 160 624 c 0
 253 718 367 765 500 765 c 256
 633 765 747 718 840 624 c 0
 933 530 980 417 980 284 c 256
932 284 m 256
 932 404 890 506 806 590 c 0
 722 674 620 716 500 716 c 0
 380 716 278 674 194 590 c 0
 110 506 68 404 68 284 c 256
 68 164 110 62 194 -22 c 0
 278 -106 380 -147 500 -147 c 0
 620 -147 722 -106 806 -22 c 0
 890 62 932 164 932 284 c 256
134 32 m 2
 134 35 l 2
 134 60 218 112 312 317 c 0
 333 363 348 419 348 466 c 0
 348 510 315 543 264 543 c 0
 186 543 164 492 148 492 c 0
 144 492 141 497 141 503 c 0
 141 511 187 597 291 597 c 0
 350 597 415 561 415 484 c 0
 415 340 220 110 220 94 c 0
 220 86 256 84 279 84 c 0
 405 84 385 86 405 96 c 0
 428 107 446 140 457 140 c 0
 463 140 466 136 466 132 c 0
 466 126 410 36 410 36 c 2
 402 25 394 22 387 22 c 0
 296 22 292 24 254 24 c 0
 235 24 182 22 160 22 c 0
 134 22 134 26 134 32 c 2
534 32 m 2
 534 35 l 2
 534 60 618 112 712 317 c 0
 733 363 748 419 748 466 c 0
 748 510 715 543 664 543 c 0
 586 543 564 492 548 492 c 0
 544 492 541 497 541 503 c 0
 541 511 587 597 691 597 c 0
 750 597 815 561 815 484 c 0
 815 340 620 110 620 94 c 0
 620 86 656 84 679 84 c 0
 805 84 785 86 805 96 c 0
 828 107 846 140 857 140 c 0
 863 140 866 136 866 132 c 0
 866 126 810 36 810 36 c 2
 802 25 794 22 787 22 c 0
 696 22 692 24 654 24 c 0
 635 24 582 22 560 22 c 0
 534 22 534 26 534 32 c 2
EndSplineSet
EndChar
StartChar: uF1FA7
Encoding: 991143 991143 23
Width: 1000
Flags: MW
LayerCount: 2
Back
Fore
SplineSet
980 284 m 256
 980 151 933 37 840 -56 c 0
 747 -149 633 -196 500 -196 c 256
 367 -196 253 -149 160 -56 c 0
 67 37 20 151 20 284 c 256
 20 417 67 530 160 624 c 0
 253 718 367 765 500 765 c 256
 633 765 747 718 840 624 c 0
 933 530 980 417 980 284 c 256
932 284 m 256
 932 404 890 506 806 590 c 0
 722 674 620 716 500 716 c 0
 380 716 278 674 194 590 c 0
 110 506 68 404 68 284 c 256
 68 164 110 62 194 -22 c 0
 278 -106 380 -147 500 -147 c 0
 620 -147 722 -106 806 -22 c 0
 890 62 932 164 932 284 c 256
139 30 m 2
 139 32 l 2
 139 57 224 110 318 315 c 0
 339 361 353 417 353 464 c 0
 353 508 321 540 270 540 c 0
 192 540 169 489 153 489 c 0
 149 489 146 494 146 500 c 0
 146 508 192 595 296 595 c 0
 355 595 420 559 420 482 c 0
 420 338 225 108 225 92 c 0
 225 84 261 82 284 82 c 0
 410 82 390 83 410 93 c 0
 433 104 451 137 462 137 c 0
 468 137 471 133 471 129 c 0
 471 123 415 33 415 33 c 2
 407 22 399 20 392 20 c 0
 301 20 297 21 259 21 c 0
 240 21 188 20 166 20 c 0
 140 20 139 24 139 30 c 2
534 57 m 0
 534 60 536 70 551 70 c 0
 563 70 580 32 650 32 c 0
 754 32 794 140 794 194 c 0
 794 252 769 312 681 312 c 0
 665 312 658 308 656 308 c 0
 647 308 645 315 645 320 c 0
 645 330 656 328 711 370 c 0
 743 395 762 431 762 464 c 0
 762 505 730 540 688 540 c 0
 635 540 596 492 581 492 c 0
 575 492 574 496 574 500 c 0
 574 538 652 588 707 588 c 0
 765 588 823 559 823 494 c 0
 823 436 792 410 758 376 c 0
 751 369 746 364 746 360 c 0
 746 354 778 358 810 332 c 0
 840 308 861 276 861 226 c 0
 861 96 766 2 659 2 c 0
 599 2 534 31 534 57 c 0
EndSplineSet
EndChar
StartChar: uF1FA8
Encoding: 991144 991144 24
Width: 1000
Flags: MW
LayerCount: 2
Back
Fore
SplineSet
980 284 m 256
 980 151 933 37 840 -56 c 0
 747 -149 633 -196 500 -196 c 256
 367 -196 253 -149 160 -56 c 0
 67 37 20 151 20 284 c 256
 20 417 67 530 160 624 c 0
 253 718 367 765 500 765 c 256
 633 765 747 718 840 624 c 0
 933 530 980 417 980 284 c 256
932 284 m 256
 932 404 890 506 806 590 c 0
 722 674 620 716 500 716 c 0
 380 716 278 674 194 590 c 0
 110 506 68 404 68 284 c 256
 68 164 110 62 194 -22 c 0
 278 -106 380 -147 500 -147 c 0
 620 -147 722 -106 806 -22 c 0
 890 62 932 164 932 284 c 256
126 23 m 2
 126 26 l 2
 126 51 210 103 304 308 c 0
 325 354 339 410 339 457 c 0
 339 501 307 534 256 534 c 0
 178 534 156 483 140 483 c 0
 136 483 134 488 134 494 c 0
 134 502 179 588 282 588 c 0
 341 588 406 552 406 475 c 0
 406 331 211 101 211 85 c 0
 211 77 247 75 270 75 c 0
 396 75 376 77 396 87 c 0
 419 98 437 131 448 131 c 0
 454 131 457 127 457 123 c 0
 457 117 401 27 401 27 c 2
 393 16 385 13 378 13 c 0
 287 13 284 15 246 15 c 0
 227 15 175 13 153 13 c 0
 127 13 126 17 126 23 c 2
498 192 m 0
 498 212 507 224 710 507 c 0
 734 541 756 581 773 581 c 0
 780 581 786 576 786 565 c 0
 786 560 776 295 776 257 c 0
 776 240 776 237 786 237 c 0
 841 237 838 263 856 263 c 0
 858 263 874 261 874 251 c 0
 874 241 861 230 857 216 c 0
 855 210 853 179 836 179 c 0
 823 179 800 182 789 182 c 0
 779 182 774 177 774 166 c 0
 774 137 776 109 776 59 c 0
 776 -5 777 11 777 -11 c 0
 777 -51 777 -44 748 -53 c 0
 737 -56 725 -58 722 -58 c 0
 709 -58 704 -43 704 -37 c 0
 704 -29 718 -3 718 176 c 0
 718 181 714 181 709 181 c 2
 607 181 l 2
 574 181 546 179 521 179 c 0
 505 179 498 180 498 192 c 0
568 242 m 0
 568 236 577 235 590 235 c 2
 695 235 l 2
 717 235 718 237 718 251 c 0
 718 257 722 387 722 437 c 0
 722 452 720 460 718 460 c 0
 712 460 568 261 568 242 c 0
EndSplineSet
EndChar
StartChar: uF1FAA
Encoding: 991146 991146 26
Width: 1000
Flags: MW
LayerCount: 2
Back
Fore
SplineSet
980 284 m 256
 980 151 933 37 840 -56 c 0
 747 -149 633 -196 500 -196 c 256
 367 -196 253 -149 160 -56 c 0
 67 37 20 151 20 284 c 256
 20 417 67 530 160 624 c 0
 253 718 367 765 500 765 c 256
 633 765 747 718 840 624 c 0
 933 530 980 417 980 284 c 256
932 284 m 256
 932 404 890 506 806 590 c 0
 722 674 620 716 500 716 c 0
 380 716 278 674 194 590 c 0
 110 506 68 404 68 284 c 256
 68 164 110 62 194 -22 c 0
 278 -106 380 -147 500 -147 c 0
 620 -147 722 -106 806 -22 c 0
 890 62 932 164 932 284 c 256
134 31 m 2
 134 33 l 2
 134 58 219 110 313 315 c 0
 334 361 348 417 348 464 c 0
 348 508 316 541 265 541 c 0
 187 541 164 490 148 490 c 0
 144 490 142 495 142 501 c 0
 142 509 187 595 291 595 c 0
 350 595 415 560 415 483 c 0
 415 339 220 108 220 92 c 0
 220 84 256 83 279 83 c 0
 405 83 386 84 406 94 c 0
 429 105 447 138 458 138 c 0
 464 138 466 134 466 130 c 0
 466 124 410 34 410 34 c 2
 402 23 394 20 387 20 c 0
 296 20 292 22 254 22 c 0
 235 22 183 20 161 20 c 0
 135 20 134 25 134 31 c 2
519 219 m 0
 519 494 780 599 834 599 c 0
 844 599 848 591 848 585 c 0
 848 563 799 584 713 510 c 0
 635 444 601 357 601 331 c 0
 601 326 602 323 604 323 c 0
 612 323 639 379 721 379 c 0
 802 379 866 308 866 203 c 0
 866 90 792 3 698 3 c 0
 681 3 641 6 607 32 c 0
 573 59 519 115 519 219 c 0
586 212 m 0
 586 166 611 36 716 36 c 0
 780 36 810 100 810 169 c 0
 810 252 766 343 686 343 c 0
 652 343 599 312 591 271 c 0
 588 253 586 238 586 212 c 0
EndSplineSet
EndChar
StartChar: uF1FAB
Encoding: 991147 991147 27
Width: 1000
Flags: MW
LayerCount: 2
Back
Fore
SplineSet
980 284 m 256
 980 151 933 37 840 -56 c 0
 747 -149 633 -196 500 -196 c 256
 367 -196 253 -149 160 -56 c 0
 67 37 20 151 20 284 c 256
 20 417 67 530 160 624 c 0
 253 718 367 765 500 765 c 256
 633 765 747 718 840 624 c 0
 933 530 980 417 980 284 c 256
932 284 m 256
 932 404 890 506 806 590 c 0
 722 674 620 716 500 716 c 0
 380 716 278 674 194 590 c 0
 110 506 68 404 68 284 c 256
 68 164 110 62 194 -22 c 0
 278 -106 380 -147 500 -147 c 0
 620 -147 722 -106 806 -22 c 0
 890 62 932 164 932 284 c 256
146 25 m 2
 146 27 l 2
 146 52 231 105 325 310 c 0
 346 356 360 412 360 459 c 0
 360 503 328 535 277 535 c 0
 199 535 176 484 160 484 c 0
 156 484 154 489 154 495 c 0
 154 503 199 590 303 590 c 0
 362 590 427 554 427 477 c 0
 427 333 232 103 232 87 c 0
 232 79 268 77 291 77 c 0
 417 77 398 78 418 88 c 0
 441 99 459 132 470 132 c 0
 476 132 478 128 478 124 c 0
 478 118 422 28 422 28 c 2
 414 17 406 15 399 15 c 0
 308 15 304 16 266 16 c 0
 247 16 195 15 173 15 c 0
 147 15 146 19 146 25 c 2
555 464 m 0
 555 494 569 528 574 558 c 0
 575 565 582 567 586 567 c 0
 612 567 613 564 716 564 c 2
 741 564 l 2
 812 564 819 566 833 566 c 0
 845 566 854 559 854 549 c 0
 854 434 717 200 717 72 c 0
 717 7 734 -5 734 -19 c 0
 734 -38 690 -44 684 -44 c 0
 662 -44 644 -36 644 27 c 0
 644 151 759 328 793 424 c 0
 805 458 811 484 811 496 c 0
 811 499 805 507 795 507 c 0
 791 507 786 507 780 507 c 0
 770 507 724 506 686 506 c 0
 672 506 673 507 662 507 c 0
 602 507 589 485 581 459 c 0
 578 448 573 432 566 432 c 0
 559 432 555 446 555 464 c 0
EndSplineSet
EndChar
StartChar: uF1FAC
Encoding: 991148 991148 28
Width: 1000
Flags: MW
LayerCount: 2
Back
Fore
SplineSet
980 284 m 256
 980 151 933 37 840 -56 c 0
 747 -149 633 -196 500 -196 c 256
 367 -196 253 -149 160 -56 c 0
 67 37 20 151 20 284 c 256
 20 417 67 530 160 624 c 0
 253 718 367 765 500 765 c 256
 633 765 747 718 840 624 c 0
 933 530 980 417 980 284 c 256
932 284 m 256
 932 404 890 506 806 590 c 0
 722 674 620 716 500 716 c 0
 380 716 278 674 194 590 c 0
 110 506 68 404 68 284 c 256
 68 164 110 62 194 -22 c 0
 278 -106 380 -147 500 -147 c 0
 620 -147 722 -106 806 -22 c 0
 890 62 932 164 932 284 c 256
136 30 m 2
 136 33 l 2
 136 58 220 110 314 315 c 0
 335 361 350 417 350 464 c 0
 350 508 317 541 266 541 c 0
 188 541 166 490 150 490 c 0
 146 490 143 495 143 501 c 0
 143 509 189 595 293 595 c 0
 352 595 417 559 417 482 c 0
 417 338 222 108 222 92 c 0
 222 84 258 82 281 82 c 0
 407 82 387 84 407 94 c 0
 430 105 448 138 459 138 c 0
 465 138 468 134 468 130 c 0
 468 124 412 34 412 34 c 2
 404 23 396 20 389 20 c 0
 298 20 294 22 256 22 c 0
 237 22 184 20 162 20 c 0
 136 20 136 24 136 30 c 2
524 166 m 0
 524 284 626 314 626 319 c 0
 626 327 549 349 549 439 c 0
 549 535 622 588 702 588 c 0
 816 588 845 512 845 459 c 0
 845 348 750 344 750 338 c 0
 750 328 864 299 864 178 c 0
 864 112 829 4 691 4 c 0
 600 4 524 60 524 166 c 0
570 189 m 0
 570 90 640 34 706 34 c 0
 761 34 812 74 812 159 c 0
 812 192 794 224 774 241 c 0
 726 282 667 302 652 302 c 0
 622 302 570 254 570 189 c 0
600 459 m 0
 600 373 709 354 723 354 c 0
 753 354 798 382 798 454 c 0
 798 488 775 558 698 558 c 0
 656 558 600 538 600 459 c 0
EndSplineSet
EndChar
StartChar: uF1FAD
Encoding: 991149 991149 29
Width: 1000
Flags: MW
LayerCount: 2
Back
Fore
SplineSet
980 284 m 256
 980 151 933 37 840 -56 c 0
 747 -149 633 -196 500 -196 c 256
 367 -196 253 -149 160 -56 c 0
 67 37 20 151 20 284 c 256
 20 417 67 530 160 624 c 0
 253 718 367 765 500 765 c 256
 633 765 747 718 840 624 c 0
 933 530 980 417 980 284 c 256
932 284 m 256
 932 404 890 506 806 590 c 0
 722 674 620 716 500 716 c 0
 380 716 278 674 194 590 c 0
 110 506 68 404 68 284 c 256
 68 164 110 62 194 -22 c 0
 278 -106 380 -147 500 -147 c 0
 620 -147 722 -106 806 -22 c 0
 890 62 932 164 932 284 c 256
130 30 m 2
 130 32 l 2
 130 57 215 109 309 314 c 0
 330 360 344 416 344 463 c 0
 344 507 312 540 261 540 c 0
 183 540 160 489 144 489 c 0
 140 489 138 494 138 500 c 0
 138 508 183 594 287 594 c 0
 346 594 411 559 411 482 c 0
 411 338 216 107 216 91 c 0
 216 83 252 82 275 82 c 0
 401 82 382 83 402 93 c 0
 425 104 443 137 454 137 c 0
 460 137 462 133 462 129 c 0
 462 123 406 33 406 33 c 2
 398 22 390 19 383 19 c 0
 292 19 288 21 250 21 c 0
 231 21 179 19 157 19 c 0
 131 19 130 24 130 30 c 2
523 390 m 0
 523 493 589 587 693 587 c 0
 799 587 870 490 870 372 c 0
 870 269 822 145 722 69 c 0
 659 21 588 -3 554 -3 c 0
 542 -3 542 3 542 7 c 0
 542 10 542 16 554 18 c 0
 600 28 659 62 709 114 c 0
 749 156 781 238 781 253 c 0
 781 257 780 258 778 258 c 0
 771 258 734 212 678 212 c 0
 575 212 523 300 523 390 c 0
582 431 m 0
 582 348 630 250 699 250 c 0
 773 250 801 312 801 380 c 0
 801 454 757 552 679 552 c 0
 612 552 582 495 582 431 c 0
EndSplineSet
EndChar
StartChar: uF1FAE
Encoding: 991150 991150 30
Width: 1000
Flags: MW
LayerCount: 2
Back
Fore
SplineSet
980 284 m 256
 980 151 933 37 840 -56 c 0
 747 -149 633 -196 500 -196 c 256
 367 -196 253 -149 160 -56 c 0
 67 37 20 151 20 284 c 256
 20 417 67 530 160 624 c 0
 253 718 367 765 500 765 c 256
 633 765 747 718 840 624 c 0
 933 530 980 417 980 284 c 256
932 284 m 256
 932 404 890 506 806 590 c 0
 722 674 620 716 500 716 c 0
 380 716 278 674 194 590 c 0
 110 506 68 404 68 284 c 256
 68 164 110 62 194 -22 c 0
 278 -106 380 -147 500 -147 c 0
 620 -147 722 -106 806 -22 c 0
 890 62 932 164 932 284 c 256
130 57 m 0
 130 60 132 69 147 69 c 0
 159 69 176 32 246 32 c 0
 350 32 389 139 389 193 c 0
 389 251 364 311 276 311 c 0
 260 311 254 308 252 308 c 0
 243 308 240 315 240 320 c 0
 240 330 252 327 307 369 c 0
 339 394 357 431 357 464 c 0
 357 505 326 540 284 540 c 0
 231 540 191 492 176 492 c 0
 170 492 170 495 170 499 c 0
 170 537 248 587 303 587 c 0
 361 587 419 558 419 493 c 0
 419 435 388 409 354 375 c 0
 347 368 342 364 342 360 c 0
 342 354 373 358 405 332 c 0
 435 308 456 275 456 225 c 0
 456 95 362 1 255 1 c 0
 195 1 130 31 130 57 c 0
516 277 m 0
 516 471 603 589 705 589 c 0
 815 589 870 463 870 309 c 0
 870 148 810 8 689 8 c 0
 554 8 516 139 516 277 c 0
564 331 m 0
 564 194 619 41 710 41 c 0
 788 41 826 151 826 268 c 0
 826 400 777 541 682 541 c 0
 599 541 564 441 564 331 c 0
EndSplineSet
EndChar
StartChar: uF1FB0
Encoding: 991152 991152 1734
Width: 1000
Flags: MW
LayerCount: 2
Back
Fore
SplineSet
721 -192 m 0
 721 -163 919 -65 919 281 c 0
 919 599 724 726 724 753 c 0
 724 766 738 772 744 772 c 0
 777 772 964 558 964 280 c 0
 964 -35 763 -214 742 -214 c 0
 724 -214 721 -203 721 -192 c 0
34 278 m 0
 34 593 235 772 256 772 c 0
 274 772 277 762 277 751 c 0
 277 722 79 623 79 277 c 0
 79 -41 274 -168 274 -195 c 0
 274 -208 260 -214 254 -214 c 0
 221 -214 34 0 34 278 c 0
362 150 m 0
 362 236 446 244 546 262 c 0
 555 264 560 265 560 275 c 0
 560 291 562 304 562 317 c 0
 562 387 506 403 484 403 c 0
 434 403 426 375 426 355 c 0
 426 343 430 333 430 326 c 0
 430 312 424 310 415 310 c 0
 405 310 366 315 366 342 c 0
 366 383 431 430 500 430 c 0
 620 430 620 359 620 329 c 0
 620 225 616 240 616 180 c 0
 616 74 677 122 677 93 c 0
 677 81 660 76 626 76 c 0
 580 76 566 120 562 120 c 0
 559 120 515 70 457 70 c 0
 423 70 400 75 382 94 c 0
 368 108 362 128 362 150 c 0
425 162 m 0
 425 126 446 102 486 102 c 0
 560 102 560 158 560 184 c 2
 560 242 l 2
 560 247 557 249 554 249 c 0
 552 249 548 247 546 247 c 0
 495 238 425 228 425 162 c 0
EndSplineSet
EndChar
StartChar: uF1FB1
Encoding: 991153 991153 1735
Width: 1000
Flags: MW
LayerCount: 2
Back
Fore
SplineSet
721 -192 m 0
 721 -163 919 -65 919 281 c 0
 919 599 724 726 724 753 c 0
 724 766 738 772 744 772 c 0
 777 772 964 558 964 280 c 0
 964 -35 763 -214 742 -214 c 0
 724 -214 721 -203 721 -192 c 0
34 278 m 0
 34 593 235 772 256 772 c 0
 274 772 277 762 277 751 c 0
 277 722 79 623 79 277 c 0
 79 -41 274 -168 274 -195 c 0
 274 -208 260 -214 254 -214 c 0
 221 -214 34 0 34 278 c 0
302 557 m 0
 302 574 339 582 354 588 c 0
 371 595 397 609 405 609 c 0
 410 609 417 604 417 595 c 0
 417 566 416 599 416 333 c 0
 416 312 418 304 422 304 c 0
 435 304 434 358 548 358 c 0
 649 358 698 273 698 192 c 0
 698 150 676 69 626 31 c 0
 596 9 559 -4 514 -4 c 0
 440 -4 403 42 397 42 c 0
 388 42 378 -9 358 -9 c 0
 350 -9 348 -6 348 1 c 0
 348 20 351 62 351 67 c 0
 351 128 358 188 358 278 c 2
 358 476 l 2
 358 510 352 548 322 548 c 2
 314 548 l 2
 308 548 302 550 302 557 c 0
416 110 m 2
 416 92 451 24 533 24 c 0
 611 24 646 86 646 152 c 0
 646 230 597 315 506 315 c 0
 483 315 459 306 442 292 c 0
 419 273 416 265 416 255 c 2
 416 110 l 2
EndSplineSet
EndChar
StartChar: uF1FB2
Encoding: 991154 991154 1736
Width: 1000
Flags: MW
LayerCount: 2
Back
Fore
SplineSet
721 -192 m 0
 721 -163 919 -65 919 281 c 0
 919 599 724 726 724 753 c 0
 724 766 738 772 744 772 c 0
 777 772 964 558 964 280 c 0
 964 -35 763 -214 742 -214 c 0
 724 -214 721 -203 721 -192 c 0
34 278 m 0
 34 593 235 772 256 772 c 0
 274 772 277 762 277 751 c 0
 277 722 79 623 79 277 c 0
 79 -41 274 -168 274 -195 c 0
 274 -208 260 -214 254 -214 c 0
 221 -214 34 0 34 278 c 0
345 240 m 0
 345 338 416 430 530 430 c 0
 563 430 621 419 623 404 c 0
 624 394 625 380 625 366 c 0
 625 348 623 331 617 331 c 0
 606 331 604 345 590 356 c 0
 572 372 526 399 484 399 c 0
 468 399 405 377 405 266 c 0
 405 184 464 112 542 112 c 0
 606 112 637 153 647 153 c 0
 652 153 655 149 655 145 c 0
 655 138 613 70 510 70 c 0
 411 70 345 133 345 240 c 0
EndSplineSet
EndChar
StartChar: uF1FB3
Encoding: 991155 991155 1737
Width: 1000
Flags: MW
LayerCount: 2
Back
Fore
SplineSet
721 -192 m 0
 721 -163 919 -65 919 281 c 0
 919 599 724 726 724 753 c 0
 724 766 738 772 744 772 c 0
 777 772 964 558 964 280 c 0
 964 -35 763 -214 742 -214 c 0
 724 -214 721 -203 721 -192 c 0
34 278 m 0
 34 593 235 772 256 772 c 0
 274 772 277 762 277 751 c 0
 277 722 79 623 79 277 c 0
 79 -41 274 -168 274 -195 c 0
 274 -208 260 -214 254 -214 c 0
 221 -214 34 0 34 278 c 0
298 158 m 0
 298 253 362 353 492 353 c 0
 528 353 572 330 583 330 c 0
 585 330 587 334 587 358 c 0
 587 461 589 433 589 462 c 0
 589 516 588 551 546 551 c 2
 538 551 l 2
 521 551 521 552 521 558 c 2
 521 570 548 568 611 597 c 0
 621 601 632 609 642 609 c 0
 648 609 652 605 652 593 c 0
 652 576 642 486 642 419 c 0
 642 275 640 185 640 127 c 0
 640 54 645 37 668 30 c 0
 681 26 702 28 702 14 c 0
 702 10 699 4 641 -1 c 0
 618 -3 600 -9 590 -9 c 0
 584 -9 582 -6 582 0 c 0
 582 7 579 16 579 30 c 0
 579 36 578 43 572 43 c 0
 563 43 531 -9 455 -9 c 0
 350 -9 298 72 298 158 c 0
355 196 m 0
 355 122 405 33 488 33 c 0
 534 33 583 59 583 96 c 0
 584 233 584 219 584 233 c 0
 584 277 573 288 562 294 c 0
 536 309 495 330 466 330 c 0
 395 330 355 270 355 196 c 0
EndSplineSet
EndChar
StartChar: uF1FB4
Encoding: 991156 991156 1738
Width: 1000
Flags: MW
LayerCount: 2
Back
Fore
SplineSet
721 -192 m 0
 721 -163 919 -65 919 281 c 0
 919 599 724 726 724 753 c 0
 724 766 738 772 744 772 c 0
 777 772 964 558 964 280 c 0
 964 -35 763 -214 742 -214 c 0
 724 -214 721 -203 721 -192 c 0
34 278 m 0
 34 593 235 772 256 772 c 0
 274 772 277 762 277 751 c 0
 277 722 79 623 79 277 c 0
 79 -41 274 -168 274 -195 c 0
 274 -208 260 -214 254 -214 c 0
 221 -214 34 0 34 278 c 0
345 240 m 0
 345 344 409 430 507 430 c 0
 627 430 654 315 654 303 c 0
 654 292 644 289 622 289 c 2
 440 289 l 1
 416 289 l 2
 407 289 407 288 407 280 c 0
 407 174 476 118 542 118 c 0
 599 118 633 154 647 154 c 0
 651 154 655 150 655 147 c 0
 655 138 608 70 514 70 c 0
 428 70 345 121 345 240 c 0
412 319 m 0
 412 312 413 308 422 308 c 0
 459 308 549 313 563 313 c 0
 578 313 580 315 580 322 c 0
 580 343 557 410 494 410 c 0
 436 410 412 347 412 319 c 0
EndSplineSet
EndChar
StartChar: uF1FB5
Encoding: 991157 991157 1739
Width: 1000
Flags: MW
LayerCount: 2
Back
Fore
SplineSet
721 -192 m 0
 721 -163 919 -65 919 281 c 0
 919 599 724 726 724 753 c 0
 724 766 738 772 744 772 c 0
 777 772 964 558 964 280 c 0
 964 -35 763 -214 742 -214 c 0
 724 -214 721 -203 721 -192 c 0
34 278 m 0
 34 593 235 772 256 772 c 0
 274 772 277 762 277 751 c 0
 277 722 79 623 79 277 c 0
 79 -41 274 -168 274 -195 c 0
 274 -208 260 -214 254 -214 c 0
 221 -214 34 0 34 278 c 0
369 312 m 0
 369 332 377 336 403 336 c 2
 420 336 l 2
 434 336 434 343 434 354 c 0
 434 519 552 601 610 601 c 0
 635 601 652 593 652 579 c 0
 652 574 649 566 647 556 c 0
 642 540 641 531 628 531 c 0
 618 531 622 552 572 552 c 0
 505 552 488 448 488 370 c 2
 488 350 l 2
 488 341 489 335 497 335 c 0
 531 335 557 338 574 341 c 0
 581 343 586 349 591 349 c 0
 593 349 595 346 595 343 c 0
 595 329 588 319 584 312 c 0
 581 307 574 305 564 305 c 0
 526 305 551 304 501 304 c 0
 494 304 488 303 488 296 c 2
 488 250 l 2
 488 236 491 126 492 92 c 0
 493 62 493 19 543 19 c 0
 556 19 556 13 556 7 c 0
 556 4 556 -1 548 -1 c 0
 546 -1 486 3 468 3 c 0
 438 3 439 -1 408 -1 c 0
 401 -1 396 1 396 10 c 0
 396 22 436 16 436 65 c 0
 436 87 432 141 432 291 c 0
 432 303 429 304 419 304 c 0
 410 304 401 301 387 301 c 0
 370 301 369 307 369 312 c 0
EndSplineSet
EndChar
StartChar: uF1FB6
Encoding: 991158 991158 1740
Width: 1000
Flags: MW
LayerCount: 2
Back
Fore
SplineSet
721 -192 m 0
 721 -163 919 -65 919 281 c 0
 919 599 724 726 724 753 c 0
 724 766 738 772 744 772 c 0
 777 772 964 558 964 280 c 0
 964 -35 763 -214 742 -214 c 0
 724 -214 721 -203 721 -192 c 0
34 278 m 0
 34 593 235 772 256 772 c 0
 274 772 277 762 277 751 c 0
 277 722 79 623 79 277 c 0
 79 -41 274 -168 274 -195 c 0
 274 -208 260 -214 254 -214 c 0
 221 -214 34 0 34 278 c 0
331 72 m 0
 331 121 389 132 389 140 c 0
 389 145 362 152 362 187 c 0
 362 241 404 258 404 266 c 0
 404 279 350 289 350 373 c 0
 350 415 374 496 488 496 c 0
 558 496 578 464 589 464 c 0
 601 464 615 472 630 478 c 0
 651 487 644 516 658 516 c 0
 660 516 669 516 669 510 c 0
 669 482 658 448 651 437 c 0
 642 423 629 417 618 412 c 1
 618 412 627 388 627 372 c 0
 627 304 569 251 495 251 c 0
 459 251 446 258 434 258 c 0
 432 258 398 257 398 219 c 0
 398 180 439 177 505 177 c 2
 542 177 l 2
 580 177 658 175 658 107 c 0
 658 93 657 80 652 69 c 0
 631 17 562 -16 480 -16 c 0
 418 -16 331 2 331 72 c 0
378 76 m 0
 378 26 427 5 480 5 c 0
 542 5 609 33 609 78 c 0
 609 119 566 119 520 119 c 2
 513 119 l 2
 471 119 423 130 414 130 c 0
 407 130 378 110 378 76 c 0
410 381 m 0
 410 317 444 269 490 269 c 0
 540 269 565 314 565 364 c 0
 565 419 536 478 482 478 c 0
 445 478 410 446 410 381 c 0
EndSplineSet
EndChar
StartChar: uF1FB7
Encoding: 991159 991159 1741
Width: 1000
Flags: MW
LayerCount: 2
Back
Fore
SplineSet
721 -192 m 0
 721 -163 919 -65 919 281 c 0
 919 599 724 726 724 753 c 0
 724 766 738 772 744 772 c 0
 777 772 964 558 964 280 c 0
 964 -35 763 -214 742 -214 c 0
 724 -214 721 -203 721 -192 c 0
34 278 m 0
 34 593 235 772 256 772 c 0
 274 772 277 762 277 751 c 0
 277 722 79 623 79 277 c 0
 79 -41 274 -168 274 -195 c 0
 274 -208 260 -214 254 -214 c 0
 221 -214 34 0 34 278 c 0
281 556 m 0
 281 571 315 572 337 582 c 0
 359 592 384 604 394 604 c 0
 404 604 404 592 404 586 c 0
 404 575 398 563 398 536 c 0
 396 324 393 324 393 301 c 0
 393 291 394 286 399 286 c 0
 407 286 447 345 513 345 c 0
 595 345 649 299 649 188 c 2
 649 72 l 2
 649 60 654 27 676 25 c 0
 700 23 719 18 719 8 c 0
 719 -2 707 -4 694 -4 c 0
 684 -4 643 0 626 -0 c 0
 613 0 572 -3 566 -3 c 0
 556 -3 546 -1 546 5 c 0
 546 31 590 2 590 56 c 0
 590 70 591 55 591 188 c 0
 591 254 545 308 492 308 c 0
 462 308 433 291 415 277 c 0
 396 262 393 246 393 129 c 2
 393 111 l 2
 393 73 395 35 425 22 c 0
 442 15 465 22 465 8 c 0
 465 3 462 -2 457 -2 c 0
 456 -2 374 2 370 2 c 0
 359 2 326 -2 314 -2 c 0
 292 -2 292 1 292 6 c 0
 292 10 293 14 302 16 c 0
 335 26 338 46 338 78 c 2
 342 351 l 1
 342 390 l 2
 342 530 342 547 308 547 c 0
 296 547 297 548 295 548 c 0
 286 548 281 551 281 556 c 0
EndSplineSet
EndChar
StartChar: uF1FB8
Encoding: 991160 991160 1742
Width: 1000
Flags: MW
LayerCount: 2
Back
Fore
SplineSet
721 -192 m 0
 721 -163 919 -65 919 281 c 0
 919 599 724 726 724 753 c 0
 724 766 738 772 744 772 c 0
 777 772 964 558 964 280 c 0
 964 -35 763 -214 742 -214 c 0
 724 -214 721 -203 721 -192 c 0
34 278 m 0
 34 593 235 772 256 772 c 0
 274 772 277 762 277 751 c 0
 277 722 79 623 79 277 c 0
 79 -41 274 -168 274 -195 c 0
 274 -208 260 -214 254 -214 c 0
 221 -214 34 0 34 278 c 0
410 300 m 0
 410 313 429 314 474 332 c 0
 503 344 501 346 514 346 c 0
 519 346 526 342 526 331 c 0
 526 321 522 306 522 292 c 2
 522 73 l 2
 522 21 546 17 566 15 c 0
 580 14 590 14 590 3 c 0
 590 -2 590 -11 577 -11 c 0
 574 -11 569 -10 565 -10 c 0
 531 -10 538 -8 508 -8 c 0
 474 -8 465 -10 451 -10 c 0
 431 -10 419 -8 419 0 c 0
 419 6 424 14 431 16 c 0
 462 26 464 22 464 160 c 2
 464 230 l 2
 464 296 436 286 418 292 c 0
 414 294 410 297 410 300 c 0
455 467 m 0
 455 477 477 511 495 511 c 0
 513 511 532 481 532 465 c 0
 532 446 501 421 494 421 c 0
 471 421 455 454 455 467 c 0
EndSplineSet
EndChar
StartChar: uF1FB9
Encoding: 991161 991161 1743
Width: 1000
Flags: MW
LayerCount: 2
Back
Fore
SplineSet
721 -192 m 0
 721 -163 919 -65 919 281 c 0
 919 599 724 726 724 753 c 0
 724 766 738 772 744 772 c 0
 777 772 964 558 964 280 c 0
 964 -35 763 -214 742 -214 c 0
 724 -214 721 -203 721 -192 c 0
34 278 m 0
 34 593 235 772 256 772 c 0
 274 772 277 762 277 751 c 0
 277 722 79 623 79 277 c 0
 79 -41 274 -168 274 -195 c 0
 274 -208 260 -214 254 -214 c 0
 221 -214 34 0 34 278 c 0
393 -36 m 0
 393 -22 396 -13 410 -13 c 0
 427 -13 444 -48 457 -48 c 0
 471 -48 475 -21 475 81 c 2
 475 324 l 2
 475 342 474 372 428 372 c 0
 421 372 415 373 415 380 c 0
 415 390 439 386 486 408 c 0
 503 416 517 425 523 425 c 0
 532 425 533 417 533 407 c 2
 533 398 l 2
 533 385 531 370 531 360 c 2
 531 101 l 2
 531 26 510 -87 426 -87 c 0
 406 -87 394 -81 394 -65 c 0
 394 -56 393 -45 393 -36 c 0
467 546 m 0
 467 560 487 587 505 587 c 0
 523 587 543 562 543 546 c 0
 543 527 515 504 508 504 c 0
 485 504 467 533 467 546 c 0
EndSplineSet
EndChar
StartChar: uF1FBA
Encoding: 991162 991162 1744
Width: 1000
Flags: MW
LayerCount: 2
Back
Fore
SplineSet
721 -192 m 0
 721 -163 919 -65 919 281 c 0
 919 599 724 726 724 753 c 0
 724 766 738 772 744 772 c 0
 777 772 964 558 964 280 c 0
 964 -35 763 -214 742 -214 c 0
 724 -214 721 -203 721 -192 c 0
34 278 m 0
 34 593 235 772 256 772 c 0
 274 772 277 762 277 751 c 0
 277 722 79 623 79 277 c 0
 79 -41 274 -168 274 -195 c 0
 274 -208 260 -214 254 -214 c 0
 221 -214 34 0 34 278 c 0
289 550 m 0
 289 556 299 561 329 571 c 0
 371 584 356 578 386 596 c 0
 392 600 405 607 414 607 c 0
 423 607 425 599 425 592 c 0
 425 584 417 540 417 389 c 0
 417 335 414 279 414 225 c 2
 414 208 l 2
 414 191 416 175 418 175 c 0
 429 175 434 184 444 193 c 0
 550 278 556 290 556 295 c 0
 556 314 519 312 519 326 c 0
 519 331 522 334 529 334 c 0
 533 334 537 333 543 333 c 0
 608 335 644 337 662 337 c 0
 680 337 682 335 682 330 c 0
 682 314 658 326 610 296 c 0
 602 291 602 290 572 268 c 0
 492 207 492 209 492 199 c 0
 492 193 497 186 502 180 c 0
 560 110 600 68 626 46 c 0
 677 1 711 27 711 8 c 0
 711 -6 700 -5 678 -5 c 0
 668 -5 602 -4 594 -4 c 0
 570 -4 473 122 447 153 c 0
 445 156 442 158 439 158 c 0
 429 158 414 142 414 121 c 0
 414 117 414 114 414 108 c 0
 417 33 416 51 430 32 c 0
 442 14 489 21 489 6 c 0
 489 -5 468 -7 465 -7 c 0
 457 -7 412 -2 386 -2 c 0
 363 -2 363 -5 329 -5 c 0
 319 -5 310 -5 310 4 c 0
 310 14 323 16 329 18 c 0
 355 28 358 42 358 92 c 0
 358 107 358 121 358 127 c 2
 359 482 l 2
 359 536 336 542 321 542 c 0
 315 542 311 541 305 541 c 0
 296 541 289 543 289 550 c 0
EndSplineSet
EndChar
StartChar: uF1FBB
Encoding: 991163 991163 1745
Width: 1000
Flags: MW
LayerCount: 2
Back
Fore
SplineSet
721 -192 m 0
 721 -163 919 -65 919 281 c 0
 919 599 724 726 724 753 c 0
 724 766 738 772 744 772 c 0
 777 772 964 558 964 280 c 0
 964 -35 763 -214 742 -214 c 0
 724 -214 721 -203 721 -192 c 0
34 278 m 0
 34 593 235 772 256 772 c 0
 274 772 277 762 277 751 c 0
 277 722 79 623 79 277 c 0
 79 -41 274 -168 274 -195 c 0
 274 -208 260 -214 254 -214 c 0
 221 -214 34 0 34 278 c 0
404 554 m 0
 404 569 413 564 458 582 c 0
 479 590 503 604 519 604 c 0
 527 604 529 597 529 589 c 0
 529 577 522 541 522 468 c 2
 522 423 l 2
 522 355 521 356 521 316 c 2
 521 78 l 2
 521 52 525 20 586 20 c 0
 592 20 596 14 596 8 c 0
 596 -1 586 -4 571 -4 c 0
 554 -4 515 2 490 2 c 0
 453 2 444 -4 426 -4 c 0
 417 -4 413 2 413 4 c 0
 413 18 428 15 440 21 c 0
 459 30 462 45 462 73 c 0
 462 79 461 86 461 94 c 2
 461 153 l 2
 461 221 464 391 464 493 c 0
 464 518 455 540 445 544 c 0
 439 546 429 548 413 548 c 0
 408 548 404 548 404 554 c 0
EndSplineSet
EndChar
StartChar: uF1FBC
Encoding: 991164 991164 1746
Width: 1000
Flags: MW
LayerCount: 2
Back
Fore
SplineSet
721 -192 m 0
 721 -163 919 -65 919 281 c 0
 919 599 724 726 724 753 c 0
 724 766 738 772 744 772 c 0
 777 772 964 558 964 280 c 0
 964 -35 763 -214 742 -214 c 0
 724 -214 721 -203 721 -192 c 0
34 278 m 0
 34 593 235 772 256 772 c 0
 274 772 277 762 277 751 c 0
 277 722 79 623 79 277 c 0
 79 -41 274 -168 274 -195 c 0
 274 -208 260 -214 254 -214 c 0
 221 -214 34 0 34 278 c 0
190 387 m 0
 190 404 226 400 260 415 c 0
 277 422 281 427 295 427 c 0
 302 427 305 417 305 404 c 0
 305 394 301 376 301 370 c 0
 301 365 301 361 306 361 c 0
 312 361 332 418 414 418 c 0
 500 418 508 355 516 355 c 0
 522 355 560 421 626 421 c 0
 709 421 747 363 753 301 c 0
 757 262 758 227 758 199 c 2
 758 174 l 2
 758 132 759 107 780 101 c 0
 786 99 810 100 810 86 c 0
 810 74 793 74 784 74 c 0
 774 74 747 77 731 77 c 0
 709 77 691 74 674 74 c 0
 665 74 654 76 654 82 c 0
 654 98 685 95 691 110 c 0
 693 116 694 131 694 147 c 2
 694 160 l 2
 694 337 690 327 664 358 c 0
 650 374 628 383 604 383 c 0
 564 383 522 347 522 340 c 0
 522 330 526 320 526 238 c 2
 526 170 l 2
 526 126 533 101 582 94 c 0
 594 92 596 84 596 82 c 0
 596 73 586 73 581 73 c 0
 567 73 545 77 522 77 c 0
 508 77 457 73 450 73 c 0
 444 73 432 75 432 83 c 0
 432 90 434 93 450 99 c 0
 456 101 469 103 469 149 c 0
 469 160 470 150 470 236 c 0
 470 286 468 281 468 286 c 0
 468 341 438 380 386 380 c 0
 341 380 300 353 300 322 c 2
 300 310 l 1
 300 160 l 2
 300 77 367 104 367 86 c 0
 367 77 367 74 350 74 c 0
 338 74 317 77 283 77 c 0
 251 77 232 74 220 74 c 0
 202 74 201 80 201 86 c 0
 201 103 227 88 238 122 c 0
 243 139 244 186 244 243 c 0
 244 274 243 308 243 341 c 0
 243 397 190 361 190 387 c 0
EndSplineSet
EndChar
StartChar: uF1FBD
Encoding: 991165 991165 1747
Width: 1000
Flags: MW
LayerCount: 2
Back
Fore
SplineSet
721 -192 m 0
 721 -163 919 -65 919 281 c 0
 919 599 724 726 724 753 c 0
 724 766 738 772 744 772 c 0
 777 772 964 558 964 280 c 0
 964 -35 763 -214 742 -214 c 0
 724 -214 721 -203 721 -192 c 0
34 278 m 0
 34 593 235 772 256 772 c 0
 274 772 277 762 277 751 c 0
 277 722 79 623 79 277 c 0
 79 -41 274 -168 274 -195 c 0
 274 -208 260 -214 254 -214 c 0
 221 -214 34 0 34 278 c 0
284 386 m 0
 284 396 305 395 323 400 c 0
 358 410 386 427 394 427 c 2
 396 427 l 2
 402 427 403 424 403 418 c 0
 403 412 402 396 402 383 c 0
 402 369 403 362 406 362 c 0
 412 362 414 377 443 395 c 0
 462 407 487 418 513 418 c 0
 627 418 650 325 650 283 c 0
 650 269 651 283 651 169 c 2
 651 151 l 2
 651 114 654 100 700 93 c 0
 714 91 716 87 716 81 c 0
 716 75 708 73 700 73 c 0
 667 73 652 77 634 77 c 0
 614 77 583 74 573 74 c 0
 563 74 557 78 557 84 c 0
 557 95 575 95 577 96 c 0
 593 101 594 128 594 150 c 2
 594 258 l 2
 594 347 541 382 491 382 c 0
 438 382 405 344 402 334 c 0
 398 323 394 233 394 207 c 2
 394 177 l 2
 394 131 398 99 440 96 c 0
 445 96 473 94 473 84 c 0
 473 75 465 74 458 74 c 0
 428 74 436 77 399 77 c 0
 365 77 317 74 310 74 c 0
 300 74 298 77 298 82 c 0
 298 107 337 63 340 158 c 0
 342 203 342 195 342 218 c 2
 342 334 l 2
 342 372 325 377 307 377 c 2
 299 377 l 2
 288 377 284 380 284 386 c 0
EndSplineSet
EndChar
StartChar: uF1FBF
Encoding: 991167 991167 1749
Width: 1000
Flags: MW
LayerCount: 2
Back
Fore
SplineSet
721 -192 m 0
 721 -163 919 -65 919 281 c 0
 919 599 724 726 724 753 c 0
 724 766 738 772 744 772 c 0
 777 772 964 558 964 280 c 0
 964 -35 763 -214 742 -214 c 0
 724 -214 721 -203 721 -192 c 0
34 278 m 0
 34 593 235 772 256 772 c 0
 274 772 277 762 277 751 c 0
 277 722 79 623 79 277 c 0
 79 -41 274 -168 274 -195 c 0
 274 -208 260 -214 254 -214 c 0
 221 -214 34 0 34 278 c 0
306 460 m 0
 306 470 329 467 385 493 c 0
 411 506 413 508 418 508 c 0
 424 508 428 506 428 498 c 0
 428 469 425 460 425 450 c 0
 425 446 427 444 428 444 c 0
 434 444 470 499 548 499 c 0
 648 499 694 421 694 338 c 0
 694 247 633 145 522 145 c 0
 438 145 430 175 418 175 c 0
 416 175 417 173 417 169 c 2
 417 81 l 1
 417 70 l 2
 417 52 425 41 430 33 c 0
 452 -1 500 28 500 2 c 0
 500 0 498 -8 473 -8 c 0
 452 -8 453 -5 390 -5 c 0
 364 -5 348 -7 338 -7 c 0
 313 -7 311 -5 311 1 c 0
 311 26 361 -10 361 86 c 2
 361 102 l 2
 361 260 364 289 364 323 c 2
 364 341 l 2
 364 421 362 451 326 451 c 0
 306 451 306 454 306 460 c 0
417 306 m 0
 417 290 417 282 417 266 c 0
 417 188 491 169 535 169 c 0
 608 169 642 232 642 300 c 0
 642 378 598 459 516 459 c 0
 483 459 461 448 444 434 c 0
 424 418 417 408 417 306 c 0
EndSplineSet
EndChar
StartChar: uF1FC0
Encoding: 991168 991168 1750
Width: 1000
Flags: MW
LayerCount: 2
Back
Fore
SplineSet
721 -192 m 0
 721 -163 919 -65 919 281 c 0
 919 599 724 726 724 753 c 0
 724 766 738 772 744 772 c 0
 777 772 964 558 964 280 c 0
 964 -35 763 -214 742 -214 c 0
 724 -214 721 -203 721 -192 c 0
34 278 m 0
 34 593 235 772 256 772 c 0
 274 772 277 762 277 751 c 0
 277 722 79 623 79 277 c 0
 79 -41 274 -168 274 -195 c 0
 274 -208 260 -214 254 -214 c 0
 221 -214 34 0 34 278 c 0
297 294 m 0
 297 440 406 499 495 499 c 0
 561 499 601 458 602 458 c 0
 611 458 624 509 642 509 c 0
 647 509 649 506 649 496 c 0
 649 472 642 461 642 339 c 0
 642 193 644 304 644 89 c 0
 644 -4 703 26 703 4 c 0
 703 -2 699 -6 689 -6 c 0
 683 -6 667 -5 633 -5 c 0
 563 -5 563 -9 554 -9 c 0
 537 -9 535 -3 535 3 c 0
 535 17 563 12 575 20 c 0
 582 25 585 32 585 88 c 0
 585 122 586 146 586 162 c 0
 586 195 585 199 582 199 c 0
 568 199 543 134 452 134 c 0
 410 134 381 145 356 166 c 0
 298 214 297 268 297 294 c 0
353 327 m 0
 353 217 437 176 482 176 c 0
 581 176 585 234 585 264 c 2
 585 395 l 2
 585 441 523 476 478 476 c 0
 439 476 353 448 353 327 c 0
EndSplineSet
EndChar
StartChar: uF1FC1
Encoding: 991169 991169 1751
Width: 1000
Flags: MW
LayerCount: 2
Back
Fore
SplineSet
721 -192 m 0
 721 -163 919 -65 919 281 c 0
 919 599 724 726 724 753 c 0
 724 766 738 772 744 772 c 0
 777 772 964 558 964 280 c 0
 964 -35 763 -214 742 -214 c 0
 724 -214 721 -203 721 -192 c 0
34 278 m 0
 34 593 235 772 256 772 c 0
 274 772 277 762 277 751 c 0
 277 722 79 623 79 277 c 0
 79 -41 274 -168 274 -195 c 0
 274 -208 260 -214 254 -214 c 0
 221 -214 34 0 34 278 c 0
352 378 m 0
 352 397 392 395 458 426 c 0
 462 428 468 429 469 429 c 0
 476 429 479 421 479 413 c 0
 479 407 478 399 478 391 c 0
 478 357 480 357 485 357 c 0
 491 357 517 422 569 422 c 0
 586 422 590 416 606 406 c 0
 620 396 623 387 623 383 c 0
 623 350 598 338 596 338 c 0
 578 338 573 358 535 358 c 0
 504 358 476 325 476 308 c 2
 476 225 l 2
 476 140 478 155 478 141 c 0
 478 117 497 101 515 98 c 0
 535 95 556 96 556 84 c 0
 556 78 555 71 546 71 c 0
 520 71 496 75 478 75 c 0
 435 75 409 71 395 71 c 0
 377 71 378 75 378 81 c 0
 378 87 379 92 388 94 c 0
 417 101 418 119 418 182 c 0
 418 335 416 319 416 334 c 0
 416 348 412 364 376 364 c 0
 374 364 370 365 367 365 c 0
 360 365 352 367 352 378 c 0
EndSplineSet
EndChar
StartChar: uF1FC2
Encoding: 991170 991170 1752
Width: 1000
Flags: MW
LayerCount: 2
Back
Fore
SplineSet
721 -192 m 0
 721 -163 919 -65 919 281 c 0
 919 599 724 726 724 753 c 0
 724 766 738 772 744 772 c 0
 777 772 964 558 964 280 c 0
 964 -35 763 -214 742 -214 c 0
 724 -214 721 -203 721 -192 c 0
34 278 m 0
 34 593 235 772 256 772 c 0
 274 772 277 762 277 751 c 0
 277 722 79 623 79 277 c 0
 79 -41 274 -168 274 -195 c 0
 274 -208 260 -214 254 -214 c 0
 221 -214 34 0 34 278 c 0
380 116 m 2
 380 185 l 2
 380 197 386 206 392 206 c 0
 409 206 406 190 413 172 c 0
 421 152 446 98 496 98 c 0
 521 98 566 109 566 155 c 0
 566 252 386 217 386 332 c 0
 386 394 445 432 507 432 c 0
 590 432 598 408 598 402 c 0
 598 400 602 363 602 354 c 0
 602 336 598 331 587 331 c 0
 573 331 562 404 490 404 c 0
 460 404 437 388 437 364 c 0
 437 317 484 306 522 292 c 0
 598 263 620 238 620 176 c 0
 620 146 601 114 578 93 c 0
 567 83 546 68 498 68 c 0
 456 68 421 86 409 90 c 0
 390 96 380 96 380 116 c 2
EndSplineSet
EndChar
StartChar: uF1FC3
Encoding: 991171 991171 1753
Width: 1000
Flags: MW
LayerCount: 2
Back
Fore
SplineSet
721 -192 m 0
 721 -163 919 -65 919 281 c 0
 919 599 724 726 724 753 c 0
 724 766 738 772 744 772 c 0
 777 772 964 558 964 280 c 0
 964 -35 763 -214 742 -214 c 0
 724 -214 721 -203 721 -192 c 0
34 278 m 0
 34 593 235 772 256 772 c 0
 274 772 277 762 277 751 c 0
 277 722 79 623 79 277 c 0
 79 -41 274 -168 274 -195 c 0
 274 -208 260 -214 254 -214 c 0
 221 -214 34 0 34 278 c 0
380 353 m 0
 380 366 395 367 423 396 c 0
 455 430 468 462 484 462 c 0
 490 462 492 458 492 444 c 0
 492 430 489 413 489 398 c 0
 489 383 489 382 522 382 c 2
 550 382 l 2
 602 382 603 393 612 393 c 0
 618 393 620 389 620 384 c 0
 620 376 600 340 594 340 c 0
 536 341 511 346 510 346 c 0
 489 346 486 342 486 320 c 0
 486 298 482 213 482 171 c 0
 482 106 491 78 551 78 c 0
 580 78 601 93 610 93 c 0
 616 93 618 92 618 84 c 0
 618 72 577 38 530 38 c 0
 428 38 423 101 423 132 c 2
 423 144 l 2
 423 214 426 324 426 330 c 0
 426 340 423 343 409 343 c 0
 403 343 398 342 394 342 c 0
 384 342 380 343 380 353 c 0
EndSplineSet
EndChar
StartChar: uF1FC4
Encoding: 991172 991172 1754
Width: 1000
Flags: MW
LayerCount: 2
Back
Fore
SplineSet
721 -192 m 0
 721 -163 919 -65 919 281 c 0
 919 599 724 726 724 753 c 0
 724 766 738 772 744 772 c 0
 777 772 964 558 964 280 c 0
 964 -35 763 -214 742 -214 c 0
 724 -214 721 -203 721 -192 c 0
34 278 m 0
 34 593 235 772 256 772 c 0
 274 772 277 762 277 751 c 0
 277 722 79 623 79 277 c 0
 79 -41 274 -168 274 -195 c 0
 274 -208 260 -214 254 -214 c 0
 221 -214 34 0 34 278 c 0
290 403 m 0
 290 413 297 421 343 421 c 0
 353 421 384 425 389 425 c 0
 407 425 407 423 407 385 c 0
 407 343 403 328 403 244 c 0
 403 138 457 115 492 115 c 0
 558 115 590 139 590 213 c 2
 588 323 l 2
 588 373 585 391 551 394 c 0
 542 395 534 398 534 404 c 0
 534 415 550 422 604 422 c 0
 616 422 626 426 633 426 c 0
 650 426 652 422 652 404 c 0
 652 399 648 309 648 200 c 0
 648 136 652 116 670 116 c 0
 677 116 685 117 691 117 c 0
 702 117 710 114 710 106 c 0
 710 93 703 93 681 93 c 0
 657 93 608 84 600 84 c 0
 590 84 591 125 586 125 c 0
 580 125 542 74 470 74 c 0
 390 74 342 115 342 213 c 0
 342 343 342 328 342 357 c 0
 342 381 326 392 318 392 c 2
 304 392 l 2
 295 392 290 394 290 403 c 0
EndSplineSet
EndChar
StartChar: uF1FC5
Encoding: 991173 991173 1755
Width: 1000
Flags: MW
LayerCount: 2
Back
Fore
SplineSet
721 -192 m 0
 721 -163 919 -65 919 281 c 0
 919 599 724 726 724 753 c 0
 724 766 738 772 744 772 c 0
 777 772 964 558 964 280 c 0
 964 -35 763 -214 742 -214 c 0
 724 -214 721 -203 721 -192 c 0
34 278 m 0
 34 593 235 772 256 772 c 0
 274 772 277 762 277 751 c 0
 277 722 79 623 79 277 c 0
 79 -41 274 -168 274 -195 c 0
 274 -208 260 -214 254 -214 c 0
 221 -214 34 0 34 278 c 0
306 418 m 0
 306 425 317 426 322 426 c 0
 328 426 346 423 378 423 c 0
 401 423 402 422 425 422 c 0
 435 422 447 425 456 425 c 0
 464 425 470 422 470 416 c 0
 470 403 462 402 451 402 c 0
 437 402 418 402 418 380 c 0
 418 363 438 327 473 248 c 0
 490 212 509 161 516 161 c 0
 526 161 606 348 606 373 c 0
 606 421 556 386 556 414 c 0
 556 423 565 425 581 425 c 0
 595 425 612 424 634 424 c 0
 650 424 662 425 671 425 c 0
 689 425 694 422 694 413 c 0
 694 403 679 407 662 384 c 0
 612 315 521 74 493 74 c 0
 477 74 486 74 386 296 c 0
 327 427 306 398 306 418 c 0
EndSplineSet
EndChar
StartChar: uF1FC6
Encoding: 991174 991174 1756
Width: 1000
Flags: MW
LayerCount: 2
Back
Fore
SplineSet
721 -192 m 0
 721 -163 919 -65 919 281 c 0
 919 599 724 726 724 753 c 0
 724 766 738 772 744 772 c 0
 777 772 964 558 964 280 c 0
 964 -35 763 -214 742 -214 c 0
 724 -214 721 -203 721 -192 c 0
34 278 m 0
 34 593 235 772 256 772 c 0
 274 772 277 762 277 751 c 0
 277 722 79 623 79 277 c 0
 79 -41 274 -168 274 -195 c 0
 274 -208 260 -214 254 -214 c 0
 221 -214 34 0 34 278 c 0
217 417 m 0
 217 424 226 426 231 426 c 0
 237 426 257 423 289 423 c 0
 312 423 304 424 327 424 c 0
 357 424 366 424 366 415 c 0
 366 399 330 412 330 377 c 0
 330 352 347 311 375 248 c 0
 392 212 407 168 414 168 c 0
 418 168 430 193 446 223 c 0
 484 297 489 301 489 320 c 0
 489 326 477 356 465 374 c 0
 438 413 420 402 420 416 c 0
 420 423 426 424 431 424 c 0
 485 424 431 422 529 422 c 0
 549 422 543 423 553 423 c 0
 570 423 570 414 570 412 c 0
 570 405 568 405 559 404 c 0
 549 403 535 399 535 381 c 0
 535 366 554 310 582 248 c 0
 599 212 613 167 620 167 c 0
 630 167 695 331 695 369 c 0
 695 412 652 393 652 416 c 0
 652 422 659 422 668 422 c 2
 761 422 l 2
 780 422 783 422 783 412 c 0
 783 398 765 405 748 382 c 0
 727 353 731 339 633 132 c 0
 615 94 606 74 596 74 c 0
 572 74 516 281 502 281 c 0
 493 281 412 76 386 76 c 0
 373 76 372 92 290 296 c 0
 269 348 273 366 231 401 c 0
 221 410 217 407 217 417 c 0
EndSplineSet
EndChar
StartChar: uF1FC7
Encoding: 991175 991175 1757
Width: 1000
Flags: MW
LayerCount: 2
Back
Fore
SplineSet
721 -192 m 0
 721 -163 919 -65 919 281 c 0
 919 599 724 726 724 753 c 0
 724 766 738 772 744 772 c 0
 777 772 964 558 964 280 c 0
 964 -35 763 -214 742 -214 c 0
 724 -214 721 -203 721 -192 c 0
34 278 m 0
 34 593 235 772 256 772 c 0
 274 772 277 762 277 751 c 0
 277 722 79 623 79 277 c 0
 79 -41 274 -168 274 -195 c 0
 274 -208 260 -214 254 -214 c 0
 221 -214 34 0 34 278 c 0
304 92 m 0
 304 102 312 96 341 114 c 0
 390 144 440 205 466 234 c 0
 468 236 470 237 470 242 c 0
 470 250 436 286 402 330 c 0
 375 365 347 386 340 387 c 0
 320 391 306 401 306 411 c 0
 306 417 311 421 317 421 c 0
 350 421 349 417 379 417 c 0
 404 417 421 420 444 420 c 0
 462 420 465 417 465 410 c 0
 465 399 438 402 438 386 c 0
 438 376 452 362 463 346 c 0
 496 300 506 283 512 283 c 0
 514 283 516 285 520 290 c 0
 578 364 581 364 581 379 c 0
 581 401 544 397 544 410 c 0
 544 414 544 420 565 420 c 0
 580 420 595 419 615 419 c 0
 630 419 647 421 670 421 c 0
 677 421 686 416 686 410 c 0
 686 395 664 408 618 362 c 0
 579 323 526 268 526 262 c 0
 526 256 530 257 598 174 c 0
 617 151 647 110 686 99 c 0
 693 97 696 97 696 90 c 0
 696 83 694 80 669 80 c 0
 658 80 643 82 622 82 c 0
 604 82 589 80 574 80 c 2
 566 80 l 2
 548 80 538 81 538 88 c 0
 538 98 566 94 566 111 c 0
 566 135 522 175 496 214 c 0
 493 219 491 221 489 221 c 0
 487 221 482 215 480 213 c 0
 446 171 418 148 418 124 c 0
 418 88 456 109 456 87 c 0
 456 82 456 80 423 80 c 0
 409 80 400 82 382 82 c 0
 366 82 352 79 339 79 c 0
 317 79 304 82 304 92 c 0
EndSplineSet
EndChar
StartChar: uF1FC8
Encoding: 991176 991176 1758
Width: 1000
Flags: MW
LayerCount: 2
Back
Fore
SplineSet
721 -192 m 0
 721 -163 919 -65 919 281 c 0
 919 599 724 726 724 753 c 0
 724 766 738 772 744 772 c 0
 777 772 964 558 964 280 c 0
 964 -35 763 -214 742 -214 c 0
 724 -214 721 -203 721 -192 c 0
34 278 m 0
 34 593 235 772 256 772 c 0
 274 772 277 762 277 751 c 0
 277 722 79 623 79 277 c 0
 79 -41 274 -168 274 -195 c 0
 274 -208 260 -214 254 -214 c 0
 221 -214 34 0 34 278 c 0
316 486 m 0
 316 493 327 496 332 496 c 0
 375 496 384 494 418 494 c 0
 444 494 441 496 463 496 c 0
 471 496 478 491 478 487 c 0
 478 474 470 472 458 472 c 2
 447 472 l 2
 435 472 434 459 434 450 c 0
 434 430 444 411 482 325 c 0
 499 289 517 240 524 240 c 0
 530 240 594 416 594 443 c 0
 594 491 545 461 545 487 c 0
 545 490 545 496 559 496 c 0
 581 496 603 496 617 496 c 0
 631 496 660 496 666 496 c 0
 677 496 684 492 684 486 c 0
 684 472 660 478 650 464 c 0
 641 451 623 407 607 364 c 2
 537 174 l 2
 491 52 478 4 466 4 c 0
 462 4 466 4 430 4 c 0
 425 4 414 5 414 14 c 0
 414 23 487 92 487 154 c 0
 487 189 391 385 362 439 c 0
 336 488 316 465 316 486 c 0
EndSplineSet
EndChar
StartChar: uF1FC9
Encoding: 991177 991177 1759
Width: 1000
Flags: MW
LayerCount: 2
Back
Fore
SplineSet
721 -192 m 0
 721 -163 919 -65 919 281 c 0
 919 599 724 726 724 753 c 0
 724 766 738 772 744 772 c 0
 777 772 964 558 964 280 c 0
 964 -35 763 -214 742 -214 c 0
 724 -214 721 -203 721 -192 c 0
34 278 m 0
 34 593 235 772 256 772 c 0
 274 772 277 762 277 751 c 0
 277 722 79 623 79 277 c 0
 79 -41 274 -168 274 -195 c 0
 274 -208 260 -214 254 -214 c 0
 221 -214 34 0 34 278 c 0
377 92 m 0
 377 106 381 107 404 141 c 0
 447 203 550 352 550 364 c 0
 550 366 542 368 532 368 c 0
 515 368 456 364 434 363 c 0
 401 361 396 317 385 317 c 0
 383 317 378 319 378 326 c 0
 378 359 386 390 388 406 c 0
 389 414 396 420 404 420 c 0
 413 420 439 418 490 418 c 0
 537 418 572 420 607 420 c 0
 612 420 617 417 617 412 c 0
 617 399 600 385 594 376 c 0
 509 243 439 160 439 138 c 0
 439 132 458 131 478 131 c 0
 493 131 509 132 518 132 c 0
 592 132 588 159 598 180 c 0
 601 186 603 192 610 192 c 0
 615 192 624 188 624 180 c 0
 624 179 612 150 604 132 c 0
 595 112 595 81 580 81 c 2
 489 81 l 2
 477 81 452 80 430 80 c 2
 417 80 l 2
 394 80 396 80 391 80 c 0
 383 80 377 83 377 92 c 0
EndSplineSet
EndChar
StartChar: uF2020
Encoding: 991264 991264 0
Width: 1000
Flags: MW
LayerCount: 2
Back
Fore
SplineSet
980 284 m 256
 980 151 933 37 840 -56 c 0
 747 -149 633 -196 500 -196 c 256
 367 -196 253 -149 160 -56 c 0
 67 37 20 151 20 284 c 256
 20 417 67 530 160 624 c 0
 253 718 367 765 500 765 c 256
 633 765 747 718 840 624 c 0
 933 530 980 417 980 284 c 256
932 284 m 256
 932 404 890 506 806 590 c 0
 722 674 620 716 500 716 c 0
 380 716 278 674 194 590 c 0
 110 506 68 404 68 284 c 256
 68 164 110 62 194 -22 c 0
 278 -106 380 -147 500 -147 c 0
 620 -147 722 -106 806 -22 c 0
 890 62 932 164 932 284 c 256
257 278 m 0
 257 472 379 589 518 589 c 0
 669 589 743 463 743 309 c 0
 743 148 661 9 495 9 c 0
 309 9 257 140 257 278 c 0
305 332 m 0
 305 195 389 41 526 41 c 0
 643 41 698 152 698 269 c 0
 698 401 624 541 482 541 c 0
 357 541 305 442 305 332 c 0
EndSplineSet
EndChar
StartChar: uF2023
Encoding: 991267 991267 1783
Width: 1000
Flags: MW
LayerCount: 2
Back
Fore
SplineSet
721 -192 m 0
 721 -163 919 -65 919 281 c 0
 919 599 724 726 724 753 c 0
 724 766 738 772 744 772 c 0
 777 772 964 558 964 280 c 0
 964 -35 763 -214 742 -214 c 0
 724 -214 721 -203 721 -192 c 0
34 278 m 0
 34 593 235 772 256 772 c 0
 274 772 277 762 277 751 c 0
 277 722 79 623 79 277 c 0
 79 -41 274 -168 274 -195 c 0
 274 -208 260 -214 254 -214 c 0
 221 -214 34 0 34 278 c 0
257 278 m 0
 257 472 379 589 518 589 c 0
 669 589 743 463 743 309 c 0
 743 148 661 9 495 9 c 0
 309 9 257 140 257 278 c 0
305 332 m 0
 305 195 389 41 526 41 c 0
 643 41 698 152 698 269 c 0
 698 401 624 541 482 541 c 0
 357 541 305 442 305 332 c 0
EndSplineSet
EndChar
StartChar: uF205F
Encoding: 991327 991327 329
Width: 1000
Flags: MW
LayerCount: 2
Back
Fore
SplineSet
980 284 m 256
 980 151 933 37 840 -56 c 0
 747 -149 633 -196 500 -196 c 256
 367 -196 253 -149 160 -56 c 0
 67 37 20 151 20 284 c 256
 20 417 67 530 160 624 c 0
 253 718 367 765 500 765 c 256
 633 765 747 718 840 624 c 0
 933 530 980 417 980 284 c 256
268 31 m 2
 268 25 270 21 308 21 c 0
 341 21 418 23 447 23 c 0
 501 23 506 21 636 21 c 0
 645 21 655 24 665 35 c 2
 665 35 732 125 732 131 c 0
 732 135 729 139 721 139 c 0
 706 139 681 106 649 95 c 0
 622 85 651 84 478 84 c 0
 446 84 396 86 396 94 c 0
 396 110 655 340 655 484 c 0
 655 561 566 597 484 597 c 0
 341 597 279 510 279 502 c 0
 279 496 283 491 289 491 c 0
 313 491 345 542 463 542 c 0
 540 542 588 509 588 465 c 0
 588 418 566 362 535 316 c 0
 393 111 268 59 268 34 c 2
 268 31 l 2
EndSplineSet
EndChar
StartChar: uF2060
Encoding: 991328 991328 330
Width: 1000
Flags: MW
LayerCount: 2
Back
Fore
SplineSet
980 284 m 256
 980 151 933 37 840 -56 c 0
 747 -149 633 -196 500 -196 c 256
 367 -196 253 -149 160 -56 c 0
 67 37 20 151 20 284 c 256
 20 417 67 530 160 624 c 0
 253 718 367 765 500 765 c 256
 633 765 747 718 840 624 c 0
 933 530 980 417 980 284 c 256
272 56 m 0
 272 30 362 0 446 0 c 0
 596 0 728 94 728 224 c 0
 728 274 706 308 673 332 c 0
 639 358 605 354 605 360 c 0
 605 364 610 368 618 375 c 0
 656 409 690 435 690 493 c 0
 690 558 607 587 525 587 c 0
 446 587 335 536 335 498 c 0
 335 494 335 491 345 491 c 0
 369 491 431 539 514 539 c 0
 580 539 629 504 629 463 c 0
 629 430 600 393 550 368 c 0
 464 326 446 329 446 319 c 0
 446 314 449 307 462 307 c 0
 465 307 475 310 498 310 c 0
 625 310 661 251 661 193 c 0
 661 139 602 32 446 32 c 0
 340 32 316 69 298 69 c 0
 276 69 272 59 272 56 c 0
EndSplineSet
EndChar
StartChar: uF2061
Encoding: 991329 991329 331
Width: 1000
Flags: MW
LayerCount: 2
Back
Fore
SplineSet
980 284 m 256
 980 151 933 37 840 -56 c 0
 747 -149 633 -196 500 -196 c 256
 367 -196 253 -149 160 -56 c 0
 67 37 20 151 20 284 c 256
 20 417 67 530 160 624 c 0
 253 718 367 765 500 765 c 256
 633 765 747 718 840 624 c 0
 933 530 980 417 980 284 c 256
255 190 m 0
 255 178 264 178 286 178 c 0
 320 178 359 179 403 179 c 2
 539 179 l 2
 545 179 551 179 551 174 c 0
 551 -5 538 -30 538 -38 c 0
 538 -44 542 -60 555 -60 c 0
 558 -60 571 -58 582 -55 c 0
 611 -46 611 -53 611 -13 c 0
 611 9 610 -6 610 58 c 0
 610 108 609 135 609 164 c 0
 609 175 615 180 630 180 c 0
 647 180 682 178 701 178 c 0
 726 178 730 208 732 214 c 0
 738 228 745 240 745 250 c 0
 745 260 733 262 730 262 c 0
 704 262 709 236 626 236 c 0
 610 236 610 239 610 256 c 0
 610 294 625 559 625 564 c 0
 625 575 616 580 607 580 c 0
 585 580 556 540 526 506 c 0
 266 222 255 210 255 190 c 0
335 241 m 0
 335 260 542 458 550 458 c 0
 553 458 555 450 555 435 c 4
 555 385 552 256 552 250 c 4
 552 236 552 234 518 234 c 2
 369 234 l 2
 350 234 335 235 335 241 c 0
EndSplineSet
EndChar
StartChar: uF2062
Encoding: 991330 991330 332
Width: 1000
Flags: MW
LayerCount: 2
Back
Fore
SplineSet
980 284 m 256
 980 151 933 37 840 -56 c 0
 747 -149 633 -196 500 -196 c 256
 367 -196 253 -149 160 -56 c 0
 67 37 20 151 20 284 c 256
 20 417 67 530 160 624 c 0
 253 718 367 765 500 765 c 256
 633 765 747 718 840 624 c 0
 933 530 980 417 980 284 c 256
287 32 m 0
 287 5 385 -4 437 -4 c 0
 563 -4 713 71 713 228 c 0
 713 258 695 300 656 332 c 0
 622 360 561 380 494 380 c 0
 422 380 404 373 401 373 c 0
 398 373 393 379 393 385 c 0
 393 403 409 479 419 496 c 0
 422 501 480 509 562 509 c 0
 591 509 626 508 634 508 c 0
 658 508 658 514 702 580 c 0
 704 584 706 589 706 592 c 0
 706 596 701 600 694 600 c 0
 681 600 677 590 659 580 c 0
 638 568 631 570 432 568 c 0
 409 568 400 559 398 548 c 0
 378 437 353 351 353 332 c 0
 353 326 357 312 379 312 c 0
 397 312 406 319 478 319 c 0
 595 319 647 262 647 197 c 0
 647 105 561 26 430 26 c 0
 340 26 324 44 302 44 c 0
 294 44 287 40 287 32 c 0
EndSplineSet
EndChar
StartChar: uF2063
Encoding: 991331 991331 333
Width: 1000
Flags: MW
LayerCount: 2
Back
Fore
SplineSet
980 284 m 256
 980 151 933 37 840 -56 c 0
 747 -149 633 -196 500 -196 c 256
 367 -196 253 -149 160 -56 c 0
 67 37 20 151 20 284 c 256
 20 417 67 530 160 624 c 0
 253 718 367 765 500 765 c 256
 633 765 747 718 840 624 c 0
 933 530 980 417 980 284 c 256
270 218 m 0
 270 114 341 58 387 31 c 0
 432 5 485 2 507 2 c 0
 631 2 730 90 730 203 c 0
 730 308 640 378 527 378 c 0
 412 378 376 322 365 322 c 0
 362 322 360 325 360 330 c 0
 360 356 408 444 519 510 c 0
 642 584 712 563 712 585 c 0
 712 591 708 598 694 598 c 0
 622 598 270 493 270 218 c 0
338 211 m 0
 338 237 341 252 346 270 c 0
 358 311 438 342 488 342 c 0
 608 342 674 252 674 169 c 0
 674 100 629 36 533 36 c 0
 376 36 338 165 338 211 c 0
EndSplineSet
EndChar
StartChar: uF2064
Encoding: 991332 991332 334
Width: 1000
Flags: MW
LayerCount: 2
Back
Fore
SplineSet
980 284 m 256
 980 151 933 37 840 -56 c 0
 747 -149 633 -196 500 -196 c 256
 367 -196 253 -149 160 -56 c 0
 67 37 20 151 20 284 c 256
 20 417 67 530 160 624 c 0
 253 718 367 765 500 765 c 256
 633 765 747 718 840 624 c 0
 933 530 980 417 980 284 c 256
311 460 m 0
 311 442 314 428 321 428 c 0
 328 428 334 445 337 456 c 0
 347 482 364 503 445 503 c 0
 460 503 459 502 478 502 c 0
 528 502 591 504 604 504 c 0
 611 504 619 503 625 503 c 0
 639 503 646 495 646 492 c 0
 646 480 637 454 622 420 c 0
 578 324 431 147 431 23 c 0
 431 -40 451 -48 475 -48 c 0
 482 -48 530 -42 530 -23 c 0
 530 -9 505 3 505 68 c 0
 505 196 689 431 689 546 c 0
 689 556 677 563 662 563 c 0
 644 563 636 561 546 561 c 2
 514 561 l 2
 384 561 382 564 350 564 c 0
 345 564 335 562 334 555 c 0
 328 525 311 490 311 460 c 0
EndSplineSet
EndChar
StartChar: uF2065
Encoding: 991333 991333 335
Width: 1000
Flags: MW
LayerCount: 2
Back
Fore
SplineSet
980 284 m 256
 980 151 933 37 840 -56 c 0
 747 -149 633 -196 500 -196 c 256
 367 -196 253 -149 160 -56 c 0
 67 37 20 151 20 284 c 256
 20 417 67 530 160 624 c 0
 253 718 367 765 500 765 c 256
 633 765 747 718 840 624 c 0
 933 530 980 417 980 284 c 256
280 164 m 0
 280 58 378 2 496 2 c 0
 674 2 720 110 720 176 c 0
 720 297 582 327 582 337 c 0
 582 343 701 347 701 458 c 0
 701 511 663 587 510 587 c 0
 403 587 306 534 306 438 c 0
 306 348 395 326 395 318 c 0
 395 313 280 282 280 164 c 0
326 187 m 0
 326 252 400 300 442 300 c 0
 464 300 546 280 614 239 c 0
 642 222 667 191 667 158 c 0
 667 73 596 33 518 33 c 0
 425 33 326 88 326 187 c 0
357 457 m 0
 357 536 440 556 502 556 c 0
 617 556 654 487 654 453 c 0
 654 381 587 353 541 353 c 0
 519 353 357 371 357 457 c 0
EndSplineSet
EndChar
StartChar: uF2066
Encoding: 991334 991334 336
Width: 1000
Flags: MW
LayerCount: 2
Back
Fore
SplineSet
980 284 m 256
 980 151 933 37 840 -56 c 0
 747 -149 633 -196 500 -196 c 256
 367 -196 253 -149 160 -56 c 0
 67 37 20 151 20 284 c 256
 20 417 67 530 160 624 c 0
 253 718 367 765 500 765 c 256
 633 765 747 718 840 624 c 0
 933 530 980 417 980 284 c 256
272 388 m 0
 272 298 343 210 486 210 c 0
 564 210 614 256 624 256 c 0
 626 256 629 256 629 252 c 0
 629 237 583 155 526 113 c 0
 455 61 373 27 307 17 c 0
 290 15 290 8 290 5 c 0
 290 1 291 -5 307 -5 c 0
 352 -5 447 19 531 67 c 0
 665 143 728 268 728 371 c 0
 728 489 634 586 495 586 c 0
 358 586 272 491 272 388 c 0
331 429 m 0
 331 493 375 550 476 550 c 0
 594 550 659 453 659 379 c 0
 659 311 618 249 506 249 c 0
 403 249 331 346 331 429 c 0
EndSplineSet
EndChar
StartChar: uF269C
Encoding: 992924 992924 1784
Width: 1000
Flags: MW
LayerCount: 2
Back
Fore
SplineSet
721 -192 m 0
 721 -163 919 -65 919 281 c 0
 919 599 724 726 724 753 c 0
 724 766 738 772 744 772 c 0
 777 772 964 558 964 280 c 0
 964 -35 763 -214 742 -214 c 0
 724 -214 721 -203 721 -192 c 0
34 278 m 0
 34 593 235 772 256 772 c 0
 274 772 277 762 277 751 c 0
 277 722 79 623 79 277 c 0
 79 -41 274 -168 274 -195 c 0
 274 -208 260 -214 254 -214 c 0
 221 -214 34 0 34 278 c 0
123 278 m 0
 123 472 210 589 312 589 c 0
 422 589 477 463 477 309 c 0
 477 148 417 9 296 9 c 0
 161 9 123 140 123 278 c 0
171 332 m 0
 171 195 226 41 317 41 c 0
 395 41 433 152 433 269 c 0
 433 401 384 541 289 541 c 0
 206 541 171 442 171 332 c 0
523 278 m 0
 523 472 610 589 712 589 c 0
 822 589 877 463 877 309 c 0
 877 148 817 9 696 9 c 0
 561 9 523 140 523 278 c 0
571 332 m 0
 571 195 626 41 717 41 c 0
 795 41 833 152 833 269 c 0
 833 401 784 541 689 541 c 0
 606 541 571 442 571 332 c 0
EndSplineSet
EndChar
StartChar: uF269D
Encoding: 992925 992925 1785
Width: 1000
Flags: MW
LayerCount: 2
Back
Fore
SplineSet
721 -192 m 0
 721 -163 919 -65 919 281 c 0
 919 599 724 726 724 753 c 0
 724 766 738 772 744 772 c 0
 777 772 964 558 964 280 c 0
 964 -35 763 -214 742 -214 c 0
 724 -214 721 -203 721 -192 c 0
34 278 m 0
 34 593 235 772 256 772 c 0
 274 772 277 762 277 751 c 0
 277 722 79 623 79 277 c 0
 79 -41 274 -168 274 -195 c 0
 274 -208 260 -214 254 -214 c 0
 221 -214 34 0 34 278 c 0
162 279 m 0
 162 473 249 590 351 590 c 0
 461 590 516 464 516 310 c 0
 516 149 456 9 335 9 c 0
 200 9 162 141 162 279 c 0
210 333 m 0
 210 196 265 42 356 42 c 0
 434 42 472 152 472 269 c 0
 472 401 423 542 328 542 c 0
 245 542 210 443 210 333 c 0
597 509 m 0
 597 518 606 525 620 531 c 0
 643 541 651 536 693 558 c 0
 721 573 734 597 746 597 c 0
 758 597 758 584 758 578 c 0
 758 572 751 546 751 537 c 0
 749 503 746 434 746 272 c 0
 746 191 744 144 744 115 c 0
 744 8 838 68 838 33 c 0
 838 23 826 21 812 21 c 2
 718 21 l 2
 684 21 647 19 625 19 c 0
 611 19 602 22 602 32 c 0
 602 44 615 47 628 47 c 2
 637 47 l 2
 678 47 678 75 678 79 c 0
 684 129 686 216 686 297 c 2
 686 460 l 2
 686 490 683 509 659 509 c 0
 637 509 616 497 606 497 c 0
 604 497 597 500 597 509 c 0
EndSplineSet
EndChar
StartChar: uF269E
Encoding: 992926 992926 1786
Width: 1000
Flags: MW
LayerCount: 2
Back
Fore
SplineSet
721 -192 m 0
 721 -163 919 -65 919 281 c 0
 919 599 724 726 724 753 c 0
 724 766 738 772 744 772 c 0
 777 772 964 558 964 280 c 0
 964 -35 763 -214 742 -214 c 0
 724 -214 721 -203 721 -192 c 0
34 278 m 0
 34 593 235 772 256 772 c 0
 274 772 277 762 277 751 c 0
 277 722 79 623 79 277 c 0
 79 -41 274 -168 274 -195 c 0
 274 -208 260 -214 254 -214 c 0
 221 -214 34 0 34 278 c 0
124 279 m 0
 124 473 212 590 314 590 c 0
 424 590 479 464 479 310 c 0
 479 149 419 9 298 9 c 0
 163 9 124 141 124 279 c 0
172 332 m 0
 172 195 228 42 319 42 c 0
 397 42 435 152 435 269 c 0
 435 401 386 542 291 542 c 0
 208 542 172 442 172 332 c 0
544 31 m 2
 544 33 l 2
 544 58 628 111 722 316 c 0
 743 362 757 417 757 464 c 0
 757 508 725 541 674 541 c 0
 596 541 573 490 557 490 c 0
 553 490 551 495 551 501 c 0
 551 509 596 596 700 596 c 0
 759 596 824 560 824 483 c 0
 824 339 629 108 629 92 c 0
 629 84 665 83 688 83 c 0
 814 83 795 84 815 94 c 0
 838 105 856 138 867 138 c 0
 873 138 876 134 876 130 c 0
 876 124 820 34 820 34 c 2
 812 23 803 20 796 20 c 0
 705 20 702 22 664 22 c 0
 645 22 592 20 570 20 c 0
 544 20 544 25 544 31 c 2
EndSplineSet
EndChar
StartChar: uF269F
Encoding: 992927 992927 1787
Width: 1000
Flags: MW
LayerCount: 2
Back
Fore
SplineSet
721 -192 m 0
 721 -163 919 -65 919 281 c 0
 919 599 724 726 724 753 c 0
 724 766 738 772 744 772 c 0
 777 772 964 558 964 280 c 0
 964 -35 763 -214 742 -214 c 0
 724 -214 721 -203 721 -192 c 0
34 278 m 0
 34 593 235 772 256 772 c 0
 274 772 277 762 277 751 c 0
 277 722 79 623 79 277 c 0
 79 -41 274 -168 274 -195 c 0
 274 -208 260 -214 254 -214 c 0
 221 -214 34 0 34 278 c 0
130 277 m 0
 130 471 217 589 319 589 c 0
 429 589 484 463 484 309 c 0
 484 148 424 8 303 8 c 0
 168 8 130 139 130 277 c 0
178 331 m 0
 178 194 233 41 324 41 c 0
 402 41 440 151 440 268 c 0
 440 400 391 541 296 541 c 0
 213 541 178 441 178 331 c 0
544 57 m 0
 544 60 546 69 561 69 c 0
 573 69 590 32 660 32 c 0
 764 32 803 139 803 193 c 0
 803 251 778 311 690 311 c 0
 674 311 668 308 666 308 c 0
 657 308 654 315 654 320 c 0
 654 330 666 327 721 369 c 0
 753 394 771 431 771 464 c 0
 771 505 740 540 698 540 c 0
 645 540 605 492 590 492 c 0
 584 492 584 495 584 499 c 0
 584 537 662 587 717 587 c 0
 775 587 833 558 833 493 c 0
 833 435 802 409 768 375 c 0
 761 368 756 364 756 360 c 0
 756 354 787 358 819 332 c 0
 849 308 870 275 870 225 c 0
 870 95 776 1 669 1 c 0
 609 1 544 31 544 57 c 0
EndSplineSet
EndChar
StartChar: uF26A0
Encoding: 992928 992928 1788
Width: 1000
Flags: MW
LayerCount: 2
Back
Fore
SplineSet
721 -192 m 0
 721 -163 919 -65 919 281 c 0
 919 599 724 726 724 753 c 0
 724 766 738 772 744 772 c 0
 777 772 964 558 964 280 c 0
 964 -35 763 -214 742 -214 c 0
 724 -214 721 -203 721 -192 c 0
34 278 m 0
 34 593 235 772 256 772 c 0
 274 772 277 762 277 751 c 0
 277 722 79 623 79 277 c 0
 79 -41 274 -168 274 -195 c 0
 274 -208 260 -214 254 -214 c 0
 221 -214 34 0 34 278 c 0
119 271 m 0
 119 465 207 582 309 582 c 0
 419 582 474 456 474 302 c 0
 474 141 414 1 293 1 c 0
 158 1 119 133 119 271 c 0
167 324 m 0
 167 187 223 34 314 34 c 0
 392 34 430 144 430 261 c 0
 430 393 381 534 286 534 c 0
 203 534 167 434 167 324 c 0
511 192 m 0
 511 212 520 223 724 506 c 0
 748 540 770 580 787 580 c 0
 794 580 801 575 801 564 c 0
 801 559 791 294 791 256 c 0
 791 239 792 236 802 236 c 0
 857 236 853 262 871 262 c 0
 873 262 881 261 881 251 c 0
 881 241 876 230 872 216 c 0
 870 210 868 179 851 179 c 0
 838 179 815 181 804 181 c 0
 794 181 790 176 790 165 c 0
 790 136 791 109 791 59 c 0
 791 -5 792 10 792 -12 c 0
 792 -52 791 -45 762 -54 c 0
 751 -57 739 -59 736 -59 c 0
 723 -59 718 -43 718 -37 c 0
 718 -29 732 -3 732 176 c 0
 732 181 728 180 723 180 c 2
 622 180 l 2
 589 180 559 179 534 179 c 0
 518 179 511 180 511 192 c 0
582 241 m 0
 582 235 591 234 604 234 c 2
 710 234 l 2
 732 234 733 237 733 251 c 0
 733 257 736 386 736 436 c 0
 736 451 734 460 732 460 c 0
 726 460 582 260 582 241 c 0
EndSplineSet
EndChar
StartChar: uF26A1
Encoding: 992929 992929 1789
Width: 1000
Flags: MW
LayerCount: 2
Back
Fore
SplineSet
721 -192 m 0
 721 -163 919 -65 919 281 c 0
 919 599 724 726 724 753 c 0
 724 766 738 772 744 772 c 0
 777 772 964 558 964 280 c 0
 964 -35 763 -214 742 -214 c 0
 724 -214 721 -203 721 -192 c 0
34 278 m 0
 34 593 235 772 256 772 c 0
 274 772 277 762 277 751 c 0
 277 722 79 623 79 277 c 0
 79 -41 274 -168 274 -195 c 0
 274 -208 260 -214 254 -214 c 0
 221 -214 34 0 34 278 c 0
132 278 m 0
 132 472 219 589 321 589 c 0
 431 589 486 463 486 309 c 0
 486 148 426 8 305 8 c 0
 170 8 132 140 132 278 c 0
180 332 m 0
 180 195 235 41 326 41 c 0
 404 41 442 151 442 268 c 0
 442 400 393 541 298 541 c 0
 215 541 180 442 180 332 c 0
550 32 m 0
 550 40 555 44 561 44 c 0
 577 44 588 26 651 26 c 0
 743 26 803 106 803 198 c 0
 803 263 766 320 683 320 c 0
 632 320 625 312 612 312 c 0
 597 312 594 326 594 332 c 0
 594 351 613 437 628 548 c 0
 630 559 636 568 654 568 c 0
 805 570 811 568 827 580 c 0
 841 590 843 600 853 600 c 0
 859 600 863 596 863 592 c 0
 863 589 862 584 860 580 c 0
 828 515 828 509 810 509 c 0
 804 509 778 510 757 510 c 0
 697 510 655 502 653 497 c 0
 646 480 634 403 634 385 c 0
 634 379 638 373 640 373 c 0
 642 373 655 380 708 380 c 0
 758 380 802 360 827 332 c 0
 856 300 868 258 868 228 c 0
 868 71 756 -4 662 -4 c 0
 623 -4 550 6 550 32 c 0
EndSplineSet
EndChar
StartChar: uF26A2
Encoding: 992930 992930 1790
Width: 1000
Flags: MW
LayerCount: 2
Back
Fore
SplineSet
721 -192 m 0
 721 -163 919 -65 919 281 c 0
 919 599 724 726 724 753 c 0
 724 766 738 772 744 772 c 0
 777 772 964 558 964 280 c 0
 964 -35 763 -214 742 -214 c 0
 724 -214 721 -203 721 -192 c 0
34 278 m 0
 34 593 235 772 256 772 c 0
 274 772 277 762 277 751 c 0
 277 722 79 623 79 277 c 0
 79 -41 274 -168 274 -195 c 0
 274 -208 260 -214 254 -214 c 0
 221 -214 34 0 34 278 c 0
125 279 m 0
 125 473 212 590 314 590 c 0
 424 590 479 464 479 310 c 0
 479 149 419 9 298 9 c 0
 163 9 125 141 125 279 c 0
173 332 m 0
 173 195 228 42 319 42 c 0
 397 42 435 152 435 269 c 0
 435 401 386 542 291 542 c 0
 208 542 173 442 173 332 c 0
529 219 m 0
 529 494 790 599 844 599 c 0
 854 599 858 591 858 585 c 0
 858 563 808 584 722 510 c 0
 644 444 610 357 610 331 c 0
 610 326 612 323 614 323 c 0
 622 323 648 379 730 379 c 0
 811 379 875 308 875 203 c 0
 875 90 801 3 707 3 c 0
 690 3 651 6 617 32 c 0
 583 59 529 115 529 219 c 0
595 212 m 0
 595 166 621 36 726 36 c 0
 790 36 819 100 819 169 c 0
 819 252 776 343 696 343 c 0
 662 343 609 312 601 271 c 0
 598 253 595 238 595 212 c 0
EndSplineSet
EndChar
StartChar: uF26A3
Encoding: 992931 992931 1791
Width: 1000
Flags: MW
LayerCount: 2
Back
Fore
SplineSet
721 -192 m 0
 721 -163 919 -65 919 281 c 0
 919 599 724 726 724 753 c 0
 724 766 738 772 744 772 c 0
 777 772 964 558 964 280 c 0
 964 -35 763 -214 742 -214 c 0
 724 -214 721 -203 721 -192 c 0
34 278 m 0
 34 593 235 772 256 772 c 0
 274 772 277 762 277 751 c 0
 277 722 79 623 79 277 c 0
 79 -41 274 -168 274 -195 c 0
 274 -208 260 -214 254 -214 c 0
 221 -214 34 0 34 278 c 0
137 272 m 0
 137 466 224 584 326 584 c 0
 436 584 491 458 491 304 c 0
 491 143 431 3 310 3 c 0
 175 3 137 134 137 272 c 0
185 326 m 0
 185 189 240 36 331 36 c 0
 409 36 447 146 447 263 c 0
 447 395 398 536 303 536 c 0
 220 536 185 436 185 326 c 0
565 464 m 0
 565 494 578 527 583 557 c 0
 584 564 592 567 596 567 c 0
 622 567 623 564 726 564 c 2
 750 564 l 2
 821 564 828 565 842 565 c 0
 854 565 863 558 863 548 c 0
 863 433 726 200 726 72 c 0
 726 7 743 -6 743 -20 c 0
 743 -39 700 -44 694 -44 c 0
 672 -44 654 -37 654 26 c 0
 654 150 768 328 802 424 c 0
 814 458 821 484 821 496 c 0
 821 499 815 506 805 506 c 0
 801 506 796 507 790 507 c 0
 780 507 733 505 695 505 c 0
 681 505 682 506 671 506 c 0
 611 506 598 485 590 459 c 0
 587 448 582 432 575 432 c 0
 568 432 565 446 565 464 c 0
EndSplineSet
EndChar
StartChar: uF26A4
Encoding: 992932 992932 1792
Width: 1000
Flags: MW
LayerCount: 2
Back
Fore
SplineSet
721 -192 m 0
 721 -163 919 -65 919 281 c 0
 919 599 724 726 724 753 c 0
 724 766 738 772 744 772 c 0
 777 772 964 558 964 280 c 0
 964 -35 763 -214 742 -214 c 0
 724 -214 721 -203 721 -192 c 0
34 278 m 0
 34 593 235 772 256 772 c 0
 274 772 277 762 277 751 c 0
 277 722 79 623 79 277 c 0
 79 -41 274 -168 274 -195 c 0
 274 -208 260 -214 254 -214 c 0
 221 -214 34 0 34 278 c 0
126 278 m 0
 126 472 214 589 316 589 c 0
 426 589 481 463 481 309 c 0
 481 148 421 8 300 8 c 0
 165 8 126 140 126 278 c 0
174 331 m 0
 174 194 230 41 321 41 c 0
 399 41 437 151 437 268 c 0
 437 400 388 541 293 541 c 0
 210 541 174 441 174 331 c 0
534 165 m 0
 534 283 635 313 635 318 c 0
 635 326 558 348 558 438 c 0
 558 534 632 587 712 587 c 0
 826 587 854 511 854 458 c 0
 854 347 760 344 760 338 c 0
 760 328 874 298 874 177 c 0
 874 111 839 3 701 3 c 0
 610 3 534 59 534 165 c 0
579 188 m 0
 579 89 650 34 716 34 c 0
 771 34 822 73 822 158 c 0
 822 191 803 223 783 240 c 0
 735 281 677 301 662 301 c 0
 632 301 579 253 579 188 c 0
610 458 m 0
 610 372 719 354 733 354 c 0
 763 354 808 382 808 454 c 0
 808 488 784 557 707 557 c 0
 665 557 610 537 610 458 c 0
EndSplineSet
EndChar
StartChar: uF26A5
Encoding: 992933 992933 1793
Width: 1000
Flags: MW
LayerCount: 2
Back
Fore
SplineSet
721 -192 m 0
 721 -163 919 -65 919 281 c 0
 919 599 724 726 724 753 c 0
 724 766 738 772 744 772 c 0
 777 772 964 558 964 280 c 0
 964 -35 763 -214 742 -214 c 0
 724 -214 721 -203 721 -192 c 0
34 278 m 0
 34 593 235 772 256 772 c 0
 274 772 277 762 277 751 c 0
 277 722 79 623 79 277 c 0
 79 -41 274 -168 274 -195 c 0
 274 -208 260 -214 254 -214 c 0
 221 -214 34 0 34 278 c 0
121 277 m 0
 121 471 208 588 310 588 c 0
 420 588 475 462 475 308 c 0
 475 147 415 7 294 7 c 0
 159 7 121 139 121 277 c 0
169 330 m 0
 169 193 224 40 315 40 c 0
 393 40 431 150 431 267 c 0
 431 399 382 540 287 540 c 0
 204 540 169 440 169 330 c 0
533 390 m 0
 533 493 598 586 702 586 c 0
 808 586 879 489 879 371 c 0
 879 268 832 144 732 68 c 0
 669 20 598 -4 564 -4 c 0
 552 -4 551 2 551 6 c 0
 551 9 551 16 563 18 c 0
 609 28 668 62 718 114 c 0
 758 156 790 237 790 252 c 0
 790 256 789 257 787 257 c 0
 780 257 744 211 688 211 c 0
 585 211 533 300 533 390 c 0
592 430 m 0
 592 347 640 250 709 250 c 0
 783 250 810 311 810 379 c 0
 810 453 767 551 689 551 c 0
 622 551 592 494 592 430 c 0
EndSplineSet
EndChar
StartChar: uF26A6
Encoding: 992934 992934 1794
Width: 1000
Flags: MW
LayerCount: 2
Back
Fore
SplineSet
721 -192 m 0
 721 -163 919 -65 919 281 c 0
 919 599 724 726 724 753 c 0
 724 766 738 772 744 772 c 0
 777 772 964 558 964 280 c 0
 964 -35 763 -214 742 -214 c 0
 724 -214 721 -203 721 -192 c 0
34 278 m 0
 34 593 235 772 256 772 c 0
 274 772 277 762 277 751 c 0
 277 722 79 623 79 277 c 0
 79 -41 274 -168 274 -195 c 0
 274 -208 260 -214 254 -214 c 0
 221 -214 34 0 34 278 c 0
171 32 m 2
 171 35 l 2
 171 60 256 112 350 317 c 0
 371 363 385 419 385 466 c 0
 385 510 353 543 302 543 c 0
 224 543 201 491 185 491 c 0
 181 491 178 497 178 503 c 0
 178 511 224 597 328 597 c 0
 387 597 452 561 452 484 c 0
 452 340 257 110 257 94 c 0
 257 86 293 84 316 84 c 0
 442 84 422 85 442 95 c 0
 465 106 483 139 494 139 c 0
 500 139 503 135 503 131 c 0
 503 125 447 35 447 35 c 2
 439 24 431 22 424 22 c 0
 333 22 329 23 291 23 c 0
 272 23 220 22 198 22 c 0
 172 22 171 26 171 32 c 2
587 511 m 0
 587 520 596 526 610 532 c 0
 633 542 641 537 683 559 c 0
 711 574 724 598 736 598 c 0
 748 598 749 585 749 579 c 0
 749 573 742 548 742 539 c 0
 740 505 737 435 737 273 c 0
 737 192 734 145 734 116 c 0
 734 9 829 69 829 34 c 0
 829 24 816 23 802 23 c 2
 708 23 l 2
 674 23 637 20 615 20 c 0
 601 20 593 23 593 33 c 0
 593 45 605 48 618 48 c 2
 627 48 l 2
 668 48 668 76 668 80 c 0
 674 130 677 218 677 299 c 2
 677 461 l 2
 677 491 674 511 650 511 c 0
 628 511 606 499 596 499 c 0
 594 499 587 502 587 511 c 0
EndSplineSet
EndChar
StartChar: uF26A7
Encoding: 992935 992935 1795
Width: 1000
Flags: MW
LayerCount: 2
Back
Fore
SplineSet
721 -192 m 0
 721 -163 919 -65 919 281 c 0
 919 599 724 726 724 753 c 0
 724 766 738 772 744 772 c 0
 777 772 964 558 964 280 c 0
 964 -35 763 -214 742 -214 c 0
 724 -214 721 -203 721 -192 c 0
34 278 m 0
 34 593 235 772 256 772 c 0
 274 772 277 762 277 751 c 0
 277 722 79 623 79 277 c 0
 79 -41 274 -168 274 -195 c 0
 274 -208 260 -214 254 -214 c 0
 221 -214 34 0 34 278 c 0
134 32 m 2
 134 35 l 2
 134 60 218 112 312 317 c 0
 333 363 348 419 348 466 c 0
 348 510 315 543 264 543 c 0
 186 543 164 492 148 492 c 0
 144 492 141 497 141 503 c 0
 141 511 187 597 291 597 c 0
 350 597 415 561 415 484 c 0
 415 340 220 110 220 94 c 0
 220 86 256 84 279 84 c 0
 405 84 385 86 405 96 c 0
 428 107 446 140 457 140 c 0
 463 140 466 136 466 132 c 0
 466 126 410 36 410 36 c 2
 402 25 394 22 387 22 c 0
 296 22 292 24 254 24 c 0
 235 24 182 22 160 22 c 0
 134 22 134 26 134 32 c 2
534 32 m 2
 534 35 l 2
 534 60 618 112 712 317 c 0
 733 363 748 419 748 466 c 0
 748 510 715 543 664 543 c 0
 586 543 564 492 548 492 c 0
 544 492 541 497 541 503 c 0
 541 511 587 597 691 597 c 0
 750 597 815 561 815 484 c 0
 815 340 620 110 620 94 c 0
 620 86 656 84 679 84 c 0
 805 84 785 86 805 96 c 0
 828 107 846 140 857 140 c 0
 863 140 866 136 866 132 c 0
 866 126 810 36 810 36 c 2
 802 25 794 22 787 22 c 0
 696 22 692 24 654 24 c 0
 635 24 582 22 560 22 c 0
 534 22 534 26 534 32 c 2
EndSplineSet
EndChar
StartChar: uF26A8
Encoding: 992936 992936 1796
Width: 1000
Flags: MW
LayerCount: 2
Back
Fore
SplineSet
721 -192 m 0
 721 -163 919 -65 919 281 c 0
 919 599 724 726 724 753 c 0
 724 766 738 772 744 772 c 0
 777 772 964 558 964 280 c 0
 964 -35 763 -214 742 -214 c 0
 724 -214 721 -203 721 -192 c 0
34 278 m 0
 34 593 235 772 256 772 c 0
 274 772 277 762 277 751 c 0
 277 722 79 623 79 277 c 0
 79 -41 274 -168 274 -195 c 0
 274 -208 260 -214 254 -214 c 0
 221 -214 34 0 34 278 c 0
139 30 m 2
 139 32 l 2
 139 57 224 110 318 315 c 0
 339 361 353 417 353 464 c 0
 353 508 321 540 270 540 c 0
 192 540 169 489 153 489 c 0
 149 489 146 494 146 500 c 0
 146 508 192 595 296 595 c 0
 355 595 420 559 420 482 c 0
 420 338 225 108 225 92 c 0
 225 84 261 82 284 82 c 0
 410 82 390 83 410 93 c 0
 433 104 451 137 462 137 c 0
 468 137 471 133 471 129 c 0
 471 123 415 33 415 33 c 2
 407 22 399 20 392 20 c 0
 301 20 297 21 259 21 c 0
 240 21 188 20 166 20 c 0
 140 20 139 24 139 30 c 2
534 57 m 0
 534 60 536 70 551 70 c 0
 563 70 580 32 650 32 c 0
 754 32 794 140 794 194 c 0
 794 252 769 312 681 312 c 0
 665 312 658 308 656 308 c 0
 647 308 645 315 645 320 c 0
 645 330 656 328 711 370 c 0
 743 395 762 431 762 464 c 0
 762 505 730 540 688 540 c 0
 635 540 596 492 581 492 c 0
 575 492 574 496 574 500 c 0
 574 538 652 588 707 588 c 0
 765 588 823 559 823 494 c 0
 823 436 792 410 758 376 c 0
 751 369 746 364 746 360 c 0
 746 354 778 358 810 332 c 0
 840 308 861 276 861 226 c 0
 861 96 766 2 659 2 c 0
 599 2 534 31 534 57 c 0
EndSplineSet
EndChar
StartChar: uF26AA
Encoding: 992938 992938 1798
Width: 1000
Flags: MW
LayerCount: 2
Back
Fore
SplineSet
721 -192 m 0
 721 -163 919 -65 919 281 c 0
 919 599 724 726 724 753 c 0
 724 766 738 772 744 772 c 0
 777 772 964 558 964 280 c 0
 964 -35 763 -214 742 -214 c 0
 724 -214 721 -203 721 -192 c 0
34 278 m 0
 34 593 235 772 256 772 c 0
 274 772 277 762 277 751 c 0
 277 722 79 623 79 277 c 0
 79 -41 274 -168 274 -195 c 0
 274 -208 260 -214 254 -214 c 0
 221 -214 34 0 34 278 c 0
141 30 m 2
 141 32 l 2
 141 57 226 110 320 315 c 0
 341 361 355 417 355 464 c 0
 355 508 323 540 272 540 c 0
 194 540 171 489 155 489 c 0
 151 489 148 494 148 500 c 0
 148 508 194 595 298 595 c 0
 357 595 422 559 422 482 c 0
 422 338 227 108 227 92 c 0
 227 84 263 82 286 82 c 0
 412 82 392 83 412 93 c 0
 435 104 453 137 464 137 c 0
 470 137 473 133 473 129 c 0
 473 123 417 33 417 33 c 2
 409 22 401 20 394 20 c 0
 303 20 299 21 261 21 c 0
 242 21 190 20 168 20 c 0
 142 20 141 24 141 30 c 2
540 32 m 0
 540 40 546 44 552 44 c 0
 568 44 578 26 641 26 c 0
 733 26 793 106 793 198 c 0
 793 263 756 320 673 320 c 0
 622 320 616 312 603 312 c 0
 588 312 584 326 584 332 c 0
 584 351 604 437 619 548 c 0
 621 559 626 568 644 568 c 0
 795 570 801 568 817 580 c 0
 831 590 834 600 844 600 c 0
 850 600 853 596 853 592 c 0
 853 589 852 584 850 580 c 0
 818 515 818 509 800 509 c 0
 794 509 769 510 748 510 c 0
 688 510 646 502 644 497 c 0
 637 480 624 403 624 385 c 0
 624 379 628 373 630 373 c 0
 632 373 645 380 698 380 c 0
 748 380 792 360 817 332 c 0
 846 300 859 258 859 228 c 0
 859 71 746 -4 652 -4 c 0
 613 -4 540 6 540 32 c 0
EndSplineSet
EndChar
StartChar: uF26AB
Encoding: 992939 992939 1799
Width: 1000
Flags: MW
LayerCount: 2
Back
Fore
SplineSet
721 -192 m 0
 721 -163 919 -65 919 281 c 0
 919 599 724 726 724 753 c 0
 724 766 738 772 744 772 c 0
 777 772 964 558 964 280 c 0
 964 -35 763 -214 742 -214 c 0
 724 -214 721 -203 721 -192 c 0
34 278 m 0
 34 593 235 772 256 772 c 0
 274 772 277 762 277 751 c 0
 277 722 79 623 79 277 c 0
 79 -41 274 -168 274 -195 c 0
 274 -208 260 -214 254 -214 c 0
 221 -214 34 0 34 278 c 0
134 31 m 2
 134 33 l 2
 134 58 219 110 313 315 c 0
 334 361 348 417 348 464 c 0
 348 508 316 541 265 541 c 0
 187 541 164 490 148 490 c 0
 144 490 142 495 142 501 c 0
 142 509 187 595 291 595 c 0
 350 595 415 560 415 483 c 0
 415 339 220 108 220 92 c 0
 220 84 256 83 279 83 c 0
 405 83 386 84 406 94 c 0
 429 105 447 138 458 138 c 0
 464 138 466 134 466 130 c 0
 466 124 410 34 410 34 c 2
 402 23 394 20 387 20 c 0
 296 20 292 22 254 22 c 0
 235 22 183 20 161 20 c 0
 135 20 134 25 134 31 c 2
519 219 m 0
 519 494 780 599 834 599 c 0
 844 599 848 591 848 585 c 0
 848 563 799 584 713 510 c 0
 635 444 601 357 601 331 c 0
 601 326 602 323 604 323 c 0
 612 323 639 379 721 379 c 0
 802 379 866 308 866 203 c 0
 866 90 792 3 698 3 c 0
 681 3 641 6 607 32 c 0
 573 59 519 115 519 219 c 0
586 212 m 0
 586 166 611 36 716 36 c 0
 780 36 810 100 810 169 c 0
 810 252 766 343 686 343 c 0
 652 343 599 312 591 271 c 0
 588 253 586 238 586 212 c 0
EndSplineSet
EndChar
StartChar: uF26AC
Encoding: 992940 992940 1800
Width: 1000
Flags: MW
LayerCount: 2
Back
Fore
SplineSet
721 -192 m 0
 721 -163 919 -65 919 281 c 0
 919 599 724 726 724 753 c 0
 724 766 738 772 744 772 c 0
 777 772 964 558 964 280 c 0
 964 -35 763 -214 742 -214 c 0
 724 -214 721 -203 721 -192 c 0
34 278 m 0
 34 593 235 772 256 772 c 0
 274 772 277 762 277 751 c 0
 277 722 79 623 79 277 c 0
 79 -41 274 -168 274 -195 c 0
 274 -208 260 -214 254 -214 c 0
 221 -214 34 0 34 278 c 0
146 25 m 2
 146 27 l 2
 146 52 231 105 325 310 c 0
 346 356 360 412 360 459 c 0
 360 503 328 535 277 535 c 0
 199 535 176 484 160 484 c 0
 156 484 154 489 154 495 c 0
 154 503 199 590 303 590 c 0
 362 590 427 554 427 477 c 0
 427 333 232 103 232 87 c 0
 232 79 268 77 291 77 c 0
 417 77 398 78 418 88 c 0
 441 99 459 132 470 132 c 0
 476 132 478 128 478 124 c 0
 478 118 422 28 422 28 c 2
 414 17 406 15 399 15 c 0
 308 15 304 16 266 16 c 0
 247 16 195 15 173 15 c 0
 147 15 146 19 146 25 c 2
555 464 m 0
 555 494 569 528 574 558 c 0
 575 565 582 567 586 567 c 0
 612 567 613 564 716 564 c 2
 741 564 l 2
 812 564 819 566 833 566 c 0
 845 566 854 559 854 549 c 0
 854 434 717 200 717 72 c 0
 717 7 734 -5 734 -19 c 0
 734 -38 690 -44 684 -44 c 0
 662 -44 644 -36 644 27 c 0
 644 151 759 328 793 424 c 0
 805 458 811 484 811 496 c 0
 811 499 805 507 795 507 c 0
 791 507 786 507 780 507 c 0
 770 507 724 506 686 506 c 0
 672 506 673 507 662 507 c 0
 602 507 589 485 581 459 c 0
 578 448 573 432 566 432 c 0
 559 432 555 446 555 464 c 0
EndSplineSet
EndChar
StartChar: uF26AD
Encoding: 992941 992941 1801
Width: 1000
Flags: MW
LayerCount: 2
Back
Fore
SplineSet
721 -192 m 0
 721 -163 919 -65 919 281 c 0
 919 599 724 726 724 753 c 0
 724 766 738 772 744 772 c 0
 777 772 964 558 964 280 c 0
 964 -35 763 -214 742 -214 c 0
 724 -214 721 -203 721 -192 c 0
34 278 m 0
 34 593 235 772 256 772 c 0
 274 772 277 762 277 751 c 0
 277 722 79 623 79 277 c 0
 79 -41 274 -168 274 -195 c 0
 274 -208 260 -214 254 -214 c 0
 221 -214 34 0 34 278 c 0
136 30 m 2
 136 33 l 2
 136 58 220 110 314 315 c 0
 335 361 350 417 350 464 c 0
 350 508 317 541 266 541 c 0
 188 541 166 490 150 490 c 0
 146 490 143 495 143 501 c 0
 143 509 189 595 293 595 c 0
 352 595 417 559 417 482 c 0
 417 338 222 108 222 92 c 0
 222 84 258 82 281 82 c 0
 407 82 387 84 407 94 c 0
 430 105 448 138 459 138 c 0
 465 138 468 134 468 130 c 0
 468 124 412 34 412 34 c 2
 404 23 396 20 389 20 c 0
 298 20 294 22 256 22 c 0
 237 22 184 20 162 20 c 0
 136 20 136 24 136 30 c 2
524 166 m 0
 524 284 626 314 626 319 c 0
 626 327 549 349 549 439 c 0
 549 535 622 588 702 588 c 0
 816 588 845 512 845 459 c 0
 845 348 750 344 750 338 c 0
 750 328 864 299 864 178 c 0
 864 112 829 4 691 4 c 0
 600 4 524 60 524 166 c 0
570 189 m 0
 570 90 640 34 706 34 c 0
 761 34 812 74 812 159 c 0
 812 192 794 224 774 241 c 0
 726 282 667 302 652 302 c 0
 622 302 570 254 570 189 c 0
600 459 m 0
 600 373 709 354 723 354 c 0
 753 354 798 382 798 454 c 0
 798 488 775 558 698 558 c 0
 656 558 600 538 600 459 c 0
EndSplineSet
EndChar
StartChar: uF26AE
Encoding: 992942 992942 1802
Width: 1000
Flags: MW
LayerCount: 2
Back
Fore
SplineSet
721 -192 m 0
 721 -163 919 -65 919 281 c 0
 919 599 724 726 724 753 c 0
 724 766 738 772 744 772 c 0
 777 772 964 558 964 280 c 0
 964 -35 763 -214 742 -214 c 0
 724 -214 721 -203 721 -192 c 0
34 278 m 0
 34 593 235 772 256 772 c 0
 274 772 277 762 277 751 c 0
 277 722 79 623 79 277 c 0
 79 -41 274 -168 274 -195 c 0
 274 -208 260 -214 254 -214 c 0
 221 -214 34 0 34 278 c 0
130 30 m 2
 130 32 l 2
 130 57 215 109 309 314 c 0
 330 360 344 416 344 463 c 0
 344 507 312 540 261 540 c 0
 183 540 160 489 144 489 c 0
 140 489 138 494 138 500 c 0
 138 508 183 594 287 594 c 0
 346 594 411 559 411 482 c 0
 411 338 216 107 216 91 c 0
 216 83 252 82 275 82 c 0
 401 82 382 83 402 93 c 0
 425 104 443 137 454 137 c 0
 460 137 462 133 462 129 c 0
 462 123 406 33 406 33 c 2
 398 22 390 19 383 19 c 0
 292 19 288 21 250 21 c 0
 231 21 179 19 157 19 c 0
 131 19 130 24 130 30 c 2
523 390 m 0
 523 493 589 587 693 587 c 0
 799 587 870 490 870 372 c 0
 870 269 822 145 722 69 c 0
 659 21 588 -3 554 -3 c 0
 542 -3 542 3 542 7 c 0
 542 10 542 16 554 18 c 0
 600 28 659 62 709 114 c 0
 749 156 781 238 781 253 c 0
 781 257 780 258 778 258 c 0
 771 258 734 212 678 212 c 0
 575 212 523 300 523 390 c 0
582 431 m 0
 582 348 630 250 699 250 c 0
 773 250 801 312 801 380 c 0
 801 454 757 552 679 552 c 0
 612 552 582 495 582 431 c 0
EndSplineSet
EndChar
StartChar: uF26AF
Encoding: 992943 992943 1803
Width: 1000
Flags: MW
LayerCount: 2
Back
Fore
SplineSet
721 -192 m 0
 721 -163 919 -65 919 281 c 0
 919 599 724 726 724 753 c 0
 724 766 738 772 744 772 c 0
 777 772 964 558 964 280 c 0
 964 -35 763 -214 742 -214 c 0
 724 -214 721 -203 721 -192 c 0
34 278 m 0
 34 593 235 772 256 772 c 0
 274 772 277 762 277 751 c 0
 277 722 79 623 79 277 c 0
 79 -41 274 -168 274 -195 c 0
 274 -208 260 -214 254 -214 c 0
 221 -214 34 0 34 278 c 0
130 57 m 0
 130 60 132 69 147 69 c 0
 159 69 176 32 246 32 c 0
 350 32 389 139 389 193 c 0
 389 251 364 311 276 311 c 0
 260 311 254 308 252 308 c 0
 243 308 240 315 240 320 c 0
 240 330 252 327 307 369 c 0
 339 394 357 431 357 464 c 0
 357 505 326 540 284 540 c 0
 231 540 191 492 176 492 c 0
 170 492 170 495 170 499 c 0
 170 537 248 587 303 587 c 0
 361 587 419 558 419 493 c 0
 419 435 388 409 354 375 c 0
 347 368 342 364 342 360 c 0
 342 354 373 358 405 332 c 0
 435 308 456 275 456 225 c 0
 456 95 362 1 255 1 c 0
 195 1 130 31 130 57 c 0
516 277 m 0
 516 471 603 589 705 589 c 0
 815 589 870 463 870 309 c 0
 870 148 810 8 689 8 c 0
 554 8 516 139 516 277 c 0
564 331 m 0
 564 194 619 41 710 41 c 0
 788 41 826 151 826 268 c 0
 826 400 777 541 682 541 c 0
 599 541 564 441 564 331 c 0
EndSplineSet
EndChar
StartChar: uF26B0
Encoding: 992944 992944 1804
Width: 1000
Flags: MW
LayerCount: 2
Back
Fore
SplineSet
721 -192 m 0
 721 -163 919 -65 919 281 c 0
 919 599 724 726 724 753 c 0
 724 766 738 772 744 772 c 0
 777 772 964 558 964 280 c 0
 964 -35 763 -214 742 -214 c 0
 724 -214 721 -203 721 -192 c 0
34 278 m 0
 34 593 235 772 256 772 c 0
 274 772 277 762 277 751 c 0
 277 722 79 623 79 277 c 0
 79 -41 274 -168 274 -195 c 0
 274 -208 260 -214 254 -214 c 0
 221 -214 34 0 34 278 c 0
169 57 m 0
 169 60 171 70 186 70 c 0
 198 70 215 33 285 33 c 0
 389 33 428 140 428 194 c 0
 428 252 403 312 315 312 c 0
 299 312 292 309 290 309 c 0
 281 309 279 316 279 321 c 0
 279 331 291 328 346 370 c 0
 378 395 396 432 396 465 c 0
 396 506 364 541 322 541 c 0
 269 541 230 493 215 493 c 0
 209 493 209 496 209 500 c 0
 209 538 287 588 342 588 c 0
 400 588 458 559 458 494 c 0
 458 436 427 410 393 376 c 0
 386 369 381 365 381 361 c 0
 381 355 412 359 444 333 c 0
 474 309 495 276 495 226 c 0
 495 96 401 2 294 2 c 0
 234 2 169 31 169 57 c 0
590 509 m 0
 590 518 599 524 613 530 c 0
 636 540 644 535 686 557 c 0
 714 572 726 596 738 596 c 0
 750 596 751 583 751 577 c 0
 751 571 744 546 744 537 c 0
 742 503 739 433 739 271 c 0
 739 190 737 143 737 114 c 0
 737 7 831 67 831 32 c 0
 831 22 819 21 805 21 c 2
 710 21 l 2
 676 21 640 18 618 18 c 0
 604 18 595 21 595 31 c 0
 595 43 608 46 621 46 c 2
 630 46 l 2
 671 46 670 74 670 78 c 0
 676 128 679 216 679 297 c 2
 679 459 l 2
 679 489 676 509 652 509 c 0
 630 509 608 497 598 497 c 0
 596 497 590 500 590 509 c 0
EndSplineSet
EndChar
StartChar: uF26B1
Encoding: 992945 992945 1805
Width: 1000
Flags: MW
LayerCount: 2
Back
Fore
SplineSet
721 -192 m 0
 721 -163 919 -65 919 281 c 0
 919 599 724 726 724 753 c 0
 724 766 738 772 744 772 c 0
 777 772 964 558 964 280 c 0
 964 -35 763 -214 742 -214 c 0
 724 -214 721 -203 721 -192 c 0
34 278 m 0
 34 593 235 772 256 772 c 0
 274 772 277 762 277 751 c 0
 277 722 79 623 79 277 c 0
 79 -41 274 -168 274 -195 c 0
 274 -208 260 -214 254 -214 c 0
 221 -214 34 0 34 278 c 0
132 57 m 0
 132 60 133 70 148 70 c 0
 160 70 178 32 248 32 c 0
 352 32 391 140 391 194 c 0
 391 252 366 312 278 312 c 0
 262 312 255 308 253 308 c 0
 244 308 242 315 242 320 c 0
 242 330 253 328 308 370 c 0
 340 395 359 431 359 464 c 0
 359 505 327 540 285 540 c 0
 232 540 193 492 178 492 c 0
 172 492 172 496 172 500 c 0
 172 538 249 588 304 588 c 0
 362 588 420 559 420 494 c 0
 420 436 390 410 356 376 c 0
 349 369 344 364 344 360 c 0
 344 354 375 358 407 332 c 0
 437 308 458 276 458 226 c 0
 458 96 363 2 256 2 c 0
 196 2 132 31 132 57 c 0
536 30 m 2
 536 32 l 2
 536 57 621 110 715 315 c 0
 736 361 750 417 750 464 c 0
 750 508 718 540 667 540 c 0
 589 540 566 489 550 489 c 0
 546 489 544 494 544 500 c 0
 544 508 589 595 693 595 c 0
 752 595 817 559 817 482 c 0
 817 338 622 108 622 92 c 0
 622 84 658 82 681 82 c 0
 807 82 788 83 808 93 c 0
 831 104 849 137 860 137 c 0
 866 137 868 133 868 129 c 0
 868 123 812 33 812 33 c 2
 804 22 796 20 789 20 c 0
 698 20 694 21 656 21 c 0
 637 21 585 20 563 20 c 0
 537 20 536 24 536 30 c 2
EndSplineSet
EndChar
StartChar: uF26B2
Encoding: 992946 992946 1806
Width: 1000
Flags: MW
LayerCount: 2
Back
Fore
SplineSet
721 -192 m 0
 721 -163 919 -65 919 281 c 0
 919 599 724 726 724 753 c 0
 724 766 738 772 744 772 c 0
 777 772 964 558 964 280 c 0
 964 -35 763 -214 742 -214 c 0
 724 -214 721 -203 721 -192 c 0
34 278 m 0
 34 593 235 772 256 772 c 0
 274 772 277 762 277 751 c 0
 277 722 79 623 79 277 c 0
 79 -41 274 -168 274 -195 c 0
 274 -208 260 -214 254 -214 c 0
 221 -214 34 0 34 278 c 0
137 56 m 0
 137 59 139 69 154 69 c 0
 166 69 183 32 253 32 c 0
 357 32 396 139 396 193 c 0
 396 251 371 311 283 311 c 0
 267 311 260 308 258 308 c 0
 249 308 247 315 247 320 c 0
 247 330 259 327 314 369 c 0
 346 394 364 431 364 464 c 0
 364 505 332 540 290 540 c 0
 237 540 198 492 183 492 c 0
 177 492 177 495 177 499 c 0
 177 537 255 587 310 587 c 0
 368 587 426 558 426 493 c 0
 426 435 395 409 361 375 c 0
 354 368 349 364 349 360 c 0
 349 354 380 358 412 332 c 0
 442 308 463 275 463 225 c 0
 463 95 369 1 262 1 c 0
 202 1 137 30 137 56 c 0
537 56 m 0
 537 59 539 69 554 69 c 0
 566 69 583 32 653 32 c 0
 757 32 796 139 796 193 c 0
 796 251 771 311 683 311 c 0
 667 311 660 308 658 308 c 0
 649 308 647 315 647 320 c 0
 647 330 659 327 714 369 c 0
 746 394 764 431 764 464 c 0
 764 505 732 540 690 540 c 0
 637 540 598 492 583 492 c 0
 577 492 577 495 577 499 c 0
 577 537 655 587 710 587 c 0
 768 587 826 558 826 493 c 0
 826 435 795 409 761 375 c 0
 754 368 749 364 749 360 c 0
 749 354 780 358 812 332 c 0
 842 308 863 275 863 225 c 0
 863 95 769 1 662 1 c 0
 602 1 537 30 537 56 c 0
EndSplineSet
EndChar
StartChar: uF26B3
Encoding: 992947 992947 1807
Width: 1000
Flags: MW
LayerCount: 2
Back
Fore
SplineSet
721 -192 m 0
 721 -163 919 -65 919 281 c 0
 919 599 724 726 724 753 c 0
 724 766 738 772 744 772 c 0
 777 772 964 558 964 280 c 0
 964 -35 763 -214 742 -214 c 0
 724 -214 721 -203 721 -192 c 0
34 278 m 0
 34 593 235 772 256 772 c 0
 274 772 277 762 277 751 c 0
 277 722 79 623 79 277 c 0
 79 -41 274 -168 274 -195 c 0
 274 -208 260 -214 254 -214 c 0
 221 -214 34 0 34 278 c 0
126 50 m 0
 126 53 128 62 143 62 c 0
 155 62 172 25 242 25 c 0
 346 25 386 132 386 186 c 0
 386 244 361 304 273 304 c 0
 257 304 250 301 248 301 c 0
 239 301 237 308 237 313 c 0
 237 323 248 320 303 362 c 0
 335 387 354 424 354 457 c 0
 354 498 322 533 280 533 c 0
 227 533 188 485 173 485 c 0
 167 485 166 488 166 492 c 0
 166 530 244 580 299 580 c 0
 357 580 415 551 415 486 c 0
 415 428 384 402 350 368 c 0
 343 361 338 357 338 353 c 0
 338 347 370 351 402 325 c 0
 432 301 453 268 453 218 c 0
 453 88 358 -6 251 -6 c 0
 191 -6 126 24 126 50 c 0
504 191 m 0
 504 211 513 223 717 506 c 0
 741 540 763 580 780 580 c 0
 787 580 794 575 794 564 c 0
 794 559 784 294 784 256 c 0
 784 239 784 236 794 236 c 0
 849 236 846 262 864 262 c 0
 866 262 874 260 874 250 c 0
 874 240 869 229 865 215 c 0
 863 209 861 178 844 178 c 0
 831 178 808 181 797 181 c 0
 787 181 782 176 782 165 c 0
 782 136 784 108 784 58 c 0
 784 -6 785 10 785 -12 c 0
 785 -52 784 -45 755 -54 c 0
 744 -57 732 -59 729 -59 c 0
 716 -59 711 -44 711 -38 c 0
 711 -30 725 -4 725 175 c 0
 725 180 721 180 716 180 c 2
 614 180 l 2
 581 180 552 178 527 178 c 0
 511 178 504 179 504 191 c 0
574 241 m 0
 574 235 584 234 597 234 c 2
 702 234 l 2
 724 234 726 236 726 250 c 0
 726 256 729 386 729 436 c 0
 729 451 727 459 725 459 c 0
 719 459 574 260 574 241 c 0
EndSplineSet
EndChar
StartChar: uF26B4
Encoding: 992948 992948 1808
Width: 1000
Flags: MW
LayerCount: 2
Back
Fore
SplineSet
721 -192 m 0
 721 -163 919 -65 919 281 c 0
 919 599 724 726 724 753 c 0
 724 766 738 772 744 772 c 0
 777 772 964 558 964 280 c 0
 964 -35 763 -214 742 -214 c 0
 724 -214 721 -203 721 -192 c 0
34 278 m 0
 34 593 235 772 256 772 c 0
 274 772 277 762 277 751 c 0
 277 722 79 623 79 277 c 0
 79 -41 274 -168 274 -195 c 0
 274 -208 260 -214 254 -214 c 0
 221 -214 34 0 34 278 c 0
139 57 m 0
 139 60 141 70 156 70 c 0
 168 70 185 32 255 32 c 0
 359 32 398 140 398 194 c 0
 398 252 373 312 285 312 c 0
 269 312 262 308 260 308 c 0
 251 308 249 315 249 320 c 0
 249 330 261 328 316 370 c 0
 348 395 366 431 366 464 c 0
 366 505 334 540 292 540 c 0
 239 540 200 492 185 492 c 0
 179 492 179 496 179 500 c 0
 179 538 257 588 312 588 c 0
 370 588 428 559 428 494 c 0
 428 436 397 410 363 376 c 0
 356 369 351 364 351 360 c 0
 351 354 382 358 414 332 c 0
 444 308 465 276 465 226 c 0
 465 96 371 2 264 2 c 0
 204 2 139 31 139 57 c 0
543 32 m 0
 543 40 548 44 554 44 c 0
 570 44 581 26 644 26 c 0
 736 26 796 106 796 198 c 0
 796 263 759 320 676 320 c 0
 625 320 618 312 605 312 c 0
 590 312 587 326 587 332 c 0
 587 351 606 437 621 548 c 0
 623 559 629 568 647 568 c 0
 798 570 804 568 820 580 c 0
 834 590 836 600 846 600 c 0
 852 600 856 596 856 592 c 0
 856 589 854 584 852 580 c 0
 820 515 821 509 803 509 c 0
 797 509 771 510 750 510 c 0
 690 510 648 502 646 497 c 0
 639 480 627 403 627 385 c 0
 627 379 630 373 632 373 c 0
 634 373 647 380 700 380 c 0
 750 380 795 360 820 332 c 0
 849 300 861 258 861 228 c 0
 861 71 749 -4 655 -4 c 0
 616 -4 543 6 543 32 c 0
EndSplineSet
EndChar
StartChar: uF26B5
Encoding: 992949 992949 1809
Width: 1000
Flags: MW
LayerCount: 2
Back
Fore
SplineSet
721 -192 m 0
 721 -163 919 -65 919 281 c 0
 919 599 724 726 724 753 c 0
 724 766 738 772 744 772 c 0
 777 772 964 558 964 280 c 0
 964 -35 763 -214 742 -214 c 0
 724 -214 721 -203 721 -192 c 0
34 278 m 0
 34 593 235 772 256 772 c 0
 274 772 277 762 277 751 c 0
 277 722 79 623 79 277 c 0
 79 -41 274 -168 274 -195 c 0
 274 -208 260 -214 254 -214 c 0
 221 -214 34 0 34 278 c 0
132 58 m 0
 132 61 134 70 149 70 c 0
 161 70 178 33 248 33 c 0
 352 33 391 140 391 194 c 0
 391 252 366 312 278 312 c 0
 262 312 256 309 254 309 c 0
 245 309 242 316 242 321 c 0
 242 331 254 328 309 370 c 0
 341 395 359 432 359 465 c 0
 359 506 328 541 286 541 c 0
 233 541 193 493 178 493 c 0
 172 493 172 496 172 500 c 0
 172 538 250 588 305 588 c 0
 363 588 421 559 421 494 c 0
 421 436 390 410 356 376 c 0
 349 369 344 365 344 361 c 0
 344 355 375 359 407 333 c 0
 437 309 458 276 458 226 c 0
 458 96 364 2 257 2 c 0
 197 2 132 32 132 58 c 0
522 219 m 0
 522 494 783 598 837 598 c 0
 847 598 850 591 850 585 c 0
 850 563 801 584 715 510 c 0
 637 444 603 356 603 330 c 0
 603 325 604 322 606 322 c 0
 614 322 641 378 723 378 c 0
 804 378 868 308 868 203 c 0
 868 90 794 3 700 3 c 0
 683 3 644 6 610 32 c 0
 576 59 522 115 522 219 c 0
588 212 m 0
 588 166 613 36 718 36 c 0
 782 36 812 100 812 169 c 0
 812 252 769 342 689 342 c 0
 655 342 602 311 594 270 c 0
 591 252 588 238 588 212 c 0
EndSplineSet
EndChar
StartChar: uF26B6
Encoding: 992950 992950 1810
Width: 1000
Flags: MW
LayerCount: 2
Back
Fore
SplineSet
721 -192 m 0
 721 -163 919 -65 919 281 c 0
 919 599 724 726 724 753 c 0
 724 766 738 772 744 772 c 0
 777 772 964 558 964 280 c 0
 964 -35 763 -214 742 -214 c 0
 724 -214 721 -203 721 -192 c 0
34 278 m 0
 34 593 235 772 256 772 c 0
 274 772 277 762 277 751 c 0
 277 722 79 623 79 277 c 0
 79 -41 274 -168 274 -195 c 0
 274 -208 260 -214 254 -214 c 0
 221 -214 34 0 34 278 c 0
144 51 m 0
 144 54 146 64 161 64 c 0
 173 64 190 26 260 26 c 0
 364 26 403 134 403 188 c 0
 403 246 378 306 290 306 c 0
 274 306 268 302 266 302 c 0
 257 302 254 309 254 314 c 0
 254 324 266 322 321 364 c 0
 353 389 371 425 371 458 c 0
 371 499 340 534 298 534 c 0
 245 534 205 486 190 486 c 0
 184 486 184 490 184 494 c 0
 184 532 262 582 317 582 c 0
 375 582 433 553 433 488 c 0
 433 430 402 404 368 370 c 0
 361 363 356 358 356 354 c 0
 356 348 387 352 419 326 c 0
 449 302 470 270 470 220 c 0
 470 90 376 -4 269 -4 c 0
 209 -4 144 25 144 51 c 0
558 463 m 0
 558 493 571 527 576 557 c 0
 577 564 585 566 589 566 c 0
 615 566 615 563 718 563 c 2
 743 563 l 2
 814 563 821 565 835 565 c 0
 847 565 856 558 856 548 c 0
 856 433 719 199 719 71 c 0
 719 6 736 -6 736 -20 c 0
 736 -39 692 -45 686 -45 c 0
 664 -45 646 -37 646 26 c 0
 646 150 761 327 795 423 c 0
 807 457 814 483 814 495 c 0
 814 498 808 506 798 506 c 0
 794 506 788 506 782 506 c 0
 772 506 726 505 688 505 c 0
 674 505 675 506 664 506 c 0
 604 506 591 484 583 458 c 0
 580 447 575 431 568 431 c 0
 561 431 558 445 558 463 c 0
EndSplineSet
EndChar
StartChar: uF26B8
Encoding: 992952 992952 1812
Width: 1000
Flags: MW
LayerCount: 2
Back
Fore
SplineSet
721 -192 m 0
 721 -163 919 -65 919 281 c 0
 919 599 724 726 724 753 c 0
 724 766 738 772 744 772 c 0
 777 772 964 558 964 280 c 0
 964 -35 763 -214 742 -214 c 0
 724 -214 721 -203 721 -192 c 0
34 278 m 0
 34 593 235 772 256 772 c 0
 274 772 277 762 277 751 c 0
 277 722 79 623 79 277 c 0
 79 -41 274 -168 274 -195 c 0
 274 -208 260 -214 254 -214 c 0
 221 -214 34 0 34 278 c 0
128 56 m 0
 128 59 130 69 145 69 c 0
 157 69 174 31 244 31 c 0
 348 31 387 139 387 193 c 0
 387 251 362 310 274 310 c 0
 258 310 252 307 250 307 c 0
 241 307 238 314 238 319 c 0
 238 329 250 327 305 369 c 0
 337 394 355 430 355 463 c 0
 355 504 324 539 282 539 c 0
 229 539 189 491 174 491 c 0
 168 491 168 494 168 498 c 0
 168 536 246 586 301 586 c 0
 359 586 417 558 417 493 c 0
 417 435 386 408 352 374 c 0
 345 367 340 363 340 359 c 0
 340 353 371 357 403 331 c 0
 433 307 454 275 454 225 c 0
 454 95 360 1 253 1 c 0
 193 1 128 30 128 56 c 0
526 389 m 0
 526 492 591 586 695 586 c 0
 801 586 872 489 872 371 c 0
 872 268 825 144 725 68 c 0
 662 20 591 -4 557 -4 c 0
 545 -4 544 2 544 6 c 0
 544 9 544 15 556 17 c 0
 602 27 661 61 711 113 c 0
 751 155 783 237 783 252 c 0
 783 256 782 257 780 257 c 0
 773 257 737 211 681 211 c 0
 578 211 526 299 526 389 c 0
585 430 m 0
 585 347 633 249 702 249 c 0
 776 249 803 311 803 379 c 0
 803 453 760 551 682 551 c 0
 615 551 585 494 585 430 c 0
EndSplineSet
EndChar
StartChar: uF26B9
Encoding: 992953 992953 1813
Width: 1000
Flags: MW
LayerCount: 2
Back
Fore
SplineSet
721 -192 m 0
 721 -163 919 -65 919 281 c 0
 919 599 724 726 724 753 c 0
 724 766 738 772 744 772 c 0
 777 772 964 558 964 280 c 0
 964 -35 763 -214 742 -214 c 0
 724 -214 721 -203 721 -192 c 0
34 278 m 0
 34 593 235 772 256 772 c 0
 274 772 277 762 277 751 c 0
 277 722 79 623 79 277 c 0
 79 -41 274 -168 274 -195 c 0
 274 -208 260 -214 254 -214 c 0
 221 -214 34 0 34 278 c 0
123 192 m 0
 123 212 132 223 336 506 c 0
 360 540 382 580 399 580 c 0
 406 580 412 575 412 564 c 0
 412 559 403 294 403 256 c 0
 403 239 403 236 413 236 c 0
 468 236 465 262 483 262 c 0
 485 262 492 261 492 251 c 0
 492 241 488 230 484 216 c 0
 482 210 480 179 463 179 c 0
 450 179 427 181 416 181 c 0
 406 181 401 176 401 165 c 0
 401 136 403 109 403 59 c 0
 403 -5 404 10 404 -12 c 0
 404 -52 403 -45 374 -54 c 0
 363 -57 351 -59 348 -59 c 0
 335 -59 330 -43 330 -37 c 0
 330 -29 344 -3 344 176 c 0
 344 181 340 180 335 180 c 2
 233 180 l 2
 200 180 171 179 146 179 c 0
 130 179 123 180 123 192 c 0
193 241 m 0
 193 235 203 234 216 234 c 2
 321 234 l 2
 343 234 344 237 344 251 c 0
 344 257 348 386 348 436 c 0
 348 451 346 460 344 460 c 0
 338 460 193 260 193 241 c 0
523 271 m 0
 523 465 610 582 712 582 c 0
 822 582 877 456 877 302 c 0
 877 141 817 1 696 1 c 0
 561 1 523 133 523 271 c 0
571 324 m 0
 571 187 626 34 717 34 c 0
 795 34 833 144 833 261 c 0
 833 393 784 534 689 534 c 0
 606 534 571 434 571 324 c 0
EndSplineSet
EndChar
StartChar: uF26BB
Encoding: 992955 992955 1815
Width: 1000
Flags: MW
LayerCount: 2
Back
Fore
SplineSet
721 -192 m 0
 721 -163 919 -65 919 281 c 0
 919 599 724 726 724 753 c 0
 724 766 738 772 744 772 c 0
 777 772 964 558 964 280 c 0
 964 -35 763 -214 742 -214 c 0
 724 -214 721 -203 721 -192 c 0
34 278 m 0
 34 593 235 772 256 772 c 0
 274 772 277 762 277 751 c 0
 277 722 79 623 79 277 c 0
 79 -41 274 -168 274 -195 c 0
 274 -208 260 -214 254 -214 c 0
 221 -214 34 0 34 278 c 0
124 192 m 0
 124 212 133 224 337 507 c 0
 361 541 383 581 400 581 c 0
 407 581 414 576 414 565 c 0
 414 560 404 295 404 257 c 0
 404 240 405 237 415 237 c 0
 470 237 466 263 484 263 c 0
 486 263 494 261 494 251 c 0
 494 241 489 230 485 216 c 0
 483 210 481 179 464 179 c 0
 451 179 428 182 417 182 c 0
 407 182 403 177 403 166 c 0
 403 137 404 109 404 59 c 0
 404 -5 405 11 405 -11 c 0
 405 -51 405 -44 376 -53 c 0
 365 -56 352 -58 349 -58 c 0
 336 -58 332 -43 332 -37 c 0
 332 -29 345 -3 345 176 c 0
 345 181 341 181 336 181 c 2
 235 181 l 2
 202 181 173 179 148 179 c 0
 132 179 124 180 124 192 c 0
195 242 m 0
 195 236 204 235 217 235 c 2
 323 235 l 2
 345 235 346 237 346 251 c 0
 346 257 349 387 349 437 c 0
 349 452 347 460 345 460 c 0
 339 460 195 261 195 242 c 0
544 23 m 2
 544 26 l 2
 544 51 628 103 722 308 c 0
 743 354 757 410 757 457 c 0
 757 501 725 534 674 534 c 0
 596 534 573 483 557 483 c 0
 553 483 551 488 551 494 c 0
 551 502 596 588 700 588 c 0
 759 588 824 552 824 475 c 0
 824 331 629 101 629 85 c 0
 629 77 665 75 688 75 c 0
 814 75 795 77 815 87 c 0
 838 98 856 131 867 131 c 0
 873 131 876 127 876 123 c 0
 876 117 820 27 820 27 c 2
 812 16 803 13 796 13 c 0
 705 13 702 15 664 15 c 0
 645 15 592 13 570 13 c 0
 544 13 544 17 544 23 c 2
EndSplineSet
EndChar
StartChar: uF26BC
Encoding: 992956 992956 1816
Width: 1000
Flags: MW
LayerCount: 2
Back
Fore
SplineSet
721 -192 m 0
 721 -163 919 -65 919 281 c 0
 919 599 724 726 724 753 c 0
 724 766 738 772 744 772 c 0
 777 772 964 558 964 280 c 0
 964 -35 763 -214 742 -214 c 0
 724 -214 721 -203 721 -192 c 0
34 278 m 0
 34 593 235 772 256 772 c 0
 274 772 277 762 277 751 c 0
 277 722 79 623 79 277 c 0
 79 -41 274 -168 274 -195 c 0
 274 -208 260 -214 254 -214 c 0
 221 -214 34 0 34 278 c 0
130 191 m 0
 130 211 138 223 342 506 c 0
 366 540 389 580 406 580 c 0
 413 580 419 575 419 564 c 0
 419 559 410 294 410 256 c 0
 410 239 410 236 420 236 c 0
 475 236 472 262 490 262 c 0
 492 262 499 260 499 250 c 0
 499 240 494 229 490 215 c 0
 488 209 487 178 470 178 c 0
 457 178 433 181 422 181 c 0
 412 181 408 176 408 165 c 0
 408 136 410 108 410 58 c 0
 410 -6 410 10 410 -12 c 0
 410 -52 410 -45 381 -54 c 0
 370 -57 357 -59 354 -59 c 0
 341 -59 337 -44 337 -38 c 0
 337 -30 350 -4 350 175 c 0
 350 180 347 180 342 180 c 2
 240 180 l 2
 207 180 178 178 153 178 c 0
 137 178 130 179 130 191 c 0
200 241 m 0
 200 235 209 234 222 234 c 2
 328 234 l 2
 350 234 351 236 351 250 c 0
 351 256 354 386 354 436 c 0
 354 451 352 459 350 459 c 0
 344 459 200 260 200 241 c 0
544 50 m 0
 544 53 546 62 561 62 c 0
 573 62 590 25 660 25 c 0
 764 25 803 132 803 186 c 0
 803 244 778 304 690 304 c 0
 674 304 668 301 666 301 c 0
 657 301 654 308 654 313 c 0
 654 323 666 320 721 362 c 0
 753 387 771 424 771 457 c 0
 771 498 740 533 698 533 c 0
 645 533 605 485 590 485 c 0
 584 485 584 488 584 492 c 0
 584 530 662 580 717 580 c 0
 775 580 833 551 833 486 c 0
 833 428 802 402 768 368 c 0
 761 361 756 357 756 353 c 0
 756 347 787 351 819 325 c 0
 849 301 870 268 870 218 c 0
 870 88 776 -6 669 -6 c 0
 609 -6 544 24 544 50 c 0
EndSplineSet
EndChar
StartChar: uF26BE
Encoding: 992958 992958 1818
Width: 1000
Flags: MW
LayerCount: 2
Back
Fore
SplineSet
721 -192 m 0
 721 -163 919 -65 919 281 c 0
 919 599 724 726 724 753 c 0
 724 766 738 772 744 772 c 0
 777 772 964 558 964 280 c 0
 964 -35 763 -214 742 -214 c 0
 724 -214 721 -203 721 -192 c 0
34 278 m 0
 34 593 235 772 256 772 c 0
 274 772 277 762 277 751 c 0
 277 722 79 623 79 277 c 0
 79 -41 274 -168 274 -195 c 0
 274 -208 260 -214 254 -214 c 0
 221 -214 34 0 34 278 c 0
132 193 m 0
 132 213 140 224 344 507 c 0
 368 541 391 582 408 582 c 0
 415 582 421 577 421 566 c 0
 421 561 412 296 412 258 c 0
 412 241 412 238 422 238 c 0
 477 238 474 263 492 263 c 0
 494 263 501 262 501 252 c 0
 501 242 496 231 492 217 c 0
 490 211 489 180 472 180 c 0
 459 180 435 182 424 182 c 0
 414 182 410 177 410 166 c 0
 410 137 412 110 412 60 c 0
 412 -4 412 12 412 -10 c 0
 412 -50 412 -44 383 -53 c 0
 372 -56 359 -58 356 -58 c 0
 343 -58 339 -42 339 -36 c 0
 339 -28 352 -2 352 177 c 0
 352 182 349 182 344 182 c 2
 242 182 l 2
 209 182 180 180 155 180 c 0
 139 180 132 181 132 193 c 0
202 242 m 0
 202 236 211 235 224 235 c 2
 330 235 l 2
 352 235 353 238 353 252 c 0
 353 258 356 388 356 438 c 0
 356 453 354 461 352 461 c 0
 346 461 202 261 202 242 c 0
550 26 m 0
 550 34 555 38 561 38 c 0
 577 38 588 20 651 20 c 0
 743 20 803 100 803 192 c 0
 803 257 766 314 683 314 c 0
 632 314 625 306 612 306 c 0
 597 306 594 320 594 326 c 0
 594 345 613 431 628 542 c 0
 630 553 636 562 654 562 c 0
 805 564 811 562 827 574 c 0
 841 584 843 594 853 594 c 0
 859 594 863 590 863 586 c 0
 863 583 862 578 860 574 c 0
 828 509 828 503 810 503 c 0
 804 503 778 504 757 504 c 0
 697 504 655 496 653 491 c 0
 646 474 634 397 634 379 c 0
 634 373 638 367 640 367 c 0
 642 367 655 374 708 374 c 0
 758 374 802 354 827 326 c 0
 856 294 868 252 868 222 c 0
 868 65 756 -10 662 -10 c 0
 623 -10 550 0 550 26 c 0
EndSplineSet
EndChar
StartChar: uF26C0
Encoding: 992960 992960 1820
Width: 1000
Flags: MW
LayerCount: 2
Back
Fore
SplineSet
721 -192 m 0
 721 -163 919 -65 919 281 c 0
 919 599 724 726 724 753 c 0
 724 766 738 772 744 772 c 0
 777 772 964 558 964 280 c 0
 964 -35 763 -214 742 -214 c 0
 724 -214 721 -203 721 -192 c 0
34 278 m 0
 34 593 235 772 256 772 c 0
 274 772 277 762 277 751 c 0
 277 722 79 623 79 277 c 0
 79 -41 274 -168 274 -195 c 0
 274 -208 260 -214 254 -214 c 0
 221 -214 34 0 34 278 c 0
137 191 m 0
 137 211 146 223 350 506 c 0
 374 540 396 580 413 580 c 0
 420 580 426 575 426 564 c 0
 426 559 417 294 417 256 c 0
 417 239 417 236 427 236 c 0
 482 236 479 262 497 262 c 0
 499 262 506 260 506 250 c 0
 506 240 502 229 498 215 c 0
 496 209 494 178 477 178 c 0
 464 178 441 181 430 181 c 0
 420 181 415 176 415 165 c 0
 415 136 417 108 417 58 c 0
 417 -6 418 10 418 -12 c 0
 418 -52 417 -45 388 -54 c 0
 377 -57 365 -59 362 -59 c 0
 349 -59 344 -44 344 -38 c 0
 344 -30 358 -4 358 175 c 0
 358 180 354 180 349 180 c 2
 247 180 l 2
 214 180 185 178 160 178 c 0
 144 178 137 179 137 191 c 0
207 241 m 0
 207 235 217 234 230 234 c 2
 335 234 l 2
 357 234 358 236 358 250 c 0
 358 256 362 386 362 436 c 0
 362 451 360 459 358 459 c 0
 352 459 207 260 207 241 c 0
565 462 m 0
 565 492 578 525 583 555 c 0
 584 562 592 565 596 565 c 0
 622 565 623 562 726 562 c 2
 750 562 l 2
 821 562 828 563 842 563 c 0
 854 563 863 556 863 546 c 0
 863 431 726 198 726 70 c 0
 726 5 743 -8 743 -22 c 0
 743 -41 700 -46 694 -46 c 0
 672 -46 654 -39 654 24 c 0
 654 148 768 326 802 422 c 0
 814 456 821 482 821 494 c 0
 821 497 815 504 805 504 c 0
 801 504 796 505 790 505 c 0
 780 505 733 503 695 503 c 0
 681 503 682 504 671 504 c 0
 611 504 598 483 590 457 c 0
 587 446 582 430 575 430 c 0
 568 430 565 444 565 462 c 0
EndSplineSet
EndChar
StartChar: uF26C1
Encoding: 992961 992961 1821
Width: 1000
Flags: MW
LayerCount: 2
Back
Fore
SplineSet
721 -192 m 0
 721 -163 919 -65 919 281 c 0
 919 599 724 726 724 753 c 0
 724 766 738 772 744 772 c 0
 777 772 964 558 964 280 c 0
 964 -35 763 -214 742 -214 c 0
 724 -214 721 -203 721 -192 c 0
34 278 m 0
 34 593 235 772 256 772 c 0
 274 772 277 762 277 751 c 0
 277 722 79 623 79 277 c 0
 79 -41 274 -168 274 -195 c 0
 274 -208 260 -214 254 -214 c 0
 221 -214 34 0 34 278 c 0
126 191 m 0
 126 211 135 223 339 506 c 0
 363 540 385 580 402 580 c 0
 409 580 416 575 416 564 c 0
 416 559 406 294 406 256 c 0
 406 239 407 236 417 236 c 0
 472 236 468 262 486 262 c 0
 488 262 496 260 496 250 c 0
 496 240 491 229 487 215 c 0
 485 209 483 178 466 178 c 0
 453 178 430 181 419 181 c 0
 409 181 405 176 405 165 c 0
 405 136 406 108 406 58 c 0
 406 -6 407 10 407 -12 c 0
 407 -52 407 -45 378 -54 c 0
 367 -57 354 -59 351 -59 c 0
 338 -59 334 -44 334 -38 c 0
 334 -30 347 -4 347 175 c 0
 347 180 343 180 338 180 c 2
 237 180 l 2
 204 180 175 178 150 178 c 0
 134 178 126 179 126 191 c 0
197 241 m 0
 197 235 206 234 219 234 c 2
 325 234 l 2
 347 234 348 236 348 250 c 0
 348 256 351 386 351 436 c 0
 351 451 349 459 347 459 c 0
 341 459 197 260 197 241 c 0
534 158 m 0
 534 276 635 306 635 311 c 0
 635 319 558 341 558 431 c 0
 558 527 632 580 712 580 c 0
 826 580 854 504 854 451 c 0
 854 340 760 336 760 330 c 0
 760 320 874 291 874 170 c 0
 874 104 839 -4 701 -4 c 0
 610 -4 534 52 534 158 c 0
579 181 m 0
 579 82 650 26 716 26 c 0
 771 26 822 66 822 151 c 0
 822 184 803 216 783 233 c 0
 735 274 677 294 662 294 c 0
 632 294 579 246 579 181 c 0
610 451 m 0
 610 365 719 346 733 346 c 0
 763 346 808 374 808 446 c 0
 808 480 784 550 707 550 c 0
 665 550 610 530 610 451 c 0
EndSplineSet
EndChar
StartChar: uF26C3
Encoding: 992963 992963 1823
Width: 1000
Flags: MW
LayerCount: 2
Back
Fore
SplineSet
721 -192 m 0
 721 -163 919 -65 919 281 c 0
 919 599 724 726 724 753 c 0
 724 766 738 772 744 772 c 0
 777 772 964 558 964 280 c 0
 964 -35 763 -214 742 -214 c 0
 724 -214 721 -203 721 -192 c 0
34 278 m 0
 34 593 235 772 256 772 c 0
 274 772 277 762 277 751 c 0
 277 722 79 623 79 277 c 0
 79 -41 274 -168 274 -195 c 0
 274 -208 260 -214 254 -214 c 0
 221 -214 34 0 34 278 c 0
132 32 m 0
 132 40 137 44 143 44 c 0
 159 44 170 26 233 26 c 0
 325 26 385 106 385 198 c 0
 385 263 348 320 265 320 c 0
 214 320 207 312 194 312 c 0
 179 312 176 326 176 332 c 0
 176 351 195 437 210 548 c 0
 212 559 218 568 236 568 c 0
 387 570 393 568 409 580 c 0
 423 590 425 600 435 600 c 0
 441 600 445 596 445 592 c 0
 445 589 444 584 442 580 c 0
 410 515 410 509 392 509 c 0
 386 509 360 510 339 510 c 0
 279 510 237 502 235 497 c 0
 228 480 216 403 216 385 c 0
 216 379 220 373 222 373 c 0
 224 373 237 380 290 380 c 0
 340 380 384 360 409 332 c 0
 438 300 450 258 450 228 c 0
 450 71 338 -4 244 -4 c 0
 205 -4 132 6 132 32 c 0
514 278 m 0
 514 472 601 589 703 589 c 0
 813 589 868 463 868 309 c 0
 868 148 808 8 687 8 c 0
 552 8 514 140 514 278 c 0
562 332 m 0
 562 195 617 41 708 41 c 0
 786 41 824 151 824 268 c 0
 824 400 775 541 680 541 c 0
 597 541 562 442 562 332 c 0
EndSplineSet
EndChar
StartChar: uF26C4
Encoding: 992964 992964 1824
Width: 1000
Flags: MW
LayerCount: 2
Back
Fore
SplineSet
721 -192 m 0
 721 -163 919 -65 919 281 c 0
 919 599 724 726 724 753 c 0
 724 766 738 772 744 772 c 0
 777 772 964 558 964 280 c 0
 964 -35 763 -214 742 -214 c 0
 724 -214 721 -203 721 -192 c 0
34 278 m 0
 34 593 235 772 256 772 c 0
 274 772 277 762 277 751 c 0
 277 722 79 623 79 277 c 0
 79 -41 274 -168 274 -195 c 0
 274 -208 260 -214 254 -214 c 0
 221 -214 34 0 34 278 c 0
171 32 m 0
 171 40 176 44 182 44 c 0
 198 44 209 26 272 26 c 0
 364 26 424 106 424 198 c 0
 424 263 387 320 304 320 c 0
 253 320 246 312 233 312 c 0
 218 312 215 326 215 332 c 0
 215 351 234 437 249 548 c 0
 251 559 257 568 275 568 c 0
 426 570 432 568 448 580 c 0
 462 590 464 600 474 600 c 0
 480 600 484 596 484 592 c 0
 484 589 482 584 480 580 c 0
 448 515 449 509 431 509 c 0
 425 509 399 510 378 510 c 0
 318 510 276 502 274 497 c 0
 267 480 255 403 255 385 c 0
 255 379 258 373 260 373 c 0
 262 373 275 380 328 380 c 0
 378 380 423 360 448 332 c 0
 477 300 489 258 489 228 c 0
 489 71 377 -4 283 -4 c 0
 244 -4 171 6 171 32 c 0
588 508 m 0
 588 517 597 524 611 530 c 0
 634 540 642 535 684 557 c 0
 712 572 724 596 736 596 c 0
 748 596 749 583 749 577 c 0
 749 571 742 545 742 536 c 0
 740 502 737 433 737 271 c 0
 737 190 735 143 735 114 c 0
 735 7 829 67 829 32 c 0
 829 22 817 20 803 20 c 2
 708 20 l 2
 674 20 638 18 616 18 c 0
 602 18 593 21 593 31 c 0
 593 43 606 46 619 46 c 2
 628 46 l 2
 669 46 668 74 668 78 c 0
 674 128 677 215 677 296 c 2
 677 459 l 2
 677 489 674 508 650 508 c 0
 628 508 606 496 596 496 c 0
 594 496 588 499 588 508 c 0
EndSplineSet
EndChar
StartChar: uF26C6
Encoding: 992966 992966 1826
Width: 1000
Flags: MW
LayerCount: 2
Back
Fore
SplineSet
721 -192 m 0
 721 -163 919 -65 919 281 c 0
 919 599 724 726 724 753 c 0
 724 766 738 772 744 772 c 0
 777 772 964 558 964 280 c 0
 964 -35 763 -214 742 -214 c 0
 724 -214 721 -203 721 -192 c 0
34 278 m 0
 34 593 235 772 256 772 c 0
 274 772 277 762 277 751 c 0
 277 722 79 623 79 277 c 0
 79 -41 274 -168 274 -195 c 0
 274 -208 260 -214 254 -214 c 0
 221 -214 34 0 34 278 c 0
139 32 m 0
 139 40 144 44 150 44 c 0
 166 44 177 26 240 26 c 0
 332 26 392 106 392 198 c 0
 392 263 355 320 272 320 c 0
 221 320 214 312 201 312 c 0
 186 312 183 326 183 332 c 0
 183 351 202 437 217 548 c 0
 219 559 225 568 243 568 c 0
 394 570 400 568 416 580 c 0
 430 590 432 600 442 600 c 0
 448 600 452 596 452 592 c 0
 452 589 450 584 448 580 c 0
 416 515 417 509 399 509 c 0
 393 509 367 510 346 510 c 0
 286 510 244 502 242 497 c 0
 235 480 223 403 223 385 c 0
 223 379 226 373 228 373 c 0
 230 373 243 380 296 380 c 0
 346 380 391 360 416 332 c 0
 445 300 457 258 457 228 c 0
 457 71 345 -4 251 -4 c 0
 212 -4 139 6 139 32 c 0
535 57 m 0
 535 60 537 70 552 70 c 0
 564 70 581 32 651 32 c 0
 755 32 794 140 794 194 c 0
 794 252 769 312 681 312 c 0
 665 312 658 308 656 308 c 0
 647 308 645 315 645 320 c 0
 645 330 657 328 712 370 c 0
 744 395 762 431 762 464 c 0
 762 505 730 540 688 540 c 0
 635 540 596 492 581 492 c 0
 575 492 575 496 575 500 c 0
 575 538 653 588 708 588 c 0
 766 588 824 559 824 494 c 0
 824 436 793 410 759 376 c 0
 752 369 747 364 747 360 c 0
 747 354 778 358 810 332 c 0
 840 308 861 276 861 226 c 0
 861 96 767 2 660 2 c 0
 600 2 535 31 535 57 c 0
EndSplineSet
EndChar
StartChar: uF26C8
Encoding: 992968 992968 1828
Width: 1000
Flags: MW
LayerCount: 2
Back
Fore
SplineSet
721 -192 m 0
 721 -163 919 -65 919 281 c 0
 919 599 724 726 724 753 c 0
 724 766 738 772 744 772 c 0
 777 772 964 558 964 280 c 0
 964 -35 763 -214 742 -214 c 0
 724 -214 721 -203 721 -192 c 0
34 278 m 0
 34 593 235 772 256 772 c 0
 274 772 277 762 277 751 c 0
 277 722 79 623 79 277 c 0
 79 -41 274 -168 274 -195 c 0
 274 -208 260 -214 254 -214 c 0
 221 -214 34 0 34 278 c 0
141 32 m 0
 141 40 146 44 152 44 c 0
 168 44 179 26 242 26 c 0
 334 26 394 106 394 198 c 0
 394 263 357 320 274 320 c 0
 223 320 216 312 203 312 c 0
 188 312 185 326 185 332 c 0
 185 351 204 437 219 548 c 0
 221 559 227 568 245 568 c 0
 396 570 402 568 418 580 c 0
 432 590 434 600 444 600 c 0
 450 600 454 596 454 592 c 0
 454 589 452 584 450 580 c 0
 418 515 419 509 401 509 c 0
 395 509 369 510 348 510 c 0
 288 510 246 502 244 497 c 0
 237 480 225 403 225 385 c 0
 225 379 228 373 230 373 c 0
 232 373 245 380 298 380 c 0
 348 380 393 360 418 332 c 0
 447 300 459 258 459 228 c 0
 459 71 347 -4 253 -4 c 0
 214 -4 141 6 141 32 c 0
541 32 m 0
 541 40 546 44 552 44 c 0
 568 44 579 26 642 26 c 0
 734 26 794 106 794 198 c 0
 794 263 757 320 674 320 c 0
 623 320 616 312 603 312 c 0
 588 312 585 326 585 332 c 0
 585 351 604 437 619 548 c 0
 621 559 627 568 645 568 c 0
 796 570 802 568 818 580 c 0
 832 590 834 600 844 600 c 0
 850 600 854 596 854 592 c 0
 854 589 852 584 850 580 c 0
 818 515 819 509 801 509 c 0
 795 509 769 510 748 510 c 0
 688 510 646 502 644 497 c 0
 637 480 625 403 625 385 c 0
 625 379 628 373 630 373 c 0
 632 373 645 380 698 380 c 0
 748 380 793 360 818 332 c 0
 847 300 859 258 859 228 c 0
 859 71 747 -4 653 -4 c 0
 614 -4 541 6 541 32 c 0
EndSplineSet
EndChar
StartChar: uF26C9
Encoding: 992969 992969 1829
Width: 1000
Flags: MW
LayerCount: 2
Back
Fore
SplineSet
721 -192 m 0
 721 -163 919 -65 919 281 c 0
 919 599 724 726 724 753 c 0
 724 766 738 772 744 772 c 0
 777 772 964 558 964 280 c 0
 964 -35 763 -214 742 -214 c 0
 724 -214 721 -203 721 -192 c 0
34 278 m 0
 34 593 235 772 256 772 c 0
 274 772 277 762 277 751 c 0
 277 722 79 623 79 277 c 0
 79 -41 274 -168 274 -195 c 0
 274 -208 260 -214 254 -214 c 0
 221 -214 34 0 34 278 c 0
134 32 m 0
 134 40 139 44 145 44 c 0
 161 44 172 26 235 26 c 0
 327 26 387 106 387 198 c 0
 387 263 350 320 267 320 c 0
 216 320 209 312 196 312 c 0
 181 312 178 326 178 332 c 0
 178 351 197 437 212 548 c 0
 214 559 220 568 238 568 c 0
 389 570 395 568 411 580 c 0
 425 590 427 600 437 600 c 0
 443 600 447 596 447 592 c 0
 447 589 446 584 444 580 c 0
 412 515 412 509 394 509 c 0
 388 509 362 510 341 510 c 0
 281 510 239 502 237 497 c 0
 230 480 218 403 218 385 c 0
 218 379 222 373 224 373 c 0
 226 373 239 380 292 380 c 0
 342 380 386 360 411 332 c 0
 440 300 452 258 452 228 c 0
 452 71 340 -4 246 -4 c 0
 207 -4 134 6 134 32 c 0
520 219 m 0
 520 494 781 598 835 598 c 0
 845 598 848 590 848 584 c 0
 848 562 799 583 713 509 c 0
 635 443 601 356 601 330 c 0
 601 325 602 322 604 322 c 0
 612 322 639 378 721 378 c 0
 802 378 866 308 866 203 c 0
 866 90 792 3 698 3 c 0
 681 3 642 6 608 32 c 0
 574 59 520 115 520 219 c 0
586 212 m 0
 586 166 611 36 716 36 c 0
 780 36 810 99 810 168 c 0
 810 251 767 342 687 342 c 0
 653 342 600 311 592 270 c 0
 589 252 586 238 586 212 c 0
EndSplineSet
EndChar
StartChar: uF26CB
Encoding: 992971 992971 1831
Width: 1000
Flags: MW
LayerCount: 2
Back
Fore
SplineSet
721 -192 m 0
 721 -163 919 -65 919 281 c 0
 919 599 724 726 724 753 c 0
 724 766 738 772 744 772 c 0
 777 772 964 558 964 280 c 0
 964 -35 763 -214 742 -214 c 0
 724 -214 721 -203 721 -192 c 0
34 278 m 0
 34 593 235 772 256 772 c 0
 274 772 277 762 277 751 c 0
 277 722 79 623 79 277 c 0
 79 -41 274 -168 274 -195 c 0
 274 -208 260 -214 254 -214 c 0
 221 -214 34 0 34 278 c 0
136 32 m 0
 136 40 141 44 147 44 c 0
 163 44 173 26 236 26 c 0
 328 26 388 106 388 198 c 0
 388 263 351 320 268 320 c 0
 217 320 211 312 198 312 c 0
 183 312 180 326 180 332 c 0
 180 351 199 437 214 548 c 0
 216 559 222 568 240 568 c 0
 391 570 396 568 412 580 c 0
 426 590 429 600 439 600 c 0
 445 600 448 596 448 592 c 0
 448 589 447 584 445 580 c 0
 413 515 414 509 396 509 c 0
 390 509 364 510 343 510 c 0
 283 510 241 502 239 497 c 0
 232 480 220 403 220 385 c 0
 220 379 223 373 225 373 c 0
 227 373 240 380 293 380 c 0
 343 380 387 360 412 332 c 0
 441 300 454 258 454 228 c 0
 454 71 342 -4 248 -4 c 0
 209 -4 136 6 136 32 c 0
524 165 m 0
 524 283 626 314 626 319 c 0
 626 327 549 349 549 439 c 0
 549 535 623 588 703 588 c 0
 817 588 845 512 845 459 c 0
 845 348 751 344 751 338 c 0
 751 328 864 298 864 177 c 0
 864 111 830 4 692 4 c 0
 601 4 524 59 524 165 c 0
570 188 m 0
 570 89 641 34 707 34 c 0
 762 34 812 74 812 159 c 0
 812 192 794 223 774 240 c 0
 726 281 667 301 652 301 c 0
 622 301 570 253 570 188 c 0
600 459 m 0
 600 373 710 354 724 354 c 0
 754 354 799 382 799 454 c 0
 799 488 775 557 698 557 c 0
 656 557 600 538 600 459 c 0
EndSplineSet
EndChar
StartChar: uF26CC
Encoding: 992972 992972 1832
Width: 1000
Flags: MW
LayerCount: 2
Back
Fore
SplineSet
721 -192 m 0
 721 -163 919 -65 919 281 c 0
 919 599 724 726 724 753 c 0
 724 766 738 772 744 772 c 0
 777 772 964 558 964 280 c 0
 964 -35 763 -214 742 -214 c 0
 724 -214 721 -203 721 -192 c 0
34 278 m 0
 34 593 235 772 256 772 c 0
 274 772 277 762 277 751 c 0
 277 722 79 623 79 277 c 0
 79 -41 274 -168 274 -195 c 0
 274 -208 260 -214 254 -214 c 0
 221 -214 34 0 34 278 c 0
130 32 m 0
 130 40 135 44 141 44 c 0
 157 44 168 26 231 26 c 0
 323 26 383 106 383 198 c 0
 383 263 346 320 263 320 c 0
 212 320 205 312 192 312 c 0
 177 312 174 326 174 332 c 0
 174 351 193 437 208 548 c 0
 210 559 216 568 234 568 c 0
 385 570 391 568 407 580 c 0
 421 590 423 600 433 600 c 0
 439 600 443 596 443 592 c 0
 443 589 442 584 440 580 c 0
 408 515 408 509 390 509 c 0
 384 509 358 510 337 510 c 0
 277 510 235 502 233 497 c 0
 226 480 214 403 214 385 c 0
 214 379 218 373 220 373 c 0
 222 373 235 380 288 380 c 0
 338 380 382 360 407 332 c 0
 436 300 448 258 448 228 c 0
 448 71 336 -4 242 -4 c 0
 203 -4 130 6 130 32 c 0
524 391 m 0
 524 494 589 588 693 588 c 0
 799 588 870 490 870 372 c 0
 870 269 823 145 723 69 c 0
 660 21 589 -3 555 -3 c 0
 543 -3 542 4 542 8 c 0
 542 11 542 17 554 19 c 0
 600 29 659 63 709 115 c 0
 749 157 781 238 781 253 c 0
 781 257 780 258 778 258 c 0
 771 258 735 212 679 212 c 0
 576 212 524 301 524 391 c 0
583 432 m 0
 583 349 631 251 700 251 c 0
 774 251 801 312 801 380 c 0
 801 454 758 552 680 552 c 0
 613 552 583 496 583 432 c 0
EndSplineSet
EndChar
StartChar: uF26CD
Encoding: 992973 992973 1833
Width: 1000
Flags: MW
LayerCount: 2
Back
Fore
SplineSet
721 -192 m 0
 721 -163 919 -65 919 281 c 0
 919 599 724 726 724 753 c 0
 724 766 738 772 744 772 c 0
 777 772 964 558 964 280 c 0
 964 -35 763 -214 742 -214 c 0
 724 -214 721 -203 721 -192 c 0
34 278 m 0
 34 593 235 772 256 772 c 0
 274 772 277 762 277 751 c 0
 277 722 79 623 79 277 c 0
 79 -41 274 -168 274 -195 c 0
 274 -208 260 -214 254 -214 c 0
 221 -214 34 0 34 278 c 0
125 219 m 0
 125 494 386 599 440 599 c 0
 450 599 454 591 454 585 c 0
 454 563 404 584 318 510 c 0
 240 444 206 357 206 331 c 0
 206 326 208 323 210 323 c 0
 218 323 244 379 326 379 c 0
 407 379 471 308 471 203 c 0
 471 90 397 3 303 3 c 0
 286 3 247 6 213 32 c 0
 179 59 125 115 125 219 c 0
191 212 m 0
 191 166 217 36 322 36 c 0
 386 36 415 100 415 169 c 0
 415 252 372 343 292 343 c 0
 258 343 205 312 197 271 c 0
 194 253 191 238 191 212 c 0
521 279 m 0
 521 473 608 590 710 590 c 0
 820 590 875 464 875 310 c 0
 875 149 815 9 694 9 c 0
 559 9 521 141 521 279 c 0
569 332 m 0
 569 195 624 42 715 42 c 0
 793 42 831 152 831 269 c 0
 831 401 782 542 687 542 c 0
 604 542 569 442 569 332 c 0
EndSplineSet
EndChar
StartChar: uF26CE
Encoding: 992974 992974 1834
Width: 1000
Flags: MW
LayerCount: 2
Back
Fore
SplineSet
721 -192 m 0
 721 -163 919 -65 919 281 c 0
 919 599 724 726 724 753 c 0
 724 766 738 772 744 772 c 0
 777 772 964 558 964 280 c 0
 964 -35 763 -214 742 -214 c 0
 724 -214 721 -203 721 -192 c 0
34 278 m 0
 34 593 235 772 256 772 c 0
 274 772 277 762 277 751 c 0
 277 722 79 623 79 277 c 0
 79 -41 274 -168 274 -195 c 0
 274 -208 260 -214 254 -214 c 0
 221 -214 34 0 34 278 c 0
164 219 m 0
 164 494 425 599 479 599 c 0
 489 599 492 591 492 585 c 0
 492 563 443 584 357 510 c 0
 279 444 245 357 245 331 c 0
 245 326 246 323 248 323 c 0
 256 323 283 379 365 379 c 0
 446 379 510 308 510 203 c 0
 510 90 436 3 342 3 c 0
 325 3 286 6 252 32 c 0
 218 59 164 115 164 219 c 0
230 212 m 0
 230 166 255 36 360 36 c 0
 424 36 454 100 454 169 c 0
 454 252 411 343 331 343 c 0
 297 343 244 312 236 271 c 0
 233 253 230 238 230 212 c 0
595 509 m 0
 595 518 604 525 618 531 c 0
 641 541 649 536 691 558 c 0
 719 573 732 596 744 596 c 0
 756 596 756 584 756 578 c 0
 756 572 749 546 749 537 c 0
 747 503 744 433 744 271 c 0
 744 190 742 144 742 115 c 0
 742 8 836 67 836 32 c 0
 836 22 824 21 810 21 c 2
 716 21 l 2
 682 21 645 19 623 19 c 0
 609 19 600 21 600 31 c 0
 600 43 613 47 626 47 c 2
 635 47 l 2
 676 47 676 75 676 79 c 0
 682 129 684 216 684 297 c 2
 684 459 l 2
 684 489 681 509 657 509 c 0
 635 509 614 497 604 497 c 0
 602 497 595 500 595 509 c 0
EndSplineSet
EndChar
StartChar: uF26CF
Encoding: 992975 992975 1835
Width: 1000
Flags: MW
LayerCount: 2
Back
Fore
SplineSet
721 -192 m 0
 721 -163 919 -65 919 281 c 0
 919 599 724 726 724 753 c 0
 724 766 738 772 744 772 c 0
 777 772 964 558 964 280 c 0
 964 -35 763 -214 742 -214 c 0
 724 -214 721 -203 721 -192 c 0
34 278 m 0
 34 593 235 772 256 772 c 0
 274 772 277 762 277 751 c 0
 277 722 79 623 79 277 c 0
 79 -41 274 -168 274 -195 c 0
 274 -208 260 -214 254 -214 c 0
 221 -214 34 0 34 278 c 0
126 219 m 0
 126 494 388 599 442 599 c 0
 452 599 455 591 455 585 c 0
 455 563 406 584 320 510 c 0
 242 444 208 357 208 331 c 0
 208 326 209 323 211 323 c 0
 219 323 246 379 328 379 c 0
 409 379 473 308 473 203 c 0
 473 90 399 3 305 3 c 0
 288 3 248 6 214 32 c 0
 180 59 126 115 126 219 c 0
193 212 m 0
 193 166 218 36 323 36 c 0
 387 36 417 100 417 169 c 0
 417 252 374 343 294 343 c 0
 260 343 206 312 198 271 c 0
 195 253 193 238 193 212 c 0
542 31 m 2
 542 33 l 2
 542 58 626 110 720 315 c 0
 741 361 755 417 755 464 c 0
 755 508 723 541 672 541 c 0
 594 541 571 490 555 490 c 0
 551 490 549 495 549 501 c 0
 549 509 594 595 698 595 c 0
 757 595 822 560 822 483 c 0
 822 339 627 108 627 92 c 0
 627 84 663 83 686 83 c 0
 812 83 793 84 813 94 c 0
 836 105 854 138 865 138 c 0
 871 138 874 134 874 130 c 0
 874 124 818 34 818 34 c 2
 810 23 801 20 794 20 c 0
 703 20 700 22 662 22 c 0
 643 22 590 20 568 20 c 0
 542 20 542 25 542 31 c 2
EndSplineSet
EndChar
StartChar: uF26D0
Encoding: 992976 992976 1836
Width: 1000
Flags: MW
LayerCount: 2
Back
Fore
SplineSet
721 -192 m 0
 721 -163 919 -65 919 281 c 0
 919 599 724 726 724 753 c 0
 724 766 738 772 744 772 c 0
 777 772 964 558 964 280 c 0
 964 -35 763 -214 742 -214 c 0
 724 -214 721 -203 721 -192 c 0
34 278 m 0
 34 593 235 772 256 772 c 0
 274 772 277 762 277 751 c 0
 277 722 79 623 79 277 c 0
 79 -41 274 -168 274 -195 c 0
 274 -208 260 -214 254 -214 c 0
 221 -214 34 0 34 278 c 0
132 219 m 0
 132 494 393 598 447 598 c 0
 457 598 460 591 460 585 c 0
 460 563 411 584 325 510 c 0
 247 444 213 356 213 330 c 0
 213 325 214 322 216 322 c 0
 224 322 251 378 333 378 c 0
 414 378 478 308 478 203 c 0
 478 90 404 3 310 3 c 0
 293 3 254 6 220 32 c 0
 186 59 132 115 132 219 c 0
198 212 m 0
 198 166 223 36 328 36 c 0
 392 36 422 100 422 169 c 0
 422 252 379 342 299 342 c 0
 265 342 212 311 204 270 c 0
 201 252 198 238 198 212 c 0
542 58 m 0
 542 61 544 70 559 70 c 0
 571 70 588 33 658 33 c 0
 762 33 801 140 801 194 c 0
 801 252 776 312 688 312 c 0
 672 312 666 309 664 309 c 0
 655 309 652 316 652 321 c 0
 652 331 664 328 719 370 c 0
 751 395 769 432 769 465 c 0
 769 506 738 541 696 541 c 0
 643 541 603 493 588 493 c 0
 582 493 582 496 582 500 c 0
 582 538 660 588 715 588 c 0
 773 588 831 559 831 494 c 0
 831 436 800 410 766 376 c 0
 759 369 754 365 754 361 c 0
 754 355 785 359 817 333 c 0
 847 309 868 276 868 226 c 0
 868 96 774 2 667 2 c 0
 607 2 542 32 542 58 c 0
EndSplineSet
EndChar
StartChar: uF26D1
Encoding: 992977 992977 1837
Width: 1000
Flags: MW
LayerCount: 2
Back
Fore
SplineSet
721 -192 m 0
 721 -163 919 -65 919 281 c 0
 919 599 724 726 724 753 c 0
 724 766 738 772 744 772 c 0
 777 772 964 558 964 280 c 0
 964 -35 763 -214 742 -214 c 0
 724 -214 721 -203 721 -192 c 0
34 278 m 0
 34 593 235 772 256 772 c 0
 274 772 277 762 277 751 c 0
 277 722 79 623 79 277 c 0
 79 -41 274 -168 274 -195 c 0
 274 -208 260 -214 254 -214 c 0
 221 -214 34 0 34 278 c 0
121 213 m 0
 121 488 382 592 436 592 c 0
 446 592 450 584 450 578 c 0
 450 556 401 577 315 503 c 0
 237 437 203 350 203 324 c 0
 203 319 204 316 206 316 c 0
 214 316 241 372 323 372 c 0
 404 372 468 302 468 197 c 0
 468 84 394 -3 300 -3 c 0
 283 -3 243 -1 209 25 c 0
 175 52 121 109 121 213 c 0
188 205 m 0
 188 159 213 29 318 29 c 0
 382 29 412 93 412 162 c 0
 412 245 368 336 288 336 c 0
 254 336 201 305 193 264 c 0
 190 246 188 231 188 205 c 0
509 193 m 0
 509 213 518 224 722 507 c 0
 746 541 768 581 785 581 c 0
 792 581 799 576 799 565 c 0
 799 560 789 295 789 257 c 0
 789 240 790 237 800 237 c 0
 855 237 851 263 869 263 c 0
 871 263 879 262 879 252 c 0
 879 242 874 231 870 217 c 0
 868 211 866 180 849 180 c 0
 836 180 813 182 802 182 c 0
 792 182 788 177 788 166 c 0
 788 137 789 110 789 60 c 0
 789 -4 790 11 790 -11 c 0
 790 -51 789 -44 760 -53 c 0
 749 -56 737 -58 734 -58 c 0
 721 -58 716 -42 716 -36 c 0
 716 -28 730 -2 730 177 c 0
 730 182 726 181 721 181 c 2
 620 181 l 2
 587 181 557 180 532 180 c 0
 516 180 509 181 509 193 c 0
580 242 m 0
 580 236 589 235 602 235 c 2
 708 235 l 2
 730 235 731 238 731 252 c 0
 731 258 734 387 734 437 c 0
 734 452 732 461 730 461 c 0
 724 461 580 261 580 242 c 0
EndSplineSet
EndChar
StartChar: uF26D2
Encoding: 992978 992978 1838
Width: 1000
Flags: MW
LayerCount: 2
Back
Fore
SplineSet
721 -192 m 0
 721 -163 919 -65 919 281 c 0
 919 599 724 726 724 753 c 0
 724 766 738 772 744 772 c 0
 777 772 964 558 964 280 c 0
 964 -35 763 -214 742 -214 c 0
 724 -214 721 -203 721 -192 c 0
34 278 m 0
 34 593 235 772 256 772 c 0
 274 772 277 762 277 751 c 0
 277 722 79 623 79 277 c 0
 79 -41 274 -168 274 -195 c 0
 274 -208 260 -214 254 -214 c 0
 221 -214 34 0 34 278 c 0
134 219 m 0
 134 494 395 598 449 598 c 0
 459 598 462 590 462 584 c 0
 462 562 413 583 327 509 c 0
 249 443 215 356 215 330 c 0
 215 325 216 322 218 322 c 0
 226 322 253 378 335 378 c 0
 416 378 480 308 480 203 c 0
 480 90 406 3 312 3 c 0
 295 3 256 6 222 32 c 0
 188 59 134 115 134 219 c 0
200 212 m 0
 200 166 225 36 330 36 c 0
 394 36 424 99 424 168 c 0
 424 251 381 342 301 342 c 0
 267 342 214 311 206 270 c 0
 203 252 200 238 200 212 c 0
548 32 m 0
 548 40 553 44 559 44 c 0
 575 44 586 26 649 26 c 0
 741 26 801 106 801 198 c 0
 801 263 764 320 681 320 c 0
 630 320 623 312 610 312 c 0
 595 312 592 326 592 332 c 0
 592 351 611 437 626 548 c 0
 628 559 634 568 652 568 c 0
 803 570 809 568 825 580 c 0
 839 590 841 600 851 600 c 0
 857 600 861 596 861 592 c 0
 861 589 860 584 858 580 c 0
 826 515 826 509 808 509 c 0
 802 509 776 510 755 510 c 0
 695 510 653 502 651 497 c 0
 644 480 632 403 632 385 c 0
 632 379 636 373 638 373 c 0
 640 373 653 380 706 380 c 0
 756 380 800 360 825 332 c 0
 854 300 866 258 866 228 c 0
 866 71 754 -4 660 -4 c 0
 621 -4 548 6 548 32 c 0
EndSplineSet
EndChar
StartChar: uF26D3
Encoding: 992979 992979 1839
Width: 1000
Flags: MW
LayerCount: 2
Back
Fore
SplineSet
721 -192 m 0
 721 -163 919 -65 919 281 c 0
 919 599 724 726 724 753 c 0
 724 766 738 772 744 772 c 0
 777 772 964 558 964 280 c 0
 964 -35 763 -214 742 -214 c 0
 724 -214 721 -203 721 -192 c 0
34 278 m 0
 34 593 235 772 256 772 c 0
 274 772 277 762 277 751 c 0
 277 722 79 623 79 277 c 0
 79 -41 274 -168 274 -195 c 0
 274 -208 260 -214 254 -214 c 0
 221 -214 34 0 34 278 c 0
127 219 m 0
 127 494 388 599 442 599 c 0
 452 599 456 591 456 585 c 0
 456 563 406 584 320 510 c 0
 242 444 208 357 208 331 c 0
 208 326 210 323 212 323 c 0
 220 323 246 379 328 379 c 0
 409 379 473 308 473 203 c 0
 473 90 399 3 305 3 c 0
 288 3 249 6 215 32 c 0
 181 59 127 115 127 219 c 0
193 212 m 0
 193 166 219 36 324 36 c 0
 388 36 417 100 417 169 c 0
 417 252 374 343 294 343 c 0
 260 343 207 312 199 271 c 0
 196 253 193 238 193 212 c 0
527 219 m 0
 527 494 788 599 842 599 c 0
 852 599 856 591 856 585 c 0
 856 563 806 584 720 510 c 0
 642 444 608 357 608 331 c 0
 608 326 610 323 612 323 c 0
 620 323 646 379 728 379 c 0
 809 379 873 308 873 203 c 0
 873 90 799 3 705 3 c 0
 688 3 649 6 615 32 c 0
 581 59 527 115 527 219 c 0
593 212 m 0
 593 166 619 36 724 36 c 0
 788 36 817 100 817 169 c 0
 817 252 774 343 694 343 c 0
 660 343 607 312 599 271 c 0
 596 253 593 238 593 212 c 0
EndSplineSet
EndChar
StartChar: uF26D4
Encoding: 992980 992980 1840
Width: 1000
Flags: MW
LayerCount: 2
Back
Fore
SplineSet
721 -192 m 0
 721 -163 919 -65 919 281 c 0
 919 599 724 726 724 753 c 0
 724 766 738 772 744 772 c 0
 777 772 964 558 964 280 c 0
 964 -35 763 -214 742 -214 c 0
 724 -214 721 -203 721 -192 c 0
34 278 m 0
 34 593 235 772 256 772 c 0
 274 772 277 762 277 751 c 0
 277 722 79 623 79 277 c 0
 79 -41 274 -168 274 -195 c 0
 274 -208 260 -214 254 -214 c 0
 221 -214 34 0 34 278 c 0
139 214 m 0
 139 489 400 593 454 593 c 0
 464 593 468 586 468 580 c 0
 468 558 418 579 332 505 c 0
 254 439 220 351 220 325 c 0
 220 320 222 317 224 317 c 0
 232 317 258 373 340 373 c 0
 421 373 485 303 485 198 c 0
 485 85 411 -2 317 -2 c 0
 300 -2 261 1 227 27 c 0
 193 54 139 110 139 214 c 0
205 207 m 0
 205 161 231 31 336 31 c 0
 400 31 429 95 429 164 c 0
 429 247 386 337 306 337 c 0
 272 337 219 306 211 265 c 0
 208 247 205 233 205 207 c 0
563 465 m 0
 563 495 576 528 581 558 c 0
 582 565 590 568 594 568 c 0
 620 568 621 565 724 565 c 2
 748 565 l 2
 819 565 826 566 840 566 c 0
 852 566 861 559 861 549 c 0
 861 434 724 201 724 73 c 0
 724 8 741 -5 741 -19 c 0
 741 -38 698 -43 692 -43 c 0
 670 -43 652 -36 652 27 c 0
 652 151 766 329 800 425 c 0
 812 459 819 485 819 497 c 0
 819 500 813 507 803 507 c 0
 799 507 794 508 788 508 c 0
 778 508 731 506 693 506 c 0
 679 506 680 507 669 507 c 0
 609 507 596 486 588 460 c 0
 585 449 580 433 573 433 c 0
 566 433 563 447 563 465 c 0
EndSplineSet
EndChar
StartChar: uF26D5
Encoding: 992981 992981 1841
Width: 1000
Flags: MW
LayerCount: 2
Back
Fore
SplineSet
721 -192 m 0
 721 -163 919 -65 919 281 c 0
 919 599 724 726 724 753 c 0
 724 766 738 772 744 772 c 0
 777 772 964 558 964 280 c 0
 964 -35 763 -214 742 -214 c 0
 724 -214 721 -203 721 -192 c 0
34 278 m 0
 34 593 235 772 256 772 c 0
 274 772 277 762 277 751 c 0
 277 722 79 623 79 277 c 0
 79 -41 274 -168 274 -195 c 0
 274 -208 260 -214 254 -214 c 0
 221 -214 34 0 34 278 c 0
128 219 m 0
 128 494 390 599 444 599 c 0
 454 599 457 591 457 585 c 0
 457 563 408 584 322 510 c 0
 244 444 210 357 210 331 c 0
 210 326 211 323 213 323 c 0
 221 323 248 379 330 379 c 0
 411 379 475 308 475 203 c 0
 475 90 401 3 307 3 c 0
 290 3 250 6 216 32 c 0
 182 59 128 115 128 219 c 0
195 212 m 0
 195 166 220 36 325 36 c 0
 389 36 419 100 419 169 c 0
 419 252 376 343 296 343 c 0
 262 343 208 312 200 271 c 0
 197 253 195 238 195 212 c 0
532 166 m 0
 532 284 633 314 633 319 c 0
 633 327 556 349 556 439 c 0
 556 535 630 588 710 588 c 0
 824 588 852 512 852 459 c 0
 852 348 758 345 758 339 c 0
 758 329 872 299 872 178 c 0
 872 112 837 4 699 4 c 0
 608 4 532 60 532 166 c 0
577 189 m 0
 577 90 648 35 714 35 c 0
 769 35 820 74 820 159 c 0
 820 192 801 224 781 241 c 0
 733 282 675 302 660 302 c 0
 630 302 577 254 577 189 c 0
608 459 m 0
 608 373 717 355 731 355 c 0
 761 355 806 383 806 455 c 0
 806 489 782 558 705 558 c 0
 663 558 608 538 608 459 c 0
EndSplineSet
EndChar
StartChar: uF26D6
Encoding: 992982 992982 1842
Width: 1000
Flags: MW
LayerCount: 2
Back
Fore
SplineSet
721 -192 m 0
 721 -163 919 -65 919 281 c 0
 919 599 724 726 724 753 c 0
 724 766 738 772 744 772 c 0
 777 772 964 558 964 280 c 0
 964 -35 763 -214 742 -214 c 0
 724 -214 721 -203 721 -192 c 0
34 278 m 0
 34 593 235 772 256 772 c 0
 274 772 277 762 277 751 c 0
 277 722 79 623 79 277 c 0
 79 -41 274 -168 274 -195 c 0
 274 -208 260 -214 254 -214 c 0
 221 -214 34 0 34 278 c 0
123 219 m 0
 123 494 384 598 438 598 c 0
 448 598 452 590 452 584 c 0
 452 562 402 583 316 509 c 0
 238 443 204 356 204 330 c 0
 204 325 206 322 208 322 c 0
 216 322 242 378 324 378 c 0
 405 378 469 308 469 203 c 0
 469 90 395 3 301 3 c 0
 284 3 245 6 211 32 c 0
 177 59 123 115 123 219 c 0
189 212 m 0
 189 166 215 36 320 36 c 0
 384 36 413 99 413 168 c 0
 413 251 370 342 290 342 c 0
 256 342 203 311 195 270 c 0
 192 252 189 238 189 212 c 0
531 391 m 0
 531 494 596 588 700 588 c 0
 806 588 877 490 877 372 c 0
 877 269 830 145 730 69 c 0
 667 21 596 -3 562 -3 c 0
 550 -3 549 4 549 8 c 0
 549 11 549 17 561 19 c 0
 607 29 666 63 716 115 c 0
 756 157 788 238 788 253 c 0
 788 257 787 258 785 258 c 0
 778 258 742 212 686 212 c 0
 583 212 531 301 531 391 c 0
590 432 m 0
 590 349 638 251 707 251 c 0
 781 251 808 312 808 380 c 0
 808 454 765 552 687 552 c 0
 620 552 590 496 590 432 c 0
EndSplineSet
EndChar
StartChar: uF26D7
Encoding: 992983 992983 1843
Width: 1000
Flags: MW
LayerCount: 2
Back
Fore
SplineSet
721 -192 m 0
 721 -163 919 -65 919 281 c 0
 919 599 724 726 724 753 c 0
 724 766 738 772 744 772 c 0
 777 772 964 558 964 280 c 0
 964 -35 763 -214 742 -214 c 0
 724 -214 721 -203 721 -192 c 0
34 278 m 0
 34 593 235 772 256 772 c 0
 274 772 277 762 277 751 c 0
 277 722 79 623 79 277 c 0
 79 -41 274 -168 274 -195 c 0
 274 -208 260 -214 254 -214 c 0
 221 -214 34 0 34 278 c 0
137 464 m 0
 137 494 150 527 155 557 c 0
 156 564 164 567 168 567 c 0
 194 567 195 564 298 564 c 2
 322 564 l 2
 393 564 400 565 414 565 c 0
 426 565 435 558 435 548 c 0
 435 433 298 200 298 72 c 0
 298 7 315 -6 315 -20 c 0
 315 -39 272 -44 266 -44 c 0
 244 -44 226 -37 226 26 c 0
 226 150 340 328 374 424 c 0
 386 458 393 484 393 496 c 0
 393 499 387 506 377 506 c 0
 373 506 368 507 362 507 c 0
 352 507 305 505 267 505 c 0
 253 505 254 506 243 506 c 0
 183 506 170 485 162 459 c 0
 159 448 154 432 147 432 c 0
 140 432 137 446 137 464 c 0
509 272 m 0
 509 466 596 584 698 584 c 0
 808 584 863 458 863 304 c 0
 863 143 803 3 682 3 c 0
 547 3 509 134 509 272 c 0
557 326 m 0
 557 189 612 36 703 36 c 0
 781 36 819 146 819 263 c 0
 819 395 770 536 675 536 c 0
 592 536 557 436 557 326 c 0
EndSplineSet
EndChar
StartChar: uF26D9
Encoding: 992985 992985 1845
Width: 1000
Flags: MW
LayerCount: 2
Back
Fore
SplineSet
721 -192 m 0
 721 -163 919 -65 919 281 c 0
 919 599 724 726 724 753 c 0
 724 766 738 772 744 772 c 0
 777 772 964 558 964 280 c 0
 964 -35 763 -214 742 -214 c 0
 724 -214 721 -203 721 -192 c 0
34 278 m 0
 34 593 235 772 256 772 c 0
 274 772 277 762 277 751 c 0
 277 722 79 623 79 277 c 0
 79 -41 274 -168 274 -195 c 0
 274 -208 260 -214 254 -214 c 0
 221 -214 34 0 34 278 c 0
163 464 m 0
 163 494 177 528 182 558 c 0
 183 565 191 567 195 567 c 0
 221 567 221 564 324 564 c 2
 349 564 l 2
 420 564 427 566 441 566 c 0
 453 566 462 559 462 549 c 0
 462 434 325 200 325 72 c 0
 325 7 342 -5 342 -19 c 0
 342 -38 298 -44 292 -44 c 0
 270 -44 252 -36 252 27 c 0
 252 151 367 328 401 424 c 0
 413 458 419 484 419 496 c 0
 419 499 413 507 403 507 c 0
 399 507 394 507 388 507 c 0
 378 507 332 506 294 506 c 0
 280 506 281 507 270 507 c 0
 210 507 197 485 189 459 c 0
 186 448 181 432 174 432 c 0
 167 432 163 446 163 464 c 0
505 25 m 6
 505 27 l 6
 505 52 589 105 683 310 c 4
 704 356 718 412 718 459 c 4
 718 503 686 535 635 535 c 4
 557 535 534 484 518 484 c 4
 514 484 512 489 512 495 c 4
 512 503 557 590 661 590 c 4
 720 590 785 554 785 477 c 4
 785 333 590 103 590 87 c 4
 590 79 626 77 649 77 c 4
 775 77 756 78 776 88 c 4
 799 99 817 132 828 132 c 4
 834 132 837 128 837 124 c 4
 837 118 781 28 781 28 c 6
 773 17 764 15 757 15 c 4
 666 15 663 16 625 16 c 4
 606 16 553 15 531 15 c 4
 505 15 505 19 505 25 c 6
EndSplineSet
EndChar
StartChar: uF26DB
Encoding: 992987 992987 1847
Width: 1000
Flags: MW
LayerCount: 2
Back
Fore
SplineSet
721 -192 m 0
 721 -163 919 -65 919 281 c 0
 919 599 724 726 724 753 c 0
 724 766 738 772 744 772 c 0
 777 772 964 558 964 280 c 0
 964 -35 763 -214 742 -214 c 0
 724 -214 721 -203 721 -192 c 0
34 278 m 0
 34 593 235 772 256 772 c 0
 274 772 277 762 277 751 c 0
 277 722 79 623 79 277 c 0
 79 -41 274 -168 274 -195 c 0
 274 -208 260 -214 254 -214 c 0
 221 -214 34 0 34 278 c 0
158 462 m 0
 158 492 172 525 177 555 c 0
 178 562 185 565 189 565 c 0
 215 565 216 562 319 562 c 2
 344 562 l 2
 415 562 422 563 436 563 c 0
 448 563 457 556 457 546 c 0
 457 431 320 198 320 70 c 0
 320 5 337 -8 337 -22 c 0
 337 -41 293 -46 287 -46 c 0
 265 -46 247 -39 247 24 c 0
 247 148 362 326 396 422 c 0
 408 456 414 482 414 494 c 0
 414 497 408 504 398 504 c 0
 394 504 389 505 383 505 c 0
 373 505 327 503 289 503 c 0
 275 503 276 504 265 504 c 0
 205 504 192 483 184 457 c 0
 181 446 176 430 169 430 c 0
 162 430 158 444 158 462 c 0
472 191 m 4
 472 211 481 223 685 506 c 4
 709 540 731 580 748 580 c 4
 755 580 762 575 762 564 c 4
 762 559 752 294 752 256 c 4
 752 239 753 236 763 236 c 4
 818 236 814 262 832 262 c 4
 834 262 842 260 842 250 c 4
 842 240 837 229 833 215 c 4
 831 209 829 178 812 178 c 4
 799 178 776 181 765 181 c 4
 755 181 751 176 751 165 c 4
 751 136 752 108 752 58 c 4
 752 -6 753 10 753 -12 c 4
 753 -52 752 -45 723 -54 c 4
 712 -57 700 -59 697 -59 c 4
 684 -59 679 -44 679 -38 c 4
 679 -30 693 -4 693 175 c 4
 693 180 689 180 684 180 c 6
 583 180 l 6
 550 180 520 178 495 178 c 4
 479 178 472 179 472 191 c 4
543 241 m 4
 543 235 552 234 565 234 c 6
 671 234 l 6
 693 234 694 236 694 250 c 4
 694 256 697 386 697 436 c 4
 697 451 695 459 693 459 c 4
 687 459 543 260 543 241 c 4
EndSplineSet
EndChar
StartChar: uF26DD
Encoding: 992989 992989 1849
Width: 1000
Flags: MW
LayerCount: 2
Back
Fore
SplineSet
721 -192 m 0
 721 -163 919 -65 919 281 c 0
 919 599 724 726 724 753 c 0
 724 766 738 772 744 772 c 0
 777 772 964 558 964 280 c 0
 964 -35 763 -214 742 -214 c 0
 724 -214 721 -203 721 -192 c 0
34 278 m 0
 34 593 235 772 256 772 c 0
 274 772 277 762 277 751 c 0
 277 722 79 623 79 277 c 0
 79 -41 274 -168 274 -195 c 0
 274 -208 260 -214 254 -214 c 0
 221 -214 34 0 34 278 c 0
164 465 m 0
 164 495 177 528 182 558 c 0
 183 565 191 568 195 568 c 0
 221 568 222 565 325 565 c 2
 349 565 l 2
 420 565 427 566 441 566 c 0
 453 566 462 559 462 549 c 0
 462 434 325 201 325 73 c 0
 325 8 342 -5 342 -19 c 0
 342 -38 299 -43 293 -43 c 0
 271 -43 253 -36 253 27 c 0
 253 151 367 329 401 425 c 0
 413 459 420 485 420 497 c 0
 420 500 414 507 404 507 c 0
 400 507 395 508 389 508 c 0
 379 508 332 506 294 506 c 0
 280 506 281 507 270 507 c 0
 210 507 197 486 189 460 c 0
 186 449 181 433 174 433 c 0
 167 433 164 447 164 465 c 0
490 214 m 4
 490 489 751 593 805 593 c 4
 815 593 819 586 819 580 c 4
 819 558 769 579 683 505 c 4
 605 439 571 351 571 325 c 4
 571 320 573 317 575 317 c 4
 583 317 609 373 691 373 c 4
 772 373 836 303 836 198 c 4
 836 85 762 -2 668 -2 c 4
 651 -2 612 1 578 27 c 4
 544 54 490 110 490 214 c 4
556 207 m 4
 556 161 582 31 687 31 c 4
 751 31 780 95 780 164 c 4
 780 247 737 337 657 337 c 4
 623 337 570 306 562 265 c 4
 559 247 556 233 556 207 c 4
EndSplineSet
EndChar
StartChar: uF26DE
Encoding: 992990 992990 1850
Width: 1000
Flags: MW
LayerCount: 2
Back
Fore
SplineSet
721 -192 m 0
 721 -163 919 -65 919 281 c 0
 919 599 724 726 724 753 c 0
 724 766 738 772 744 772 c 0
 777 772 964 558 964 280 c 0
 964 -35 763 -214 742 -214 c 0
 724 -214 721 -203 721 -192 c 0
34 278 m 0
 34 593 235 772 256 772 c 0
 274 772 277 762 277 751 c 0
 277 722 79 623 79 277 c 0
 79 -41 274 -168 274 -195 c 0
 274 -208 260 -214 254 -214 c 0
 221 -214 34 0 34 278 c 0
176 461 m 0
 176 491 189 525 194 555 c 0
 195 562 203 565 207 565 c 0
 233 565 234 561 337 561 c 2
 361 561 l 2
 432 561 439 563 453 563 c 0
 465 563 474 556 474 546 c 0
 474 431 337 197 337 69 c 0
 337 4 354 -8 354 -22 c 0
 354 -41 311 -47 305 -47 c 0
 283 -47 265 -39 265 24 c 0
 265 148 379 325 413 421 c 0
 425 455 432 481 432 493 c 0
 432 496 426 504 416 504 c 0
 412 504 407 505 401 505 c 0
 391 505 344 503 306 503 c 0
 292 503 293 504 282 504 c 0
 222 504 209 483 201 457 c 0
 198 446 193 429 186 429 c 0
 179 429 176 443 176 461 c 0
526 461 m 4
 526 491 539 525 544 555 c 4
 545 562 553 565 557 565 c 4
 583 565 584 561 687 561 c 6
 711 561 l 6
 782 561 789 563 803 563 c 4
 815 563 824 556 824 546 c 4
 824 431 687 197 687 69 c 4
 687 4 704 -8 704 -22 c 4
 704 -41 661 -47 655 -47 c 4
 633 -47 615 -39 615 24 c 4
 615 148 729 325 763 421 c 4
 775 455 782 481 782 493 c 4
 782 496 776 504 766 504 c 4
 762 504 757 505 751 505 c 4
 741 505 694 503 656 503 c 4
 642 503 643 504 632 504 c 4
 572 504 559 483 551 457 c 4
 548 446 543 429 536 429 c 4
 529 429 526 443 526 461 c 4
EndSplineSet
EndChar
StartChar: uF26DF
Encoding: 992991 992991 1851
Width: 1000
Flags: MW
LayerCount: 2
Back
Fore
SplineSet
721 -192 m 0
 721 -163 919 -65 919 281 c 0
 919 599 724 726 724 753 c 0
 724 766 738 772 744 772 c 0
 777 772 964 558 964 280 c 0
 964 -35 763 -214 742 -214 c 0
 724 -214 721 -203 721 -192 c 0
34 278 m 0
 34 593 235 772 256 772 c 0
 274 772 277 762 277 751 c 0
 277 722 79 623 79 277 c 0
 79 -41 274 -168 274 -195 c 0
 274 -208 260 -214 254 -214 c 0
 221 -214 34 0 34 278 c 0
165 463 m 0
 165 493 179 527 184 557 c 0
 185 564 193 566 197 566 c 0
 223 566 223 563 326 563 c 2
 351 563 l 2
 422 563 429 565 443 565 c 0
 455 565 464 558 464 548 c 0
 464 433 327 199 327 71 c 0
 327 6 344 -6 344 -20 c 0
 344 -39 300 -45 294 -45 c 0
 272 -45 254 -37 254 26 c 0
 254 150 369 327 403 423 c 0
 415 457 421 483 421 495 c 0
 421 498 415 506 405 506 c 0
 401 506 396 506 390 506 c 0
 380 506 334 505 296 505 c 0
 282 505 283 506 272 506 c 0
 212 506 199 484 191 458 c 0
 188 447 183 431 176 431 c 0
 169 431 165 445 165 463 c 0
495 159 m 4
 495 277 596 308 596 313 c 4
 596 321 519 343 519 433 c 4
 519 529 593 582 673 582 c 4
 787 582 815 506 815 453 c 4
 815 342 721 338 721 332 c 4
 721 322 835 292 835 171 c 4
 835 105 800 -2 662 -2 c 4
 571 -2 495 53 495 159 c 4
540 182 m 4
 540 83 611 28 677 28 c 4
 732 28 783 68 783 153 c 4
 783 186 764 217 744 234 c 4
 696 275 638 295 623 295 c 4
 593 295 540 247 540 182 c 4
571 453 m 4
 571 367 680 348 694 348 c 4
 724 348 769 376 769 448 c 4
 769 482 745 551 668 551 c 4
 626 551 571 532 571 453 c 4
EndSplineSet
EndChar
StartChar: uF26E0
Encoding: 992992 992992 1852
Width: 1000
Flags: MW
LayerCount: 2
Back
Fore
SplineSet
721 -192 m 0
 721 -163 919 -65 919 281 c 0
 919 599 724 726 724 753 c 0
 724 766 738 772 744 772 c 0
 777 772 964 558 964 280 c 0
 964 -35 763 -214 742 -214 c 0
 724 -214 721 -203 721 -192 c 0
34 278 m 0
 34 593 235 772 256 772 c 0
 274 772 277 762 277 751 c 0
 277 722 79 623 79 277 c 0
 79 -41 274 -168 274 -195 c 0
 274 -208 260 -214 254 -214 c 0
 221 -214 34 0 34 278 c 0
160 463 m 0
 160 493 173 527 178 557 c 0
 179 564 187 566 191 566 c 0
 217 566 218 563 321 563 c 2
 345 563 l 2
 416 563 423 565 437 565 c 0
 449 565 458 558 458 548 c 0
 458 433 321 199 321 71 c 0
 321 6 338 -6 338 -20 c 0
 338 -39 295 -45 289 -45 c 0
 267 -45 249 -37 249 26 c 0
 249 150 363 327 397 423 c 0
 409 457 416 483 416 495 c 0
 416 498 410 506 400 506 c 0
 396 506 391 506 385 506 c 0
 375 506 328 505 290 505 c 0
 276 505 277 506 266 506 c 0
 206 506 193 484 185 458 c 0
 182 447 177 431 170 431 c 0
 163 431 160 445 160 463 c 0
494 385 m 4
 494 488 559 582 663 582 c 4
 769 582 840 484 840 366 c 4
 840 263 793 139 693 63 c 4
 630 15 559 -9 525 -9 c 4
 513 -9 512 -2 512 2 c 4
 512 5 512 11 524 13 c 4
 570 23 629 57 679 109 c 4
 719 151 751 232 751 247 c 4
 751 251 750 252 748 252 c 4
 741 252 705 206 649 206 c 4
 546 206 494 295 494 385 c 4
553 426 m 4
 553 343 601 245 670 245 c 4
 744 245 771 306 771 374 c 4
 771 448 728 546 650 546 c 4
 583 546 553 490 553 426 c 4
EndSplineSet
EndChar
StartChar: uF26E1
Encoding: 992993 992993 1853
Width: 1000
Flags: MW
LayerCount: 2
Back
Fore
SplineSet
721 -192 m 0
 721 -163 919 -65 919 281 c 0
 919 599 724 726 724 753 c 0
 724 766 738 772 744 772 c 0
 777 772 964 558 964 280 c 0
 964 -35 763 -214 742 -214 c 0
 724 -214 721 -203 721 -192 c 0
34 278 m 0
 34 593 235 772 256 772 c 0
 274 772 277 762 277 751 c 0
 277 722 79 623 79 277 c 0
 79 -41 274 -168 274 -195 c 0
 274 -208 260 -214 254 -214 c 0
 221 -214 34 0 34 278 c 0
126 165 m 0
 126 283 228 313 228 318 c 0
 228 326 151 348 151 438 c 0
 151 534 225 587 305 587 c 0
 419 587 447 511 447 458 c 0
 447 347 353 344 353 338 c 0
 353 328 466 298 466 177 c 0
 466 111 432 3 294 3 c 0
 203 3 126 59 126 165 c 0
172 188 m 0
 172 89 243 34 309 34 c 0
 364 34 414 73 414 158 c 0
 414 191 396 223 376 240 c 0
 328 281 269 301 254 301 c 0
 224 301 172 253 172 188 c 0
202 458 m 0
 202 372 312 354 326 354 c 0
 356 354 401 382 401 454 c 0
 401 488 377 557 300 557 c 0
 258 557 202 537 202 458 c 0
519 278 m 0
 519 472 607 589 709 589 c 0
 819 589 874 463 874 309 c 0
 874 148 814 8 693 8 c 0
 558 8 519 140 519 278 c 0
567 331 m 0
 567 194 623 41 714 41 c 0
 792 41 830 151 830 268 c 0
 830 400 781 541 686 541 c 0
 603 541 567 441 567 331 c 0
EndSplineSet
EndChar
StartChar: uF26E3
Encoding: 992995 992995 1855
Width: 1000
Flags: MW
LayerCount: 2
Back
Fore
SplineSet
721 -192 m 0
 721 -163 919 -65 919 281 c 0
 919 599 724 726 724 753 c 0
 724 766 738 772 744 772 c 0
 777 772 964 558 964 280 c 0
 964 -35 763 -214 742 -214 c 0
 724 -214 721 -203 721 -192 c 0
34 278 m 0
 34 593 235 772 256 772 c 0
 274 772 277 762 277 751 c 0
 277 722 79 623 79 277 c 0
 79 -41 274 -168 274 -195 c 0
 274 -208 260 -214 254 -214 c 0
 221 -214 34 0 34 278 c 0
128 166 m 0
 128 284 230 314 230 319 c 0
 230 327 153 349 153 439 c 0
 153 535 226 588 306 588 c 0
 420 588 449 512 449 459 c 0
 449 348 354 344 354 338 c 0
 354 328 468 299 468 178 c 0
 468 112 433 4 295 4 c 0
 204 4 128 60 128 166 c 0
174 189 m 0
 174 90 244 34 310 34 c 0
 365 34 416 74 416 159 c 0
 416 192 398 224 378 241 c 0
 330 282 271 302 256 302 c 0
 226 302 174 254 174 189 c 0
204 459 m 0
 204 373 313 354 327 354 c 0
 357 354 402 382 402 454 c 0
 402 488 379 558 302 558 c 0
 260 558 204 538 204 459 c 0
540 30 m 2
 540 33 l 2
 540 58 624 110 718 315 c 0
 739 361 754 417 754 464 c 0
 754 508 721 541 670 541 c 0
 592 541 570 490 554 490 c 0
 550 490 547 495 547 501 c 0
 547 509 593 595 697 595 c 0
 756 595 821 559 821 482 c 0
 821 338 626 108 626 92 c 0
 626 84 662 82 685 82 c 0
 811 82 791 84 811 94 c 0
 834 105 852 138 863 138 c 0
 869 138 872 134 872 130 c 0
 872 124 816 34 816 34 c 2
 808 23 800 20 793 20 c 0
 702 20 698 22 660 22 c 0
 641 22 588 20 566 20 c 0
 540 20 540 24 540 30 c 2
EndSplineSet
EndChar
StartChar: uF26E4
Encoding: 992996 992996 1856
Width: 1000
Flags: MW
LayerCount: 2
Back
Fore
SplineSet
721 -192 m 0
 721 -163 919 -65 919 281 c 0
 919 599 724 726 724 753 c 0
 724 766 738 772 744 772 c 0
 777 772 964 558 964 280 c 0
 964 -35 763 -214 742 -214 c 0
 724 -214 721 -203 721 -192 c 0
34 278 m 0
 34 593 235 772 256 772 c 0
 274 772 277 762 277 751 c 0
 277 722 79 623 79 277 c 0
 79 -41 274 -168 274 -195 c 0
 274 -208 260 -214 254 -214 c 0
 221 -214 34 0 34 278 c 0
133 164 m 0
 133 282 235 313 235 318 c 0
 235 326 158 348 158 438 c 0
 158 534 232 587 312 587 c 0
 426 587 454 511 454 458 c 0
 454 347 360 343 360 337 c 0
 360 327 473 297 473 176 c 0
 473 110 438 3 300 3 c 0
 209 3 133 58 133 164 c 0
179 188 m 0
 179 89 250 33 316 33 c 0
 371 33 421 73 421 158 c 0
 421 191 403 223 383 240 c 0
 335 281 276 300 261 300 c 0
 231 300 179 253 179 188 c 0
209 458 m 0
 209 372 318 353 332 353 c 0
 362 353 408 381 408 453 c 0
 408 487 384 556 307 556 c 0
 265 556 209 537 209 458 c 0
540 56 m 0
 540 59 542 69 557 69 c 0
 569 69 586 32 656 32 c 0
 760 32 800 139 800 193 c 0
 800 251 775 311 687 311 c 0
 671 311 664 308 662 308 c 0
 653 308 651 315 651 320 c 0
 651 330 662 327 717 369 c 0
 749 394 768 431 768 464 c 0
 768 505 736 540 694 540 c 0
 641 540 602 492 587 492 c 0
 581 492 580 495 580 499 c 0
 580 537 658 587 713 587 c 0
 771 587 829 558 829 493 c 0
 829 435 798 409 764 375 c 0
 757 368 752 364 752 360 c 0
 752 354 784 358 816 332 c 0
 846 308 867 275 867 225 c 0
 867 95 772 1 665 1 c 0
 605 1 540 30 540 56 c 0
EndSplineSet
EndChar
StartChar: uF26E5
Encoding: 992997 992997 1857
Width: 1000
Flags: MW
LayerCount: 2
Back
Fore
SplineSet
721 -192 m 0
 721 -163 919 -65 919 281 c 0
 919 599 724 726 724 753 c 0
 724 766 738 772 744 772 c 0
 777 772 964 558 964 280 c 0
 964 -35 763 -214 742 -214 c 0
 724 -214 721 -203 721 -192 c 0
34 278 m 0
 34 593 235 772 256 772 c 0
 274 772 277 762 277 751 c 0
 277 722 79 623 79 277 c 0
 79 -41 274 -168 274 -195 c 0
 274 -208 260 -214 254 -214 c 0
 221 -214 34 0 34 278 c 0
123 158 m 0
 123 276 224 306 224 311 c 0
 224 319 148 341 148 431 c 0
 148 527 221 580 301 580 c 0
 415 580 444 504 444 451 c 0
 444 340 349 336 349 330 c 0
 349 320 463 291 463 170 c 0
 463 104 428 -4 290 -4 c 0
 199 -4 123 52 123 158 c 0
168 181 m 0
 168 82 239 26 305 26 c 0
 360 26 411 66 411 151 c 0
 411 184 392 216 372 233 c 0
 324 274 266 294 251 294 c 0
 221 294 168 246 168 181 c 0
199 451 m 0
 199 365 308 346 322 346 c 0
 352 346 397 374 397 446 c 0
 397 480 373 550 296 550 c 0
 254 550 199 530 199 451 c 0
508 191 m 0
 508 211 516 223 720 506 c 0
 744 540 767 580 784 580 c 0
 791 580 797 575 797 564 c 0
 797 559 788 294 788 256 c 0
 788 239 788 236 798 236 c 0
 853 236 850 262 868 262 c 0
 870 262 877 260 877 250 c 0
 877 240 872 229 868 215 c 0
 866 209 865 178 848 178 c 0
 835 178 811 181 800 181 c 0
 790 181 786 176 786 165 c 0
 786 136 788 108 788 58 c 0
 788 -6 788 10 788 -12 c 0
 788 -52 788 -45 759 -54 c 0
 748 -57 735 -59 732 -59 c 0
 719 -59 715 -44 715 -38 c 0
 715 -30 728 -4 728 175 c 0
 728 180 725 180 720 180 c 2
 618 180 l 2
 585 180 556 178 531 178 c 0
 515 178 508 179 508 191 c 0
578 241 m 0
 578 235 587 234 600 234 c 2
 706 234 l 2
 728 234 729 236 729 250 c 0
 729 256 732 386 732 436 c 0
 732 451 730 459 728 459 c 0
 722 459 578 260 578 241 c 0
EndSplineSet
EndChar
StartChar: uF26E6
Encoding: 992998 992998 1858
Width: 1000
Flags: MW
LayerCount: 2
Back
Fore
SplineSet
721 -192 m 0
 721 -163 919 -65 919 281 c 0
 919 599 724 726 724 753 c 0
 724 766 738 772 744 772 c 0
 777 772 964 558 964 280 c 0
 964 -35 763 -214 742 -214 c 0
 724 -214 721 -203 721 -192 c 0
34 278 m 0
 34 593 235 772 256 772 c 0
 274 772 277 762 277 751 c 0
 277 722 79 623 79 277 c 0
 79 -41 274 -168 274 -195 c 0
 274 -208 260 -214 254 -214 c 0
 221 -214 34 0 34 278 c 0
135 165 m 0
 135 283 237 314 237 319 c 0
 237 327 160 349 160 439 c 0
 160 535 234 588 314 588 c 0
 428 588 456 512 456 459 c 0
 456 348 362 344 362 338 c 0
 362 328 475 298 475 177 c 0
 475 111 440 4 302 4 c 0
 211 4 135 59 135 165 c 0
181 188 m 0
 181 89 252 34 318 34 c 0
 373 34 423 74 423 159 c 0
 423 192 405 223 385 240 c 0
 337 281 278 301 263 301 c 0
 233 301 181 253 181 188 c 0
211 459 m 0
 211 373 320 354 334 354 c 0
 364 354 410 382 410 454 c 0
 410 488 386 557 309 557 c 0
 267 557 211 538 211 459 c 0
546 32 m 0
 546 40 552 44 558 44 c 0
 574 44 584 26 647 26 c 0
 739 26 799 106 799 198 c 0
 799 263 762 320 679 320 c 0
 628 320 622 312 609 312 c 0
 594 312 590 326 590 332 c 0
 590 351 610 437 625 548 c 0
 627 559 632 568 650 568 c 0
 801 570 807 568 823 580 c 0
 837 590 840 600 850 600 c 0
 856 600 859 596 859 592 c 0
 859 589 858 584 856 580 c 0
 824 515 824 509 806 509 c 0
 800 509 775 510 754 510 c 0
 694 510 652 502 650 497 c 0
 643 480 630 403 630 385 c 0
 630 379 634 373 636 373 c 0
 638 373 651 380 704 380 c 0
 754 380 798 360 823 332 c 0
 852 300 865 258 865 228 c 0
 865 71 752 -4 658 -4 c 0
 619 -4 546 6 546 32 c 0
EndSplineSet
EndChar
StartChar: uF26E7
Encoding: 992999 992999 1859
Width: 1000
Flags: MW
LayerCount: 2
Back
Fore
SplineSet
721 -192 m 0
 721 -163 919 -65 919 281 c 0
 919 599 724 726 724 753 c 0
 724 766 738 772 744 772 c 0
 777 772 964 558 964 280 c 0
 964 -35 763 -214 742 -214 c 0
 724 -214 721 -203 721 -192 c 0
34 278 m 0
 34 593 235 772 256 772 c 0
 274 772 277 762 277 751 c 0
 277 722 79 623 79 277 c 0
 79 -41 274 -168 274 -195 c 0
 274 -208 260 -214 254 -214 c 0
 221 -214 34 0 34 278 c 0
128 166 m 0
 128 284 230 314 230 319 c 0
 230 327 153 349 153 439 c 0
 153 535 227 588 307 588 c 0
 421 588 449 512 449 459 c 0
 449 348 355 345 355 339 c 0
 355 329 468 299 468 178 c 0
 468 112 434 4 296 4 c 0
 205 4 128 60 128 166 c 0
174 189 m 0
 174 90 245 35 311 35 c 0
 366 35 416 74 416 159 c 0
 416 192 398 224 378 241 c 0
 330 282 271 302 256 302 c 0
 226 302 174 254 174 189 c 0
204 459 m 0
 204 373 314 355 328 355 c 0
 358 355 403 383 403 455 c 0
 403 489 379 558 302 558 c 0
 260 558 204 538 204 459 c 0
525 219 m 0
 525 494 786 599 840 599 c 0
 850 599 854 591 854 585 c 0
 854 563 805 584 719 510 c 0
 641 444 607 357 607 331 c 0
 607 326 608 323 610 323 c 0
 618 323 645 379 727 379 c 0
 808 379 872 308 872 203 c 0
 872 90 798 3 704 3 c 0
 687 3 647 6 613 32 c 0
 579 59 525 115 525 219 c 0
592 212 m 0
 592 166 617 36 722 36 c 0
 786 36 816 100 816 169 c 0
 816 252 772 343 692 343 c 0
 658 343 605 312 597 271 c 0
 594 253 592 238 592 212 c 0
EndSplineSet
EndChar
StartChar: uF26E8
Encoding: 993000 993000 1860
Width: 1000
Flags: MW
LayerCount: 2
Back
Fore
SplineSet
721 -192 m 0
 721 -163 919 -65 919 281 c 0
 919 599 724 726 724 753 c 0
 724 766 738 772 744 772 c 0
 777 772 964 558 964 280 c 0
 964 -35 763 -214 742 -214 c 0
 724 -214 721 -203 721 -192 c 0
34 278 m 0
 34 593 235 772 256 772 c 0
 274 772 277 762 277 751 c 0
 277 722 79 623 79 277 c 0
 79 -41 274 -168 274 -195 c 0
 274 -208 260 -214 254 -214 c 0
 221 -214 34 0 34 278 c 0
140 159 m 0
 140 277 242 308 242 313 c 0
 242 321 165 343 165 433 c 0
 165 529 239 582 319 582 c 0
 433 582 461 506 461 453 c 0
 461 342 367 338 367 332 c 0
 367 322 480 292 480 171 c 0
 480 105 446 -2 308 -2 c 0
 217 -2 140 53 140 159 c 0
186 182 m 0
 186 83 257 28 323 28 c 0
 378 28 428 68 428 153 c 0
 428 186 410 217 390 234 c 0
 342 275 283 295 268 295 c 0
 238 295 186 247 186 182 c 0
216 453 m 0
 216 367 326 348 340 348 c 0
 370 348 415 376 415 448 c 0
 415 482 391 551 314 551 c 0
 272 551 216 532 216 453 c 0
561 463 m 0
 561 493 575 527 580 557 c 0
 581 564 588 566 592 566 c 0
 618 566 619 563 722 563 c 2
 747 563 l 2
 818 563 825 565 839 565 c 0
 851 565 860 558 860 548 c 0
 860 433 723 199 723 71 c 0
 723 6 740 -6 740 -20 c 0
 740 -39 696 -45 690 -45 c 0
 668 -45 650 -37 650 26 c 0
 650 150 765 327 799 423 c 0
 811 457 817 483 817 495 c 0
 817 498 811 506 801 506 c 0
 797 506 792 506 786 506 c 0
 776 506 730 505 692 505 c 0
 678 505 679 506 668 506 c 0
 608 506 595 484 587 458 c 0
 584 447 579 431 572 431 c 0
 565 431 561 445 561 463 c 0
EndSplineSet
EndChar
StartChar: uF26E9
Encoding: 993001 993001 1861
Width: 1000
Flags: MW
LayerCount: 2
Back
Fore
SplineSet
721 -192 m 0
 721 -163 919 -65 919 281 c 0
 919 599 724 726 724 753 c 0
 724 766 738 772 744 772 c 0
 777 772 964 558 964 280 c 0
 964 -35 763 -214 742 -214 c 0
 724 -214 721 -203 721 -192 c 0
34 278 m 0
 34 593 235 772 256 772 c 0
 274 772 277 762 277 751 c 0
 277 722 79 623 79 277 c 0
 79 -41 274 -168 274 -195 c 0
 274 -208 260 -214 254 -214 c 0
 221 -214 34 0 34 278 c 0
130 165 m 0
 130 283 232 313 232 318 c 0
 232 326 155 348 155 438 c 0
 155 534 228 587 308 587 c 0
 422 587 451 511 451 458 c 0
 451 347 356 343 356 337 c 0
 356 327 470 298 470 177 c 0
 470 111 435 3 297 3 c 0
 206 3 130 59 130 165 c 0
176 188 m 0
 176 89 246 33 312 33 c 0
 367 33 418 73 418 158 c 0
 418 191 400 223 380 240 c 0
 332 281 273 301 258 301 c 0
 228 301 176 253 176 188 c 0
206 458 m 0
 206 372 315 353 329 353 c 0
 359 353 404 381 404 453 c 0
 404 487 381 557 304 557 c 0
 262 557 206 537 206 458 c 0
530 165 m 0
 530 283 632 313 632 318 c 0
 632 326 555 348 555 438 c 0
 555 534 628 587 708 587 c 0
 822 587 851 511 851 458 c 0
 851 347 756 343 756 337 c 0
 756 327 870 298 870 177 c 0
 870 111 835 3 697 3 c 0
 606 3 530 59 530 165 c 0
576 188 m 0
 576 89 646 33 712 33 c 0
 767 33 818 73 818 158 c 0
 818 191 800 223 780 240 c 0
 732 281 673 301 658 301 c 0
 628 301 576 253 576 188 c 0
606 458 m 0
 606 372 715 353 729 353 c 0
 759 353 804 381 804 453 c 0
 804 487 781 557 704 557 c 0
 662 557 606 537 606 458 c 0
EndSplineSet
EndChar
